<svg width="1049" height="234" viewBox="0 0 1049 234" fill="none" xmlns="http://www.w3.org/2000/svg">
<g clip-path="url(#clip0_1657_21)">
<path fill-rule="evenodd" clip-rule="evenodd" d="M121.209 4.47985H121.263C121.465 4.48157 121.465 4.48157 121.664 4.48835L121.961 4.5027L122.57 4.51516L122.615 4.52405L122.664 4.52487L122.712 4.53055L182.348 4.27243L210.113 4.14273L217.476 4.11685L222.041 4.09102L229.659 4.02344L229.627 8.71833L229.575 16.34L229.523 24.7493L229.342 48.6302L228.929 110.945C228.929 111.242 228.914 111.489 228.873 111.73L228.851 115.564L228.825 119.739L228.815 120.017C228.812 120.068 228.81 120.096 228.807 120.17L228.782 120.81L228.77 121.017C228.638 124.698 228.323 128.414 227.829 132.211L227.827 132.228C224.585 156.424 213.595 178.955 195.965 196.628C152.084 240.615 80.878 240.624 36.989 196.628C-6.90258 152.629 -6.90258 81.3463 36.989 37.3475C54.5665 19.7271 77.0509 8.71625 101.246 5.40251C107.944 4.50553 114.596 4.19326 121.209 4.47985Z" stroke="black" stroke-width="7.68498"/>
<path d="M209.646 146.901C205.066 160.994 197.13 174.229 185.941 185.41C149.147 222.177 90.2353 223.373 52.0365 188.946L80.4775 160.526C113.602 189.154 169.131 183.174 209.646 146.901ZM86.8266 24.1702C50.6053 64.5256 44.5945 119.832 72.9574 152.959L44.4904 181.406C10.3248 143.208 11.5998 84.5213 48.2895 47.8582C59.4785 36.6773 72.7492 28.7726 86.8266 24.1702ZM215.761 71.8842C215.448 72.4043 215.136 72.9243 214.798 73.4184C214.746 73.5224 214.668 73.6004 214.616 73.7044L214.356 113.228C214.46 115.62 214.434 118.038 214.356 120.404C214.278 122.511 214.121 124.591 213.887 126.697C211.806 129.141 209.49 131.663 207.148 134.003C170.354 170.771 118.312 177.843 88.2838 152.673L120.342 120.638C138.062 131.897 171.083 121.314 197.494 94.9222C198.275 94.1421 199.055 93.3621 199.81 92.556C202.386 89.8258 204.832 87.0175 207.07 84.2093L208.241 82.7272C208.267 82.7012 208.293 82.6752 208.319 82.6492L208.537 82.3607L208.985 81.7935C209.059 81.6985 209.132 81.6026 209.203 81.5051C211.155 78.9308 212.95 76.3046 214.59 73.6784C214.642 73.6264 214.668 73.5484 214.72 73.4964C215.11 72.9503 215.448 72.4043 215.761 71.8842ZM161.611 17.9297L161.637 17.9557C160.986 18.3457 160.336 18.7358 159.685 19.1559L159.295 19.4118C156.433 21.232 153.57 23.2601 150.76 25.4443L149.355 26.5364C146.519 28.7986 143.735 31.2168 141.002 33.791C140.196 34.5451 139.415 35.3252 138.634 36.1052C112.275 62.4454 101.659 95.3642 112.848 113.098L80.7897 145.132C55.8616 115.074 63.0434 63.2775 99.707 26.6404C102.049 24.3002 104.573 21.986 107.019 19.9059C111.312 19.4638 115.606 19.2818 119.899 19.4118C120.862 19.4378 121.799 19.4898 122.736 19.5418L159.269 19.3858C159.295 19.3598 159.321 19.3338 159.373 19.3338C160.128 18.8398 160.882 18.3977 161.611 17.9297H161.611ZM215.058 19.1258V19.1778L215.006 26.0424L214.85 46.6881C214.824 46.7141 214.824 46.7661 214.798 46.7921C214.772 46.9221 214.72 47.0782 214.694 47.2082C213.497 51.4725 211.753 55.8669 209.49 60.2613C207.668 63.9016 205.456 67.5679 202.984 71.1822C201.787 72.9503 200.512 74.6925 199.159 76.4086C196.921 79.2689 194.528 82.0771 191.951 84.8073C191.197 85.6134 190.416 86.3935 189.636 87.1735C176.989 99.8106 162.444 108.729 149.251 112.344C137.646 115.568 128.772 114.242 124.063 109.535C119.353 104.829 118.052 95.9363 121.252 84.2613C124.895 71.0522 133.821 56.517 146.441 43.9059C147.221 43.1258 148.002 42.3457 148.809 41.5917C151.541 39.0175 154.351 36.5733 157.213 34.3891C158.905 33.063 160.648 31.7889 162.366 30.5928C165.983 28.1225 169.651 25.9124 173.268 24.0662C177.172 22.09 181.075 20.4779 184.874 19.2818C184.9 19.2558 184.926 19.2818 184.952 19.2558L208.839 19.1518L214.902 19.1258H215.058Z" fill="#3BEEED"/>
<path d="M341.181 197.359C353.604 197.359 364.512 195.07 373.907 190.494C383.301 185.917 390.6 179.44 395.802 171.062C401.004 162.684 403.604 152.988 403.604 141.972C403.604 141.352 403.333 140.809 402.789 140.343C402.246 139.878 401.586 139.645 400.809 139.645L367.734 138.016C365.871 138.016 364.939 138.87 364.939 140.576C364.939 147.713 362.765 153.453 358.417 157.797C354.07 162.141 348.324 164.313 341.181 164.313C334.038 164.313 328.293 162.141 323.945 157.797C319.597 153.453 317.423 147.713 317.423 140.576V87.7497C317.423 80.6131 319.597 74.834 323.945 70.4124C328.293 65.9908 334.038 63.78 341.181 63.78C348.324 63.78 354.07 65.952 358.417 70.296C362.765 74.6401 364.939 80.4579 364.939 87.7497C364.939 89.4563 365.871 90.3096 367.734 90.3096L400.809 88.2151C401.586 88.2151 402.246 87.9824 402.789 87.517C403.333 87.0515 403.604 86.431 403.604 85.6553C403.604 74.7952 401.004 65.2151 395.802 56.9149C390.6 48.6147 383.301 42.1762 373.907 37.5995C364.512 33.0227 353.604 30.7344 341.181 30.7344C328.759 30.7344 317.85 33.1391 308.455 37.9486C299.061 42.758 291.763 49.5456 286.561 58.3112C281.359 67.0768 278.758 77.1999 278.758 88.6806V138.947C278.758 150.583 281.359 160.822 286.561 169.666C291.763 178.509 299.061 185.335 308.455 190.145C317.85 194.954 328.759 197.359 341.181 197.359ZM478.509 197.359C490.776 197.359 501.53 195.381 510.769 191.425C520.008 187.468 527.19 181.844 532.314 174.553C537.439 167.261 540.001 158.573 540.001 148.488C540.001 138.249 537.322 129.988 531.965 123.704C526.608 117.421 520.901 112.883 514.845 110.09C508.789 107.298 500.326 104.04 489.457 100.316C479.984 97.2135 472.958 94.6924 468.377 92.7531C463.796 90.8138 460.419 88.7193 458.245 86.4698C456.071 84.2202 454.984 81.3888 454.984 77.9756C454.984 73.4765 456.692 69.9857 460.108 67.5034C463.524 65.0211 468.261 63.78 474.317 63.78C482.391 63.78 488.835 65.8744 493.649 70.0633C498.463 74.2522 500.87 79.0616 500.87 84.4917V86.1207C500.87 86.8964 501.141 87.5558 501.685 88.0988C502.228 88.6418 502.888 88.9133 503.665 88.9133H536.041C536.818 88.9133 537.477 88.6418 538.021 88.0988C538.564 87.5558 538.836 86.8964 538.836 86.1207V82.8627C538.836 72.6232 536.119 63.5473 530.684 55.6349C525.249 47.7226 517.757 41.5944 508.207 37.2504C498.657 32.9064 487.904 30.7344 475.947 30.7344C464.611 30.7344 454.44 32.6737 445.434 36.5523C436.428 40.4309 429.401 45.9772 424.355 53.1914C419.308 60.4056 416.785 68.8222 416.785 78.4411C416.785 88.3703 419.424 96.7092 424.704 103.458C429.984 110.207 436.35 115.482 443.804 119.283C451.257 123.084 460.031 126.613 470.124 129.871C470.9 130.182 471.754 130.453 472.686 130.686C473.618 130.918 474.549 131.268 475.481 131.733C482.314 134.06 487.36 135.883 490.621 137.202C493.882 138.52 496.483 140.149 498.424 142.089C500.365 144.028 501.336 146.549 501.336 149.652C501.336 153.531 499.705 156.944 496.444 159.892C493.183 162.839 488.137 164.313 481.304 164.313C472.608 164.313 465.698 162.413 460.574 158.612C455.45 154.811 452.888 150.35 452.888 145.23V142.438C452.888 141.662 452.616 141.003 452.072 140.46C451.529 139.917 450.869 139.645 450.093 139.645H417.716C416.94 139.645 416.28 139.917 415.736 140.46C415.193 141.003 414.921 141.662 414.921 142.438V146.859C414.921 156.944 417.522 165.826 422.724 173.505C427.926 181.185 435.302 187.08 444.852 191.192C454.402 195.303 465.621 197.359 478.509 197.359ZM590.216 195.497C590.992 195.497 591.652 195.226 592.195 194.683C592.739 194.14 593.011 193.48 593.011 192.704V136.62C593.011 135.844 593.399 135.456 594.175 135.456H622.592C633.617 135.456 643.322 133.362 651.707 129.173C660.093 124.984 666.576 119.011 671.156 111.254C675.737 103.497 678.028 94.576 678.028 84.4917C678.028 74.2522 675.815 65.2151 671.389 57.3803C666.964 49.5456 660.675 43.4562 652.522 39.1121C644.37 34.7681 635.014 32.5961 624.455 32.5961H557.141C556.364 32.5961 555.704 32.8676 555.161 33.4106C554.617 33.9536 554.346 34.613 554.346 35.3887V192.704C554.346 193.48 554.617 194.14 555.161 194.683C555.704 195.226 556.364 195.497 557.141 195.497H590.216ZM618.166 104.738H594.175C593.399 104.738 593.011 104.35 593.011 103.574V66.8053C593.011 66.0296 593.399 65.6417 594.175 65.6417H618.166C624.533 65.6417 629.696 67.4647 633.656 71.1105C637.615 74.7564 639.595 79.5271 639.595 85.4225C639.595 91.1629 637.615 95.8172 633.656 99.3855C629.696 102.954 624.533 104.738 618.166 104.738Z" fill="black"/>
<path d="M997.75 30.3906C1013.44 30.3906 1025.9 34.7796 1035.14 43.5574C1044.38 52.3353 1049 64.0261 1049 78.63C1049 82.3586 1048.85 85.2328 1048.54 87.2525L1042.01 140.386L1041.85 141.596C1040.35 152.441 1036.75 162.058 1031.06 170.448C1025.16 179.148 1017.55 185.867 1008.23 190.606C998.915 195.344 988.587 197.714 977.25 197.714C961.719 197.714 949.373 193.325 940.21 184.547C931.046 175.769 926.465 164 926.465 149.241C926.465 145.357 926.62 142.405 926.931 140.386L933.454 87.2525L933.612 86.0589C935.112 75.3607 938.67 65.8544 944.286 57.5398C950.11 48.9173 957.643 42.2368 966.883 37.4984C976.124 32.7599 986.413 30.3906 997.75 30.3906ZM735.399 32.2549L736.473 32.2615C750.723 32.4352 762.091 36.084 770.576 43.2078C779.273 50.5098 783.621 60.4528 783.621 73.037C783.621 74.5906 783.466 76.921 783.155 80.0282L775.002 147.61L774.871 148.579C772.853 162.728 766.529 174.019 755.899 182.449C745.028 191.072 731.516 195.383 715.365 195.383H660.153L659.87 195.37C659.224 195.311 658.697 195.043 658.29 194.568C657.824 194.024 657.669 193.364 657.824 192.587L665.01 134.047C671.461 129.435 676.711 123.697 680.761 116.83C686.433 107.213 689.27 96.1524 689.27 83.6496C689.27 70.9544 686.53 59.75 681.05 50.0363C679.599 47.4649 677.986 45.0451 676.212 42.777L677.159 35.0514L677.238 34.7257C677.419 34.0884 677.742 33.5367 678.208 33.0706C678.751 32.5268 679.411 32.2549 680.188 32.2549H735.399ZM876.242 32.2549L876.515 32.2653C877.752 32.362 878.515 33.1353 878.805 34.5854L908.857 192.121V192.82L908.847 193.112C908.744 194.626 907.815 195.383 906.061 195.383H883.464L883.192 195.373C881.955 195.276 881.191 194.503 880.902 193.053L876.475 168.118L876.461 167.994C876.432 167.863 876.359 167.71 876.242 167.535C876.087 167.302 875.854 167.185 875.544 167.185H815.906L815.782 167.2C815.477 167.268 815.052 167.574 814.508 168.118L804.025 193.053L803.924 193.353C803.412 194.707 802.358 195.383 800.764 195.383H778.167L777.866 195.372C777.092 195.31 776.532 195.003 776.187 194.451C775.798 193.83 775.837 193.053 776.303 192.121L844.793 34.5854L844.964 34.2643C845.726 32.9247 846.756 32.2549 848.054 32.2549H876.242ZM994.955 53.6947C985.481 53.6947 977.56 56.7242 971.193 62.7832C964.825 68.8423 961.02 76.921 959.778 87.0194L953.022 141.318L952.948 141.926C952.687 144.11 952.556 145.772 952.556 146.911C952.556 155.3 955.041 161.981 960.011 166.952C964.981 171.924 971.659 174.41 980.045 174.41C989.519 174.41 997.517 171.419 1004.04 165.438C1010.56 159.456 1014.45 151.416 1015.69 141.318L1022.21 87.0194L1022.29 86.4109C1022.55 84.2273 1022.68 82.5658 1022.68 81.4265C1022.68 73.037 1020.19 66.3177 1015.22 61.2685C1010.25 56.2193 1003.5 53.6947 994.955 53.6947ZM733.302 55.559H701.853L701.671 55.573C701.435 55.6103 701.224 55.7221 701.038 55.9086C700.805 56.1416 700.688 56.4135 700.688 56.7242L686.711 170.914L686.65 171.086C686.452 171.748 686.782 172.079 687.643 172.079H719.325C727.245 172.079 733.924 169.477 739.359 164.272C744.795 159.068 748.056 152.115 749.144 143.415L756.598 84.456L756.639 84.1459C756.767 83.0674 756.831 81.5395 756.831 79.5621C756.831 72.1049 754.735 66.24 750.541 61.9676C746.348 57.6952 740.602 55.559 733.302 55.559ZM857.839 65.5797C857.528 65.5797 857.295 65.8904 857.14 66.5119L824.526 144.58L824.436 144.773C824.097 145.577 824.359 145.979 825.224 145.979H871.117C872.049 145.979 872.36 145.513 872.049 144.58L858.538 66.5119L858.476 66.2934C858.323 65.8176 858.11 65.5797 857.839 65.5797Z" fill="#3BEEED"/>
</g>
<defs>
<clipPath id="clip0_1657_21">
<rect width="1049" height="233.693" fill="white"/>
</clipPath>
</defs>
</svg>
