<svg width="653" height="90" viewBox="0 0 653 90" fill="none" xmlns="http://www.w3.org/2000/svg">
<g clip-path="url(#clip0_1647_2)">
<path d="M35.1473 18.7245C30.4683 18.7245 26.7685 20.4182 24.2658 23.7115C21.6542 27.0047 20.3484 31.6153 20.3484 37.4491C20.3484 49.5871 25.6804 55.7031 36.3443 55.7031C39.6087 55.7031 42.6556 55.2327 45.8112 54.574C48.7492 53.8213 51.9049 52.8804 54.9517 51.7512V66.2416C48.858 68.4998 41.8939 69.6289 34.2768 69.6289C23.1776 69.6289 14.7989 66.9002 9.03166 61.3487C3.26446 55.7972 0 47.7993 0 37.355C0 30.7684 1.52341 25.0288 4.35261 20.0418C7.1818 15.0549 11.3168 11.2912 16.5399 8.56248C21.763 5.83378 28.292 4.51646 35.3649 4.51646C43.3085 4.51646 50.7079 5.92787 57.9985 8.93885L51.9048 22.3942C49.2933 21.265 46.4641 20.4182 43.8525 19.6655C41.0233 19.0068 38.0853 18.7245 35.1473 18.7245ZM121.873 44.2238C121.873 52.2217 119.37 58.5259 114.474 62.9483C109.468 67.3707 102.613 69.6289 93.6899 69.6289C85.0935 69.6289 78.347 67.3707 73.2326 62.7601C68.1183 58.1495 65.6156 52.0335 65.6156 44.1297C65.6156 36.1318 68.1183 30.0157 73.015 25.4992C78.0205 21.0769 85.0935 18.8186 94.0163 18.8186C99.6747 18.8186 104.463 19.8536 108.706 21.8296C113.059 23.8055 116.323 26.8166 118.609 30.6744C120.785 34.6263 121.873 39.0487 121.873 44.2238ZM85.2023 44.2238C85.2023 48.3639 85.8552 51.6571 87.161 53.8213C88.4668 55.9854 90.6431 57.1145 93.7987 57.1145C96.7367 57.1145 98.913 55.9854 100.219 53.8213C101.525 51.563 102.069 48.3639 102.069 44.2238C102.069 40.0837 101.416 36.9786 100.219 34.8145C98.913 32.6503 96.7367 31.7094 93.7987 31.7094C90.8607 31.7094 88.6844 32.7444 87.3786 34.8145C85.8552 36.7904 85.2023 39.8955 85.2023 44.2238ZM152.668 68.7821H133.19V19.8537H152.668V68.7821ZM132.646 7.62155C132.646 5.08104 133.516 3.19917 135.148 1.88186C136.781 0.564559 139.501 0 143.092 0C146.683 0 149.403 0.564559 151.036 1.88186C152.668 3.19917 153.538 4.98693 153.538 7.43335C153.538 12.4203 150.056 14.8667 143.092 14.8667C136.128 15.0549 132.646 12.6085 132.646 7.62155ZM202.07 68.7821V42.0596C202.07 38.7664 201.526 36.32 200.438 34.8145C199.458 33.1208 197.608 32.2739 195.323 32.2739C192.059 32.2739 189.665 33.4031 188.25 35.6613C186.727 37.9195 186.074 41.7774 186.074 47.4229V68.8762H166.596V19.9477H181.286L183.789 25.9697H184.986C186.618 23.7115 188.903 21.9237 191.95 20.7946C194.888 19.6655 198.261 19.1009 202.179 19.1009C208.49 19.1009 213.278 20.7005 216.76 23.8056C220.242 26.9106 222.092 31.4271 222.092 37.0727V68.9703H202.287L202.07 68.7821ZM278.676 53.8213C278.676 59.0905 276.717 62.9483 272.582 65.677C268.447 68.4057 262.462 69.723 254.736 69.723C250.601 69.723 247.011 69.5348 243.855 69.1585C240.699 68.688 237.544 68.0293 234.388 66.9943V53.4449C237.326 54.574 240.699 55.609 244.29 56.2677C247.881 57.0204 251.037 57.3968 254.084 57.3968C258.436 57.3968 260.395 56.55 260.395 54.8563C260.395 54.0095 259.742 53.2567 258.545 52.5981C257.348 51.9394 253.866 50.6221 248.316 48.5521C243.202 46.6702 239.502 44.6942 237.435 42.2478C235.476 39.8014 234.279 36.9786 234.279 33.2149C234.279 28.6043 236.238 25.0288 240.373 22.6765C244.508 20.1359 250.166 18.8186 257.566 18.8186C261.374 18.8186 264.856 19.2891 268.012 19.9477C271.276 20.7005 274.758 21.6414 278.24 22.9587L272.909 33.7794C270.297 32.7444 267.577 31.8976 264.639 31.2389C261.701 30.4862 259.307 30.1098 257.566 30.1098C254.41 30.1098 252.778 30.8626 252.778 32.0858C252.778 32.9326 253.322 33.6853 254.41 34.2499C255.498 34.8145 258.763 35.9436 264.203 37.8254C268.121 39.2368 271.167 40.6482 273.017 41.9656C274.976 43.2829 276.499 44.9765 277.37 46.8584C278.132 48.9284 278.676 51.0926 278.676 53.8213ZM323.399 69.6289C320.57 69.6289 317.958 69.1585 315.673 68.4998C313.388 67.653 311.211 66.2416 308.926 64.0774H308.056C308.709 67.4648 308.926 69.6289 308.926 70.4758V90.0471H289.448V19.8537H305.335L308.165 26.1579H309.035C312.626 21.4532 317.632 19.0068 324.052 19.0068C330.363 19.0068 335.26 21.265 338.742 25.6874C342.333 30.1098 344.074 36.414 344.074 44.1297C344.074 52.0335 342.224 58.2436 338.415 62.8542C334.716 67.3707 329.71 69.6289 323.399 69.6289ZM316.87 32.1798C314.041 32.1798 311.864 33.0267 310.776 34.9086C309.579 36.6022 308.926 39.3309 308.926 42.8124V44.1297C308.926 48.2698 309.579 51.3749 310.885 53.2567C312.191 55.1386 314.149 56.0795 316.979 56.0795C319.481 56.0795 321.331 55.2327 322.419 53.3508C323.616 51.4689 324.052 48.3639 324.052 44.0356C324.052 39.8955 323.508 36.8845 322.419 35.0026C321.331 33.1208 319.481 32.1798 316.87 32.1798ZM382.594 69.6289C373.127 69.6289 365.946 67.4648 360.614 63.2306C355.499 58.9023 352.888 52.6922 352.888 44.6001C352.888 36.3199 355.39 30.0157 360.178 25.5933C364.966 21.1709 371.93 18.9127 380.853 18.9127C389.45 18.9127 395.87 20.7946 400.549 24.6524C405.228 28.5102 407.513 33.9676 407.513 41.2128V48.8343H372.583C372.801 51.563 373.889 53.7272 376.065 55.2327C378.242 56.8322 381.18 57.4909 384.988 57.4909C388.47 57.4909 391.626 57.2086 394.455 56.6441C397.393 56.0795 400.44 55.0445 403.922 53.8213V65.9593C400.766 67.2766 397.611 68.2175 394.455 68.7821C391.082 69.3467 387.056 69.6289 382.594 69.6289ZM381.506 30.4862C379.221 30.4862 377.153 31.0507 375.739 32.368C374.215 33.6853 373.236 35.4731 373.127 38.2018H389.994C389.994 35.7554 389.123 33.8735 387.709 32.4621C385.968 31.2389 383.9 30.4862 381.506 30.4862ZM455.392 68.7821L451.583 62.3837H451.257C448.645 65.2065 445.925 67.0884 443.204 68.1234C440.375 69.1585 436.893 69.723 432.649 69.723C427.317 69.723 423.074 68.3116 420.136 65.5829C416.98 62.8542 415.456 58.9023 415.456 53.8213C415.456 48.6461 417.633 44.6942 421.768 42.2478C425.903 39.7073 431.996 38.2018 439.94 37.9195L449.407 37.6373V36.8845C449.407 32.8385 447.122 30.8625 442.443 30.8625C438.308 30.8625 432.976 31.9917 426.773 34.4381L421.115 23.241C427.753 20.23 436.023 18.8186 446.034 18.8186C453.324 18.8186 458.983 20.4182 462.9 23.5233C466.817 26.6284 468.885 30.9566 468.885 36.5081V68.4998H455.5L455.392 68.7821ZM441.028 57.6791C443.313 57.6791 445.381 56.9263 447.122 55.7031C448.754 54.3858 449.624 52.6922 449.624 50.7162V46.8584L445.163 47.0466C438.743 47.2348 435.587 49.3048 435.587 53.1626C435.37 56.2677 437.219 57.6791 441.028 57.6791ZM501.203 41.2128C503.488 37.9195 505.555 35.4731 507.296 33.5912L520.028 19.7596H541.9L522.204 40.6482L542.988 68.7821H520.681L508.276 51.1867L501.965 55.3268V68.5939H482.269V1.4114H501.965V27.8516C501.965 32.4621 501.638 36.8845 500.768 41.1187H501.203V41.2128ZM577.047 69.6289C567.58 69.6289 560.398 67.4648 555.066 63.2306C549.952 58.9023 547.34 52.6922 547.34 44.6001C547.34 36.3199 549.843 30.0157 554.631 25.5933C559.419 21.1709 566.383 18.9127 575.306 18.9127C583.902 18.9127 590.322 20.7946 595.002 24.6524C599.681 28.5102 601.966 33.9676 601.966 41.2128V48.8343H566.927C567.145 51.563 568.233 53.7272 570.409 55.2327C572.586 56.8322 575.524 57.4909 579.332 57.4909C582.814 57.4909 585.97 57.2086 588.799 56.6441C591.737 56.0795 594.784 55.0445 598.266 53.8213V65.9593C595.11 67.2766 591.955 68.2175 588.799 68.7821C585.535 69.3467 581.508 69.6289 577.047 69.6289ZM575.85 30.4862C573.565 30.4862 571.497 31.0507 570.083 32.368C568.559 33.6853 567.58 35.4731 567.471 38.2018H584.338C584.338 35.7554 583.467 33.8735 582.053 32.4621C580.312 31.2389 578.353 30.4862 575.85 30.4862ZM647.015 18.9127C648.647 18.9127 650.28 19.1009 651.803 19.195L653 19.3832L651.15 35.2849C649.518 35.0027 647.342 34.7204 644.512 34.7204C640.16 34.7204 637.113 35.5672 635.263 37.2609C633.304 38.9546 632.325 41.401 632.325 44.506V68.4998H612.847V19.5714H627.428L630.366 27.4752H631.346C632.978 24.9347 635.263 22.7705 638.092 21.171C641.248 19.7596 644.186 18.9127 647.015 18.9127Z" fill="url(#paint0_linear_1647_2)"/>
</g>
<defs>
<linearGradient id="paint0_linear_1647_2" x1="-5.37841" y1="45.0706" x2="655.35" y2="45.0706" gradientUnits="userSpaceOnUse">
<stop stop-color="#F7102B"/>
<stop offset="0.49969" stop-color="#FB0925" stop-opacity="0.8"/>
<stop offset="1" stop-color="#FF011F" stop-opacity="0.5"/>
</linearGradient>
<clipPath id="clip0_1647_2">
<rect width="653" height="90" fill="white"/>
</clipPath>
</defs>
</svg>
