<svg width="748" height="230" viewBox="0 0 748 230" fill="none" xmlns="http://www.w3.org/2000/svg">
<g clip-path="url(#clip0_3309_11038)">
<path d="M77.4414 76.9296L106.775 59.998L136.109 76.9296L125.324 83.1845L106.775 72.508L88.2258 83.1845L77.4414 76.9296ZM136.109 98.2827L125.324 92.0277L106.775 102.704L88.2258 92.0277L77.4414 98.2827V110.793L95.9906 121.469V142.822L106.775 149.077L117.56 142.822V121.469L136.109 110.793V98.2827ZM136.109 132.146V119.636L125.324 125.891V138.4L136.109 132.146ZM143.765 136.567L125.216 147.244V159.754L154.55 142.822V108.959L143.765 115.214V136.567ZM132.981 87.6061L143.765 93.8611V106.371L154.55 100.116V87.6061L143.765 81.3512L132.981 87.6061ZM95.9906 151.774V164.283L106.775 170.538L117.56 164.283V151.774L106.775 158.028L95.9906 151.774ZM77.4414 132.146L88.2258 138.4V125.891L77.4414 119.636V132.146ZM95.9906 87.6061L106.775 93.8611L117.56 87.6061L106.775 81.3512L95.9906 87.6061ZM69.7844 93.8611L80.5688 87.6061L69.7844 81.3512L59 87.6061V100.116L69.7844 106.371V93.8611ZM69.7844 115.214L59 108.959V142.822L88.3335 159.754V147.244L69.7844 136.567V115.214Z" fill="#F0B90B"/>
<path d="M239.57 129.374V129.198C239.57 120.937 235.176 116.807 228.058 114.082C232.452 111.622 236.143 107.755 236.143 100.812V100.636C236.143 90.9688 228.409 84.729 215.841 84.729H187.279V146.248H216.545C230.43 146.248 239.57 140.623 239.57 129.374ZM222.696 103.097C222.696 107.667 218.918 109.6 212.942 109.6H200.462V96.5933H213.82C219.533 96.5933 222.696 98.8783 222.696 102.921V103.097ZM226.124 127.704C226.124 132.274 222.521 134.383 216.545 134.383H200.462V120.85H216.105C223.048 120.85 226.124 123.398 226.124 127.528V127.704Z" fill="#F0B90B"/>
<path d="M306.25 146.248V84.729H292.891V122.607L264.065 84.729H251.586V146.248H264.944V107.139L294.737 146.248H306.25Z" fill="#F0B90B"/>
<path d="M374.184 129.374V129.198C374.184 120.937 369.789 116.807 362.671 114.082C367.065 111.622 370.756 107.755 370.756 100.812V100.636C370.756 90.9688 363.022 84.729 350.455 84.729H321.893V146.248H351.158C365.044 146.248 374.184 140.623 374.184 129.374ZM357.31 103.097C357.31 107.667 353.531 109.6 347.555 109.6H335.075V96.5933H348.434C354.146 96.5933 357.31 98.8783 357.31 102.921V103.097ZM360.737 127.704C360.737 132.274 357.134 134.383 351.158 134.383H335.075V120.85H350.719C357.662 120.85 360.737 123.398 360.737 127.528V127.704Z" fill="#F0B90B"/>
<path d="M455.754 135.38L448.811 128.349C443.538 133.271 438.704 136.346 431.146 136.346C419.37 136.346 410.845 126.504 410.845 114.376C410.845 102.248 419.37 92.5803 431.146 92.5803C438.177 92.5803 443.45 95.6563 448.372 100.226L455.314 92.2288C449.426 86.6042 442.571 82.6494 431.234 82.6494C412.603 82.6494 399.508 96.9745 399.508 114.552C399.508 132.304 412.867 146.277 430.795 146.277C442.308 146.277 449.338 142.059 455.754 135.38Z" fill="#F0B90B"/>
<path d="M508.155 119.297V145.222H518.965V83.7036H508.155V109.278H478.802V83.7036H467.992V145.222H478.802V119.297H508.155Z" fill="#F0B90B"/>
<path d="M567.455 83.2627H557.438L530.369 145.221H541.442L547.77 130.368H576.86L583.101 145.221H594.524L567.455 83.2627ZM572.904 120.789H551.726L562.269 96.1817L572.904 120.789Z" fill="#F0B90B"/>
<path d="M606.568 83.7036V145.222H617.378V83.7036H606.568Z" fill="#F0B90B"/>
<path d="M677.704 126.239L644.744 83.7036H634.727V145.222H645.361V101.456L679.283 145.222H688.339V83.7036H677.704V126.239Z" fill="#F0B90B"/>
</g>
<defs>
<clipPath id="clip0_3309_11038">
<rect width="631" height="110.54" fill="white" transform="translate(59 59.999)"/>
</clipPath>
</defs>
</svg>
