<svg width="494" height="230" viewBox="0 0 494 230" fill="none" xmlns="http://www.w3.org/2000/svg">
<path d="M39.7958 87.9526L79.8681 64.8203C81.2512 64.0208 82.9516 64.0208 84.3347 64.8203L109.573 79.3874C112.111 80.8467 112.568 84.3235 110.5 86.4045L101.947 95.0077C100.526 96.4416 98.3054 96.7335 96.5543 95.7183L84.3728 88.6885C82.9643 87.8764 81.2259 87.8764 79.8174 88.6885L37.5625 113.331V91.8228C37.5625 90.2239 38.4127 88.752 39.7958 87.9526Z" fill="#FA8C16"/>
<path d="M109.662 149.889L84.322 164.507C82.9389 165.306 81.2385 165.306 79.8681 164.507L39.7958 141.374C38.4127 140.575 37.5625 139.103 37.5625 137.517V118.001L58.2077 106.035V125.589C58.2077 127.188 59.0579 128.66 60.441 129.447L79.8681 140.664C81.2512 141.463 82.9516 141.463 84.322 140.664L96.6178 133.571C98.3689 132.555 100.577 132.847 101.998 134.281L110.576 142.859C112.657 144.94 112.2 148.417 109.662 149.889Z" fill="black"/>
<path d="M271.578 74.9873V135.591C271.578 139.74 269.84 140.222 265.944 140.222H235.224C233.891 140.222 232.838 139.829 231.975 139.017C231.506 138.585 230.732 138.661 230.732 134.867V74.9873H215.188V136.504C215.188 141.669 216.964 146.008 220.466 149.409C223.829 152.696 228.613 154.358 234.691 154.358H267.492C273.075 154.358 277.77 152.632 281.438 149.219C285.206 145.717 287.11 141.872 287.11 135.07V74.9746L271.578 74.9873Z" fill="black"/>
<path d="M365.643 112.775C362.585 109.488 358.524 107.826 353.55 107.826H325.38C323.642 107.826 322.487 107.471 321.231 106.265C320.013 105.136 319.861 103.905 319.861 102.395V94.2611C319.861 92.7004 320.114 91.4188 321.142 90.3656C321.726 89.7819 322.627 89.0966 325.951 89.0966H369.666V74.9609H320.355C314.557 74.9609 309.874 77.4099 306.448 82.2191C305.027 84.1986 304.329 87.5613 304.329 92.51V107.242C304.329 111.848 305.509 115.363 307.831 117.685C310.636 120.528 314.404 121.974 319.01 121.974H348.627C350.518 121.974 351.888 122.33 352.738 123.027C354.02 124.055 354.629 125.159 354.629 126.415V134.422C354.629 138.318 353.867 138.254 353.436 138.686C352.332 139.739 350.873 140.247 348.995 140.247H304.266V154.382H352.015C357.56 154.382 362.115 152.58 365.542 149.04C368.612 145.855 370.173 141.401 370.173 135.805V126.53C370.148 120.616 368.638 115.998 365.643 112.775Z" fill="black"/>
<path d="M388.711 74.9883V89.124H414.648V154.346H430.179V89.124H456.433V74.9883H388.711Z" fill="black"/>
<path d="M199.163 107.889C199.556 103.27 199.163 92.3958 199.163 92.3958C199.163 85.3153 196.004 80.0746 189.786 76.8262C187.35 75.5319 183.657 74.9102 178.505 74.9102L149.257 74.9609C144.625 74.9609 130.883 74.9102 130.883 74.9102L137.9 89.0459H153.66C153.799 89.0459 153.939 89.0459 154.091 89.0459H176.323C179.723 89.0459 183.619 89.6549 183.619 94.4261V105.973C183.619 109.691 181.754 111.353 177.566 111.353H157.035H130.883V154.42H146.427V125.476H170.042L180.802 154.42H199.303C199.303 154.42 188.377 125.172 188.047 124.461C187.603 123.522 192.641 122.786 195.737 119.424C198.846 116.074 198.77 112.508 199.163 107.889Z" fill="black"/>
</svg>
