<svg width="748" height="230" viewBox="0 0 748 230" fill="none" xmlns="http://www.w3.org/2000/svg">
<path fill-rule="evenodd" clip-rule="evenodd" d="M206.692 182.531C169.331 182.675 138.832 152.063 139.001 114.446C139.171 77.2589 169.521 46.7771 207.136 47.0012C244.213 47.2226 274.666 77.6085 274.376 115.338C274.091 152.361 243.947 182.651 206.692 182.531Z" fill="#0090FF"/>
<path fill-rule="evenodd" clip-rule="evenodd" d="M215.096 109.289C220.999 110.124 226.768 110.939 232.715 111.781C233.216 109.988 233.641 108.46 234.129 106.713C228.012 105.807 222.174 104.942 215.906 104.013C218.014 96.5437 219.835 89.4018 222.112 82.4062C222.862 80.1037 224.538 77.9423 226.247 76.1539C228.488 73.81 231.589 74.3293 233.487 76.905C234.283 77.9838 235.032 79.1247 235.985 80.048C237.202 81.2251 238.995 81.7975 240.217 80.6515C241.021 79.8991 240.995 78.1288 241.07 76.7975C241.099 76.2627 240.47 75.6333 240.034 75.1399C237.912 72.7338 235.044 71.8817 232.017 71.7548C225.262 71.4712 220.415 74.9198 216.609 80.1322C212.838 85.2979 211.184 91.3715 209.384 97.3738C208.859 99.1259 208.409 100.901 207.881 102.824C201.305 101.871 194.997 100.957 188.504 100.018C188.274 101.773 188.06 103.419 187.831 105.167C194.258 106.158 200.407 107.104 206.762 108.083C205.912 111.673 205.119 115.023 204.304 118.46C198.071 117.587 192.16 116.763 186.21 115.929C185.958 117.853 185.768 119.307 185.543 121.019C191.519 121.934 197.28 122.814 203.081 123.701C203.081 124.356 203.152 124.737 203.069 125.083C201.218 132.981 199.497 140.914 197.421 148.752C196.429 152.489 194.834 156.097 191.731 158.723C189.177 160.885 186.371 160.523 184.45 157.841C183.582 156.633 182.858 155.198 181.712 154.351C180.876 153.731 179.013 153.358 178.399 153.855C177.489 154.593 176.829 156.226 176.907 157.426C176.973 158.489 177.994 159.732 178.932 160.457C182.091 162.893 185.809 163.247 189.577 162.505C195.886 161.26 200.336 157.318 203.095 151.743C205.262 147.361 206.885 142.681 208.419 138.023C209.808 133.805 210.751 129.439 211.928 124.99C218.125 125.89 224.199 126.772 230.399 127.672C230.911 125.9 231.373 124.297 231.871 122.571C225.384 121.616 219.194 120.703 212.952 119.784C213.702 116.115 214.369 112.848 215.096 109.289Z" fill="white"/>
<path d="M322.413 144.187V117.679H351.992V108.981H322.413V92.9106H353.815V84.1299H311.891V144.187H322.413ZM370.504 94.0704V84.1299H360.644V94.0704H370.504ZM370.504 144.187V99.6205H360.644V144.187H370.504ZM391.452 144.187V84.1299H381.592V144.187H391.452ZM422.549 145.264C433.983 145.264 440.777 137.974 442.766 130.85H433.072C431.332 135.075 427.355 137.063 422.135 137.063C416.501 137.063 410.701 133.004 410.039 124.72H443.263C444.174 109.809 435.558 98.6264 421.887 98.6264C409.293 98.6264 400.013 108.153 400.013 121.572C400.013 134.412 408.216 145.264 422.549 145.264ZM433.238 117.513H410.039C410.95 109.147 417.247 106.33 421.887 106.33C427.686 106.33 432.989 110.555 433.238 117.513ZM471.336 145.264C480.865 145.264 490.061 139.382 492.05 128.945H482.439C481.113 134.909 476.391 137.063 471.502 137.063C465.702 137.063 460.068 132.507 460.068 121.904C460.068 111.383 465.537 106.827 471.751 106.827C477.136 106.827 481.196 110.141 482.107 114.863H491.719C489.979 105.005 481.527 98.6264 471.751 98.6264C458.411 98.6264 449.877 108.733 449.877 121.987C449.877 135.241 458.411 145.264 471.336 145.264ZM519.775 145.264C530.629 145.264 541.732 138.14 541.732 121.987C541.732 105.916 530.629 98.6264 519.775 98.6264C508.921 98.6264 497.819 105.916 497.819 121.987C497.819 138.14 508.921 145.264 519.775 145.264ZM519.775 137.229C513.478 137.229 508.01 132.341 508.01 121.987C508.01 111.715 513.478 106.662 519.775 106.662C526.072 106.662 531.541 111.715 531.541 121.987C531.541 132.341 526.072 137.229 519.775 137.229ZM560.385 94.0704V84.1299H550.525V94.0704H560.385ZM560.385 144.187V99.6205H550.525V144.187H560.385ZM581.332 144.187V120.495C581.332 112.46 584.067 106.662 591.689 106.662C599.312 106.662 600.14 112.626 600.14 118.59V144.187H610V116.188C610 105.585 605.609 98.6264 594.838 98.6264C588.541 98.6264 583.901 101.194 581.332 105.833V99.6205H571.473V144.187H581.332Z" fill="black"/>
</svg>
