<svg width="748" height="230" viewBox="0 0 748 230" fill="none" xmlns="http://www.w3.org/2000/svg">
<g clip-path="url(#clip0_464_4923)">
<path d="M299.246 19H196.396C195.761 19 195.152 19.2522 194.704 19.7011C194.255 20.15 194.002 20.7588 194.002 21.3937V124.244C194.002 124.879 194.255 125.488 194.704 125.937C195.152 126.385 195.761 126.638 196.396 126.638H299.246C299.881 126.638 300.49 126.385 300.939 125.937C301.388 125.488 301.64 124.879 301.64 124.244V21.3937C301.64 20.7588 301.388 20.15 300.939 19.7011C300.49 19.2522 299.881 19 299.246 19ZM265.735 88.3628C265.735 88.9976 265.483 89.6065 265.034 90.0554C264.585 90.5043 263.976 90.7565 263.341 90.7565H232.301C231.666 90.7565 231.058 90.5043 230.609 90.0554C230.16 89.6065 229.908 88.9976 229.908 88.3628V57.2988C229.908 56.664 230.16 56.0551 230.609 55.6062C231.058 55.1573 231.666 54.9052 232.301 54.9052H263.419C264.054 54.9052 264.663 55.1573 265.112 55.6062C265.561 56.0551 265.813 56.664 265.813 57.2988L265.735 88.3628Z" fill="black"/>
<path d="M514.58 54.9043H483.463C482.828 54.9043 482.219 55.1565 481.77 55.6054C481.321 56.0543 481.069 56.6631 481.069 57.298V88.4158C481.069 89.0506 481.321 89.6595 481.77 90.1084C482.219 90.5573 482.828 90.8095 483.463 90.8095H514.58C515.215 90.8095 515.824 90.5573 516.273 90.1084C516.722 89.6595 516.974 89.0506 516.974 88.4158V57.298C516.974 56.6631 516.722 56.0543 516.273 55.6054C515.824 55.1565 515.215 54.9043 514.58 54.9043Z" fill="black"/>
<path d="M478.679 19H447.561C446.926 19 446.318 19.2522 445.869 19.7011C445.42 20.15 445.167 20.7588 445.167 21.3937V52.5115C445.167 53.1463 445.42 53.7552 445.869 54.2041C446.318 54.653 446.926 54.9052 447.561 54.9052H478.679C479.314 54.9052 479.923 54.653 480.372 54.2041C480.82 53.7552 481.073 53.1463 481.073 52.5115V21.3937C481.073 20.7588 480.82 20.15 480.372 19.7011C479.923 19.2522 479.314 19 478.679 19Z" fill="black"/>
<path d="M550.44 19H519.322C518.688 19 518.079 19.2522 517.63 19.7011C517.181 20.15 516.929 20.7588 516.929 21.3937V52.5115C516.929 53.1463 517.181 53.7552 517.63 54.2041C518.079 54.653 518.688 54.9052 519.322 54.9052H550.44C551.075 54.9052 551.684 54.653 552.133 54.2041C552.582 53.7552 552.834 53.1463 552.834 52.5115V21.3937C552.834 20.7588 552.582 20.15 552.133 19.7011C551.684 19.2522 551.075 19 550.44 19Z" fill="black"/>
<path d="M478.679 90.7539H447.561C446.926 90.7539 446.318 91.0061 445.869 91.455C445.42 91.9039 445.167 92.5127 445.167 93.1476V124.265C445.167 124.9 445.42 125.509 445.869 125.958C446.318 126.407 446.926 126.659 447.561 126.659H478.679C479.314 126.659 479.923 126.407 480.372 125.958C480.82 125.509 481.073 124.9 481.073 124.265V93.1476C481.073 92.5127 480.82 91.9039 480.372 91.455C479.923 91.0061 479.314 90.7539 478.679 90.7539Z" fill="black"/>
<path d="M550.44 90.7539H519.322C518.688 90.7539 518.079 91.0061 517.63 91.455C517.181 91.9039 516.929 92.5127 516.929 93.1476V124.265C516.929 124.9 517.181 125.509 517.63 125.958C518.079 126.407 518.688 126.659 519.322 126.659H550.44C551.075 126.659 551.684 126.407 552.133 125.958C552.582 125.509 552.834 124.9 552.834 124.265V93.1476C552.834 92.5127 552.582 91.9039 552.133 91.455C551.684 91.0061 551.075 90.7539 550.44 90.7539Z" fill="black"/>
<path d="M424.816 19H393.698C393.064 19 392.455 19.2522 392.006 19.7011C391.557 20.15 391.305 20.7588 391.305 21.3937V52.5115C391.305 53.1463 391.557 53.7552 392.006 54.2041C392.455 54.653 393.064 54.9052 393.698 54.9052H424.816C425.451 54.9052 426.06 54.653 426.509 54.2041C426.958 53.7552 427.21 53.1463 427.21 52.5115V21.3937C427.21 20.7588 426.958 20.15 426.509 19.7011C426.06 19.2522 425.451 19 424.816 19Z" fill="black"/>
<path d="M424.816 90.7539H393.698C393.064 90.7539 392.455 91.0061 392.006 91.455C391.557 91.9039 391.305 92.5127 391.305 93.1476V124.265C391.305 124.9 391.557 125.509 392.006 125.958C392.455 126.407 393.064 126.659 393.698 126.659H424.816C425.451 126.659 426.06 126.407 426.509 125.958C426.958 125.509 427.21 124.9 427.21 124.265V93.1476C427.21 92.5127 426.958 91.9039 426.509 91.455C426.06 91.0061 425.451 90.7539 424.816 90.7539Z" fill="black"/>
<path d="M391.333 57.245C391.332 56.9301 391.27 56.6185 391.148 56.3279C391.027 56.0373 390.85 55.7734 390.627 55.5514C390.179 55.1041 389.572 54.8524 388.939 54.8513H355.428V21.3937C355.428 20.7588 355.175 20.15 354.727 19.7011C354.278 19.2522 353.669 19 353.034 19H321.916C321.281 19 320.672 19.2522 320.224 19.7011C319.775 20.15 319.522 20.7588 319.522 21.3937V124.19C319.522 124.825 319.775 125.434 320.224 125.883C320.672 126.332 321.281 126.584 321.916 126.584H353.034C353.669 126.584 354.278 126.332 354.727 125.883C355.175 125.434 355.428 124.825 355.428 124.19V90.7325H388.939C389.572 90.7314 390.179 90.4797 390.627 90.0324C390.85 89.8104 391.027 89.5466 391.148 89.256C391.27 88.9653 391.332 88.6537 391.333 88.3388V57.245Z" fill="black"/>
<path d="M391.191 184.761C391.191 199.955 401.203 210.667 415.278 210.667C429.353 210.667 439.358 199.955 439.358 184.761C439.358 169.567 429.412 158.855 415.272 158.855C401.131 158.855 391.191 169.567 391.191 184.761ZM427.695 184.761C427.695 194.42 422.584 200.511 415.302 200.511C408.019 200.511 402.956 194.42 402.956 184.761C402.956 175.103 407.995 169.005 415.278 169.005C422.561 169.005 427.671 175.097 427.671 184.761H427.695ZM467.627 159.627H455.91V209.895H467.604V196.311L473.205 189.8L486.717 209.895H500.301L480.972 180.77L499.11 159.627H485.526L467.604 181.398L467.627 159.627ZM520.474 184.761C520.474 175.186 525.447 169.005 532.442 169.005C537.619 169.005 541.335 172.296 542.52 177.616L553.513 173.978C550.437 164.804 543.292 158.855 532.508 158.855C518.715 158.855 508.775 169.567 508.775 184.761C508.775 199.955 518.715 210.667 532.508 210.667C543.28 210.667 550.461 204.682 553.513 195.545L542.52 191.9C541.323 197.22 537.619 200.511 532.442 200.511C525.423 200.511 520.45 194.336 520.45 184.761H520.474Z" fill="black"/>
<path d="M194.002 186.555H373.528" stroke="black" stroke-width="5.98419"/>
</g>
<defs>
<clipPath id="clip0_464_4923">
<rect width="359.488" height="191.668" fill="white" transform="translate(194 19)"/>
</clipPath>
</defs>
</svg>
