<svg width="748" height="230" viewBox="0 0 748 230" fill="none" xmlns="http://www.w3.org/2000/svg">
<g clip-path="url(#clip0_479_49)">
<path d="M278.132 112.709V92.3803H289.047C295.957 92.3803 300.163 96.2859 300.163 102.595C300.163 108.703 295.957 112.709 289.047 112.709H278.132ZM290.749 124.626C304.769 124.626 314.082 115.413 314.082 102.494C314.082 89.6763 304.769 80.3633 290.749 80.3633H264.212V151.363H278.031V124.626H290.749Z" fill="black"/>
<path d="M336.576 122.426C336.876 117.019 340.181 112.813 345.788 112.813C352.197 112.813 354.901 117.119 354.901 122.627V151.367H368.22V120.324C368.22 109.508 362.412 100.796 349.894 100.796C345.187 100.796 339.78 102.399 336.576 106.204V78.8652H323.257V151.367H336.576V122.426Z" fill="black"/>
<path d="M378.733 137.943C378.733 145.653 385.143 152.763 395.658 152.763C402.968 152.763 407.674 149.359 410.178 145.453C410.178 147.356 410.378 150.06 410.679 151.361H422.896C422.595 149.659 422.295 146.154 422.295 143.55V119.316C422.295 109.402 416.487 100.59 400.865 100.59C387.646 100.59 380.536 109.102 379.735 116.813L391.552 119.316C391.952 115.01 395.156 111.305 400.965 111.305C406.573 111.305 409.277 114.209 409.277 117.714C409.277 119.417 408.375 120.819 405.571 121.219L393.454 123.021C385.243 124.223 378.733 129.13 378.733 137.943ZM398.461 142.849C394.155 142.849 392.052 140.046 392.052 137.141C392.052 133.336 394.756 131.433 398.161 130.933L409.277 129.23V131.433C409.277 140.145 404.069 142.849 398.461 142.849Z" fill="black"/>
<path d="M449.039 123.024C449.039 117.316 452.443 112.81 458.251 112.81C464.661 112.81 467.364 117.116 467.364 122.624V151.364H480.682V120.32C480.682 109.505 475.075 100.793 462.858 100.793C457.55 100.793 451.642 103.096 448.638 108.204V102.095H435.72V151.364H449.039V123.024Z" fill="black"/>
<path d="M510.625 87.375H498.605V94.2849C498.605 98.6912 496.203 102.096 490.997 102.096H488.492V113.913H497.406V136.845C497.406 146.358 503.412 152.066 513.027 152.066C516.934 152.066 519.336 151.365 520.539 150.865V139.849C519.838 140.049 518.033 140.25 516.432 140.25C512.624 140.25 510.625 138.848 510.625 134.542V113.913H520.539V102.096H510.625V87.375Z" fill="black"/>
<path d="M553.493 140.747C546.985 140.747 540.975 135.94 540.975 126.727C540.975 117.414 546.985 112.707 553.493 112.707C560.001 112.707 566.011 117.414 566.011 126.727C566.011 136.04 560.001 140.747 553.493 140.747ZM553.493 100.59C538.772 100.59 527.656 111.505 527.656 126.727C527.656 141.848 538.772 152.864 553.493 152.864C568.214 152.864 579.33 141.848 579.33 126.727C579.33 111.505 568.214 100.59 553.493 100.59Z" fill="black"/>
<path d="M603.161 151.367V122.526C603.161 117.119 606.566 112.812 612.377 112.812C618.383 112.812 621.088 116.818 621.088 122.126V151.367H634.307V122.526C634.307 117.219 637.712 112.812 643.42 112.812C649.529 112.812 652.13 116.818 652.13 122.126V151.367H665.051V119.422C665.051 106.203 656.336 100.695 647.223 100.695C640.715 100.695 635.51 102.899 631.602 108.907C629.097 103.6 623.692 100.695 616.981 100.695C611.576 100.695 605.268 103.299 602.563 108.106V102.097H589.842V151.367H603.161Z" fill="black"/>
<path d="M148.709 182.418C186.104 182.418 216.418 152.104 216.418 114.709C216.418 77.3144 186.104 47 148.709 47C111.314 47 81 77.3144 81 114.709C81 152.104 111.314 182.418 148.709 182.418Z" fill="url(#paint0_linear_479_49)"/>
<path d="M197.182 115.532H185.246C185.246 91.2066 165.458 71.4883 141.046 71.4883C116.936 71.4883 97.3352 90.7239 96.8555 114.632C96.3591 139.346 119.628 160.807 144.433 160.807H147.553C169.421 160.807 198.732 143.748 203.311 122.964C204.157 119.133 201.12 115.532 197.182 115.532ZM123.308 116.615C123.308 119.868 120.638 122.529 117.374 122.529C114.109 122.529 111.439 119.867 111.439 116.615V107.049C111.439 103.796 114.109 101.136 117.374 101.136C120.638 101.136 123.308 103.796 123.308 107.049V116.615ZM143.915 116.615C143.915 119.868 141.245 122.529 137.981 122.529C134.716 122.529 132.046 119.867 132.046 116.615V107.049C132.046 103.796 134.717 101.136 137.981 101.136C141.245 101.136 143.915 103.796 143.915 107.049V116.615Z" fill="url(#paint1_linear_479_49)"/>
</g>
<defs>
<linearGradient id="paint0_linear_479_49" x1="148.709" y1="47" x2="148.709" y2="182.418" gradientUnits="userSpaceOnUse">
<stop stop-color="#534BB1"/>
<stop offset="1" stop-color="#551BF9"/>
</linearGradient>
<linearGradient id="paint1_linear_479_49" x1="150.15" y1="71.4883" x2="150.15" y2="160.807" gradientUnits="userSpaceOnUse">
<stop stop-color="white"/>
<stop offset="1" stop-color="white" stop-opacity="0.82"/>
</linearGradient>
<clipPath id="clip0_479_49">
<rect width="585.484" height="135.418" fill="white" transform="translate(81 47)"/>
</clipPath>
</defs>
</svg>
