<svg width="748" height="230" viewBox="0 0 748 230" fill="none" xmlns="http://www.w3.org/2000/svg">
<g clip-path="url(#clip0_463_4864)">
<path d="M315.091 71.4149C315.091 71.2878 315.091 71.2878 315.091 71.1608V71.0337C315.091 70.9067 315.091 70.7795 315.091 70.7795C315.091 70.6525 314.964 70.5254 314.964 70.5254C314.838 70.3984 314.838 70.3984 314.711 70.2713C311.039 67.8569 287.999 72.3044 254.705 81.4535C248.755 82.9784 242.424 80.6911 239.007 75.7354C222.043 51.0834 190.521 39.647 160.898 49.5586C131.274 59.4701 112.918 87.5531 113.931 117.288C114.184 123.387 110.386 128.978 104.816 131.393C72.7871 144.1 51.6457 154.266 50.1266 158.459C50 158.586 50 158.713 50 158.84C50 158.967 50 159.094 50 159.221C50 159.348 50.1266 159.348 50.1266 159.476L50.2532 159.603L50.3798 159.73C50.5064 159.73 50.5064 159.857 50.633 159.857C50.8862 159.984 51.1394 160.111 51.3925 160.111C57.8489 161.636 84.4339 156.044 120.893 145.625L121.147 145.498C140.516 140.034 162.544 133.172 185.837 125.42C209.131 117.669 230.904 109.791 249.641 102.675L249.894 102.547C285.341 88.9508 310.027 77.5144 314.205 72.4315C314.458 72.1774 314.584 71.9232 314.711 71.6691C315.091 71.6691 315.091 71.542 315.091 71.4149ZM168.493 72.4315C188.369 65.8238 209.764 74.0834 220.397 91.2381C207.358 95.1774 193.433 99.6248 179.001 104.454C164.569 109.282 150.896 113.984 137.984 118.686C136.465 98.6083 148.618 79.0392 168.493 72.4315Z" fill="url(#paint0_linear_463_4864)"/>
<path d="M196.721 157.442C178.364 163.541 158.741 156.933 147.475 142.447C139.119 144.989 131.017 147.403 123.295 149.563C139.246 177.137 172.92 190.734 204.316 180.314C235.711 169.894 254.574 138.762 250.903 106.994C243.308 109.917 235.458 112.839 227.23 115.762C226.85 134.315 215.076 151.342 196.721 157.442Z" fill="url(#paint1_linear_463_4864)"/>
<path d="M389.669 87.7832C392.449 87.7832 395.103 88.4174 397.883 89.5589C400.538 90.7004 403.066 92.4762 405.214 94.5056C407.362 96.6618 409.131 99.0718 410.395 101.989C411.66 104.906 412.418 107.95 412.418 111.121C412.418 114.419 411.786 117.463 410.648 120.381C409.51 123.298 407.868 125.835 405.846 127.864C403.824 130.02 401.423 131.669 398.642 132.938C395.861 134.206 392.955 134.84 389.796 134.84C388.911 134.84 387.521 134.84 385.624 134.84C383.729 134.84 381.707 134.84 379.811 134.84C377.537 134.84 375.009 134.967 372.354 134.967V155.388H358.2V87.7832H383.476H389.669ZM389.543 122.283C392.197 121.776 394.471 120.507 396.114 118.605C397.757 116.702 398.642 114.292 398.642 111.121C398.642 108.077 397.757 105.667 396.114 103.892C394.471 102.116 392.323 100.974 389.543 100.467C389.417 100.467 388.911 100.467 388.406 100.467C387.774 100.467 387.015 100.467 386.257 100.34C385.372 100.34 384.487 100.34 383.476 100.34C382.465 100.34 381.454 100.34 380.443 100.34C378.042 100.34 375.388 100.34 372.354 100.467V101.355V122.41C375.136 122.41 377.789 122.537 380.19 122.537C382.212 122.537 384.234 122.537 386.13 122.537C387.774 122.41 388.911 122.41 389.543 122.283Z" fill="url(#paint2_linear_463_4864)"/>
<path d="M456.779 156.4C452.103 156.4 447.679 155.513 443.636 153.737C439.592 151.961 435.926 149.424 432.893 146.38C429.86 143.209 427.333 139.531 425.563 135.345C423.793 131.16 422.909 126.593 422.909 121.9C422.909 117.207 423.793 112.641 425.563 108.456C427.333 104.27 429.734 100.592 432.893 97.4206C435.926 94.2497 439.592 91.8398 443.636 90.064C447.679 88.2883 452.103 87.4004 456.779 87.4004C461.455 87.4004 465.879 88.2883 469.923 90.064C473.966 91.8398 477.632 94.3765 480.665 97.4206C483.698 100.592 486.225 104.27 487.995 108.456C489.765 112.641 490.649 117.207 490.649 121.9C490.649 126.593 489.765 131.16 487.995 135.345C486.225 139.531 483.824 143.209 480.665 146.38C477.632 149.551 473.966 151.961 469.923 153.737C465.752 155.513 461.455 156.4 456.779 156.4ZM456.779 101.479C454.125 101.479 451.598 101.987 449.196 103.001C446.921 104.016 444.773 105.538 443.004 107.314C441.234 109.217 439.844 111.373 438.833 113.783C437.821 116.193 437.316 118.856 437.316 121.647C437.316 124.437 437.821 127.101 438.833 129.511C439.844 131.921 441.234 134.077 443.004 135.979C444.773 137.882 446.795 139.277 449.196 140.292C451.471 141.307 453.999 141.814 456.779 141.814C459.433 141.814 461.96 141.307 464.362 140.292C466.637 139.277 468.785 137.755 470.554 135.979C472.324 134.077 473.714 131.921 474.725 129.511C475.736 127.101 476.242 124.437 476.242 121.647C476.242 118.856 475.736 116.319 474.725 113.783C473.714 111.373 472.324 109.09 470.554 107.314C468.785 105.411 466.763 104.016 464.362 103.001C461.96 101.987 459.433 101.479 456.779 101.479Z" fill="url(#paint3_linear_463_4864)"/>
<path d="M545.746 155.515L532.602 134.84C531.212 134.84 529.696 134.967 528.053 134.967C526.41 134.967 524.767 134.967 523.377 134.967H518.195V155.515H504.041V87.7832H535.889C539.048 87.7832 542.081 88.4174 544.735 89.5589C547.516 90.7004 549.917 92.4762 551.939 94.5056C553.961 96.6618 555.477 99.0718 556.741 101.989C557.879 104.906 558.511 107.95 558.511 111.121C558.511 115.561 557.499 119.366 555.477 122.41C553.456 125.454 550.675 128.245 547.263 130.528L563.693 155.388H545.746V155.515ZM518.195 122.283C520.723 122.283 523.251 122.41 525.652 122.41C527.548 122.41 529.569 122.41 531.465 122.41C533.361 122.41 534.878 122.41 535.889 122.283C538.416 122.03 540.438 120.761 542.081 118.732C543.724 116.702 544.482 114.166 544.482 111.121C544.482 108.077 543.724 105.667 542.081 103.892C540.438 102.116 538.416 101.101 535.889 100.721C534.878 100.594 533.361 100.467 531.465 100.467C529.569 100.467 527.548 100.467 525.652 100.467C523.377 100.467 520.975 100.467 518.321 100.594V122.283H518.195Z" fill="url(#paint4_linear_463_4864)"/>
<path d="M611.972 100.213H597.438V155.388H583.284V100.213H568.498V87.7832H583.158H597.312H611.846V100.213H611.972Z" fill="url(#paint5_linear_463_4864)"/>
<path d="M478.862 105.262L429.646 125.217L434.759 137.919L483.974 117.963L478.862 105.262Z" fill="url(#paint6_linear_463_4864)"/>
<path d="M659.109 114.29C664.039 115.558 668.082 117.968 671.242 121.266C674.401 124.564 675.918 128.496 675.918 133.189C675.918 140.038 673.39 145.365 668.335 149.171C663.28 152.976 657.087 154.879 649.757 154.879C644.07 154.879 638.889 153.737 634.465 151.327C629.916 148.917 626.756 145.492 624.733 140.926L637.119 134.457C638.889 139.531 643.185 142.068 649.883 142.068C653.549 142.068 656.455 141.307 658.477 139.657C660.499 138.009 661.51 135.853 661.51 133.062C661.51 130.399 660.499 128.242 658.477 126.593C656.455 124.944 653.549 124.183 649.883 124.183H646.724L641.164 116.573L655.571 99.5769H626.883V87.4004H672.885V98.1816L659.109 114.29Z" fill="url(#paint7_linear_463_4864)"/>
</g>
<defs>
<linearGradient id="paint0_linear_463_4864" x1="-4.54947" y1="197.157" x2="340.162" y2="164.041" gradientUnits="userSpaceOnUse">
<stop stop-color="#3008C4"/>
<stop offset="1" stop-color="#7754F8"/>
</linearGradient>
<linearGradient id="paint1_linear_463_4864" x1="96.9427" y1="208.533" x2="264.207" y2="196.977" gradientUnits="userSpaceOnUse">
<stop stop-color="#3008C4"/>
<stop offset="1" stop-color="#7754F8"/>
</linearGradient>
<linearGradient id="paint2_linear_463_4864" x1="347.043" y1="177.14" x2="418.117" y2="174.779" gradientUnits="userSpaceOnUse">
<stop stop-color="#3008C4"/>
<stop offset="1" stop-color="#7754F8"/>
</linearGradient>
<linearGradient id="paint3_linear_463_4864" x1="408.97" y1="178.602" x2="497.721" y2="174.991" gradientUnits="userSpaceOnUse">
<stop stop-color="#3008C4"/>
<stop offset="1" stop-color="#7754F8"/>
</linearGradient>
<linearGradient id="paint4_linear_463_4864" x1="491.766" y1="177.309" x2="569.946" y2="174.455" gradientUnits="userSpaceOnUse">
<stop stop-color="#3008C4"/>
<stop offset="1" stop-color="#7754F8"/>
</linearGradient>
<linearGradient id="paint5_linear_463_4864" x1="559.551" y1="177.14" x2="616.565" y2="175.621" gradientUnits="userSpaceOnUse">
<stop stop-color="#3008C4"/>
<stop offset="1" stop-color="#7754F8"/>
</linearGradient>
<linearGradient id="paint6_linear_463_4864" x1="418.466" y1="148.427" x2="489.427" y2="143.534" gradientUnits="userSpaceOnUse">
<stop stop-color="#3008C4"/>
<stop offset="1" stop-color="#7754F8"/>
</linearGradient>
<linearGradient id="paint7_linear_463_4864" x1="614.201" y1="176.591" x2="681.306" y2="174.481" gradientUnits="userSpaceOnUse">
<stop stop-color="#3008C4"/>
<stop offset="1" stop-color="#7754F8"/>
</linearGradient>
<clipPath id="clip0_463_4864">
<rect width="648.6" height="138" fill="white" transform="translate(50 46)"/>
</clipPath>
</defs>
</svg>
