<svg width="748" height="230" viewBox="0 0 748 230" fill="none" xmlns="http://www.w3.org/2000/svg">
<g clip-path="url(#clip0_3309_11012)">
<path d="M322.508 138.83C335.42 138.83 344.517 131.886 344.517 120.52C344.517 108.111 334.294 104.899 324.689 101.881C315.504 99.1054 313.16 97.1226 313.16 93.3791C313.16 89.9092 316.111 87.3033 321.135 87.3033C327.29 87.3033 330.581 90.5159 332.747 95.116L342.8 89.2985C338.727 80.776 331.085 75.6562 321.12 75.6562C310.721 75.6562 301.188 82.2512 301.188 93.7042C301.188 105.248 310.202 109.171 319.474 111.843C328.488 114.445 332.56 116.182 332.56 120.695C332.56 124.077 330.046 127.115 322.853 127.115C315.318 127.115 311.066 123.47 308.901 117.827L298.674 123.815C301.965 132.842 310.115 138.83 322.508 138.83Z" fill="black"/>
<path d="M372.665 93.0154C366.32 93.0154 361.748 95.359 358.627 99.3608V94.2328H347.432V154.975H358.611V132.502C361.732 136.492 366.324 138.847 372.649 138.847C384.261 138.847 393.794 128.865 393.794 115.937C393.794 103.009 384.277 93.0154 372.665 93.0154ZM370.587 128.163C363.739 128.163 358.627 123.214 358.627 115.926C358.627 108.636 363.739 103.691 370.587 103.691C377.52 103.691 382.631 108.636 382.631 115.926C382.631 123.214 377.52 128.163 370.587 128.163Z" fill="black"/>
<path d="M421.48 93.0083C415.675 93.0083 411.17 95.1775 408.568 99.0836V76.8757H397.389V137.614H408.568V114.185C408.568 106.65 412.641 103.422 418.086 103.422C423.11 103.422 426.663 106.46 426.663 112.361V137.614H437.874V110.973C437.874 99.4485 430.664 93.0083 421.48 93.0083Z" fill="black"/>
<path d="M452.498 120.526H485.167C485.45 119.008 485.596 117.469 485.603 115.926C485.603 103.172 476.502 93.0154 463.677 93.0154C450.07 93.0154 440.799 102.997 440.799 115.926C440.799 128.853 449.983 138.835 464.541 138.835C472.87 138.835 479.361 135.453 483.434 129.551L474.424 124.345C472.517 126.859 469.05 128.683 464.716 128.683C458.823 128.683 454.056 126.252 452.498 120.526ZM452.323 111.848C453.624 106.297 457.697 103.085 463.677 103.085C468.356 103.085 473.036 105.599 474.424 111.848H452.323Z" fill="black"/>
<path d="M500.271 101.696V94.2325H489.092V137.621H500.271V116.88C500.271 107.759 507.639 105.166 513.445 105.86V93.364C507.984 93.364 502.512 95.7949 500.271 101.696Z" fill="black"/>
<path d="M537.066 138.835C549.803 138.835 560.031 128.853 560.031 115.926C560.031 102.997 549.803 93.0154 537.066 93.0154C524.328 93.0154 514.188 102.997 514.188 115.926C514.188 128.853 524.324 138.835 537.066 138.835ZM537.066 127.902C530.479 127.902 525.367 122.957 525.367 115.926C525.367 108.894 530.479 103.949 537.066 103.949C543.736 103.949 548.852 108.898 548.852 115.926C548.852 122.953 543.756 127.902 537.066 127.902Z" fill="black"/>
<path d="M587.621 93.0154C581.815 93.0154 577.31 95.1846 574.705 99.0912V94.2328H563.525V137.622H574.705V114.192C574.705 106.658 578.781 103.43 584.222 103.43C589.251 103.43 592.804 106.467 592.804 112.368V137.622H603.999V110.98C603.999 99.456 596.806 93.0154 587.621 93.0154Z" fill="black"/>
<path d="M245.268 38.2884V68.8242C245.267 69.6162 245.063 70.3945 244.673 71.0843C244.284 71.774 243.724 72.3519 243.047 72.7622L242.857 72.8733L235.719 76.9857L194.166 100.883L189.122 103.782C189.036 103.819 188.955 103.866 188.88 103.92C188.566 104.131 188.308 104.416 188.13 104.75C187.952 105.083 187.859 105.456 187.859 105.834C187.859 106.212 187.952 106.585 188.13 106.918C188.308 107.252 188.566 107.537 188.88 107.748L189.07 107.859L194.761 111.158L214.193 122.341L214.538 122.543C214.842 122.754 215.091 123.035 215.263 123.363C215.434 123.691 215.524 124.055 215.524 124.425C215.524 124.795 215.434 125.16 215.263 125.487C215.091 125.815 214.842 126.096 214.538 126.307L214.201 126.498L178.696 146.953L178.498 147.068C177.826 147.436 177.071 147.628 176.304 147.627C175.618 147.624 174.941 147.47 174.322 147.175L174.123 147.072L173.822 146.893L153.232 135.055L146.415 131.133C146.352 131.102 146.288 131.062 146.221 131.022C145.562 130.62 145.017 130.058 144.635 129.388C144.22 128.694 144 127.901 144 127.092V95.2278C143.999 94.4471 144.198 93.6788 144.577 92.9967C144.957 92.3141 145.505 91.7401 146.169 91.3297C146.184 91.3153 146.202 91.3029 146.221 91.294C146.296 91.2464 146.374 91.2038 146.455 91.1671L146.486 91.1433L153.228 87.2649L175.979 74.1779L203.398 58.4064L241.675 36.3968C241.735 36.3546 241.799 36.3174 241.865 36.2858C242.201 36.0984 242.579 36.0001 242.964 36.0002C243.266 35.9997 243.566 36.0588 243.846 36.1741C244.126 36.2894 244.38 36.4587 244.594 36.6723C244.808 36.8859 244.979 37.1396 245.095 37.4189C245.211 37.6983 245.271 37.9978 245.272 38.3003L245.268 38.2884Z" fill="#01ABFF"/>
<path d="M277.254 103.534V135.398C277.253 136.189 277.049 136.966 276.659 137.655C276.27 138.343 275.71 138.92 275.034 139.328L274.839 139.439L268.022 143.365L259.409 148.323L245.283 156.448L217.856 172.22L179.587 194.23C179.526 194.27 179.462 194.307 179.397 194.341C179.059 194.527 178.68 194.624 178.294 194.622C177.992 194.623 177.692 194.564 177.412 194.448C177.133 194.333 176.878 194.164 176.664 193.95C176.45 193.736 176.28 193.483 176.163 193.203C176.047 192.924 175.987 192.624 175.986 192.322V161.786C175.986 160.995 176.19 160.217 176.579 159.529C176.968 158.84 177.529 158.264 178.207 157.856C178.298 157.797 178.397 157.745 178.489 157.698L185.548 153.633L227.088 129.736L232.065 126.872L232.387 126.69L232.418 126.67C232.723 126.459 232.972 126.176 233.144 125.847C233.316 125.519 233.405 125.153 233.406 124.782C233.402 124.405 233.308 124.035 233.131 123.701C232.953 123.369 232.698 123.084 232.387 122.871C232.313 122.822 232.236 122.778 232.157 122.74L226.493 119.464L207.061 108.277L206.689 108.059C206.392 107.848 206.149 107.568 205.982 107.245C205.815 106.921 205.728 106.562 205.728 106.197C205.728 105.833 205.815 105.474 205.982 105.149C206.149 104.826 206.392 104.546 206.689 104.335L207.085 104.113C207.104 104.1 207.124 104.09 207.145 104.081L242.566 83.6978L242.844 83.5392C243.504 83.1941 244.238 83.0139 244.983 83.0139C245.728 83.0139 246.462 83.1941 247.123 83.5392L247.424 83.7136L268.069 95.5869L274.887 99.5129C274.953 99.5456 275.016 99.5827 275.077 99.6239C275.736 100.023 276.282 100.585 276.663 101.254C277.075 101.95 277.29 102.745 277.286 103.554L277.254 103.534Z" fill="#0057FF"/>
</g>
<defs>
<clipPath id="clip0_3309_11012">
<rect width="461" height="158.624" fill="white" transform="translate(144 36)"/>
</clipPath>
</defs>
</svg>
