<svg width="748" height="230" viewBox="0 0 748 230" fill="none" xmlns="http://www.w3.org/2000/svg">
<path fill-rule="evenodd" clip-rule="evenodd" d="M102.512 98.3096L72.5704 68.3673H63.2968V134.216L95.9548 166.874L89.3812 173.448L54 138.067V59.0703H76.421L102.512 85.1626L128.603 59.0703H151.024V138.067L115.643 173.448L109.07 166.874L141.728 134.216V68.3673H132.454L102.512 98.3096Z" fill="black"/>
<path fill-rule="evenodd" clip-rule="evenodd" d="M303.64 84.9901V76.3079H342.439L345.926 84.9901H329.093V156.212H320.474V84.9901H303.64H303.64ZM641.588 156.212V76.2402H673.512L677 84.9231H650.207V111.886H675.256V120.568H650.207V147.53H675.256V156.212H641.588V156.212ZM608.782 120.568H583.73V76.2402H615.654L619.142 84.9231H592.348V111.886H617.398V156.212H583.73V147.53H608.782V120.568ZM461.46 156.212V76.2402H493.383L496.871 84.9231H470.078V111.886H495.127V120.568H470.078V147.53H495.127V156.212H461.46V156.212ZM527.936 156.212H519.318V76.2402H552.381L559.539 94.0625V102.744L552.381 120.566L543.611 120.568L557.927 156.212H548.64L534.324 120.568H527.936V156.212H527.936ZM546.58 111.885L550.921 101.077V95.7292L546.581 84.9229H527.936V111.885H546.58ZM272.951 76.3079L276.438 84.9901H272.951V147.664H296.284V156.212H264.332V76.3081H272.951V76.3079ZM243.629 84.9901H240.142V141.869L234.381 156.212H209.816L204.055 141.869V76.3079H212.673V140.202L215.67 147.664H228.527L231.524 140.202V76.3079H240.142L243.63 84.9901H243.629ZM440.756 84.9901H437.269L437.27 122.015L423.534 156.212C420.661 156.212 417.788 156.212 414.916 156.212L401.181 122.016L401.181 76.2404H409.8V120.352L419.225 143.818L428.651 120.35V76.2404H437.242L440.756 84.9903L440.756 84.9901ZM376.991 76.3079L380.479 84.9901H376.991V156.212H368.373V76.3079H376.991Z" fill="black"/>
<path fill-rule="evenodd" clip-rule="evenodd" d="M102.512 160.317L132.454 130.375C132.454 115.627 132.454 96.2307 132.454 81.4824L123.157 90.7792V126.525L102.512 147.17L81.8671 126.525V90.7792L72.5703 81.4831C72.5703 96.2307 72.5703 115.628 72.5703 130.376L102.512 160.317Z" fill="black"/>
</svg>
