<svg width="120" height="120" viewBox="0 0 120 120" fill="none" xmlns="http://www.w3.org/2000/svg">
<g opacity="0.9">
<path d="M81.6602 29.6913L75.6523 26.2227L36.1383 94.663L42.1462 98.1316L81.6602 29.6913Z" fill="white"/>
<path opacity="0.0336538" d="M78.695 28.0644L75.7148 26.3438L36.2783 94.6499L39.2585 96.3705L78.695 28.0644Z" fill="url(#paint0_linear_582_12910)"/>
<path opacity="0.0336538" d="M78.663 28.0311L81.5996 29.7266L42.176 98.0103L39.2394 96.3149L78.663 28.0311Z" fill="url(#paint1_linear_582_12910)"/>
<path d="M64.8613 44.9961L70.8624 48.4608" stroke="black" stroke-width="0.14865"/>
<path d="M82.123 28.9531L44.5132 94.0953" stroke="black" stroke-width="0.14865"/>
<path d="M36.1855 94.668L42.1866 98.1327" stroke="black" stroke-width="0.14865"/>
<path d="M76.1191 25.4961L38.5093 90.6383" stroke="black" stroke-width="0.14865"/>
<path d="M70.7598 34.7773L76.7608 38.2421" stroke="black" stroke-width="0.14865"/>
<path d="M41.3452 97.6507L41.2924 97.7421C40.6835 98.0993 40.138 98.5552 39.6784 99.0911L41.2587 100.003C41.4929 99.3374 41.615 98.6372 41.6199 97.9312L41.6727 97.8398L41.3452 97.6507Z" fill="#333333" stroke="black" stroke-width="0.14865"/>
<path d="M39.0209 96.3109L38.9682 96.4023C38.3592 96.7595 37.8138 97.2153 37.3542 97.7512L38.9345 98.6636C39.1687 97.9976 39.2908 97.2973 39.2957 96.5913L39.3485 96.5L39.0209 96.3109Z" fill="#333333" stroke="black" stroke-width="0.14865"/>
<path d="M36.6948 94.9632L36.642 95.0546C36.0331 95.4118 35.4876 95.8677 35.028 96.4036L36.6083 97.316C36.8426 96.6499 36.9646 95.9497 36.9695 95.2437L37.0223 95.1523L36.6948 94.9632Z" fill="#333333" stroke="black" stroke-width="0.14865"/>
<path d="M38.3887 93.6836L41.9367 95.7321" stroke="black" stroke-width="0.14865"/>
<path d="M43.9779 95.8442L44.0263 95.7368L44.0748 95.6268L44.1228 95.5145L44.17 95.4003L44.216 95.2845L44.2602 95.1676L44.3024 95.0497L44.342 94.9315L44.3786 94.8132L44.4118 94.6951L44.4411 94.5778L44.4661 94.4614L44.4864 94.3465L44.5015 94.2333L44.5114 94.1223L44.5164 94.0138L44.5168 93.9082L44.5131 93.8059L44.5056 93.7072L44.4946 93.6126L44.4806 93.5224L44.4638 93.4369L44.4446 93.3566L44.4234 93.2819L44.4006 93.2131L44.3765 93.1505L44.3514 93.0949L44.3069 93.0974L44.2566 93.1115L44.2038 93.1282L44.1485 93.1479L44.0909 93.1706L44.0312 93.1967L43.9695 93.2261L43.906 93.259L43.8409 93.2957L43.7743 93.3363L43.7065 93.3809L43.6374 93.4297L43.5674 93.4828L43.4966 93.5404L43.4249 93.6029L43.3522 93.6707L43.278 93.7446L43.202 93.8251L43.124 93.9129L43.0436 94.0085L42.9605 94.1126L42.8743 94.2258L42.7848 94.3487L42.6917 94.4819L42.5946 94.626L42.4932 94.7817L42.3871 94.9496L42.2823 95.1273L42.1794 95.3057L42.0764 95.4841L41.9734 95.6625L41.8704 95.8409L41.7674 96.0192L41.6644 96.1976L41.5614 96.376L41.4584 96.5544L41.3554 96.7328L41.2524 96.9111L41.1494 97.0895L41.0464 97.268L40.9748 97.4305L41.0914 97.4978L41.208 97.5651L41.3245 97.6324L41.4411 97.6997L41.5577 97.767L41.6743 97.8343L41.7909 97.9016L41.9075 97.9689L42.024 98.0362L42.1406 98.1035L42.2572 98.1709L42.3738 98.2382L42.4904 98.3055L42.6009 98.2295L42.7068 98.046L42.8127 97.8625L42.9186 97.6791L43.0245 97.4956L43.1305 97.3122L43.2364 97.1287L43.3423 96.9452L43.4482 96.7618L43.5542 96.5783L43.6601 96.3949L43.766 96.2114L43.8719 96.0279L43.9778 95.8445L43.9779 95.8442Z" fill="#F2F2F2" stroke="black" stroke-width="0.14865"/>
<path d="M37.2651 91.9738L37.3338 91.8782L37.4049 91.7812L37.4781 91.6835L37.5534 91.5854L37.6307 91.4878L37.7098 91.3909L37.7908 91.2955L37.8734 91.2021L37.9576 91.1113L38.0432 91.0235L38.1302 90.9394L38.2184 90.8596L38.3078 90.7846L38.3983 90.7149L38.4895 90.6508L38.5809 90.5923L38.6721 90.5391L38.7626 90.4911L38.8518 90.4483L38.9393 90.4105L39.0244 90.3775L39.1068 90.3494L39.1859 90.3258L39.2612 90.3068L39.3322 90.2921L39.3984 90.2817L39.4592 90.2756L39.4793 90.3155L39.4922 90.366L39.5042 90.4201L39.5148 90.4779L39.5239 90.5391L39.5312 90.6038L39.5365 90.672L39.5397 90.7434L39.5405 90.8182L39.5387 90.8961L39.534 90.9772L39.5263 91.0614L39.5153 91.1486L39.5008 91.2387L39.4826 91.332L39.4602 91.429L39.4333 91.5301L39.4016 91.6362L39.3646 91.7476L39.3219 91.8651L39.2733 91.9891L39.2184 92.1203L39.1567 92.2592L39.0879 92.4065L39.0117 92.5627L38.9275 92.7284L38.8352 92.9042L38.7336 93.0837L38.6307 93.2621L38.5277 93.4405L38.4247 93.6189L38.3217 93.7973L38.2187 93.9757L38.1157 94.1541L38.0127 94.3324L37.9097 94.5108L37.8067 94.6892L37.7037 94.8676L37.6007 95.046L37.4977 95.2244L37.3928 95.3677L37.2762 95.3004L37.1597 95.2331L37.0431 95.1658L36.9265 95.0984L36.8099 95.0311L36.6933 94.9638L36.5768 94.8965L36.4602 94.8292L36.3436 94.7619L36.227 94.6946L36.1104 94.6273L35.9938 94.56L35.8773 94.4927L35.8878 94.359L35.9938 94.1755L36.0997 93.992L36.2056 93.8086L36.3115 93.6251L36.4174 93.4417L36.5234 93.2582L36.6293 93.0747L36.7352 92.8913L36.8411 92.7078L36.947 92.5244L37.053 92.3409L37.1589 92.1574L37.2648 91.974L37.2651 91.9738Z" fill="#F2F2F2" stroke="black" stroke-width="0.14865"/>
<path d="M84.5977 24.6015L78.5898 21.1328L75.6572 26.2122L81.6651 29.6809L84.5977 24.6015Z" fill="white"/>
<path opacity="0.0336538" d="M81.6638 22.9274L78.6367 21.1797L75.7149 26.2403L78.742 27.988L81.6638 22.9274Z" fill="url(#paint2_linear_582_12910)"/>
<path opacity="0.0336538" d="M81.6188 22.9029L84.6016 24.625L81.6807 29.684L78.698 27.9619L81.6188 22.9029Z" fill="url(#paint3_linear_582_12910)"/>
<path d="M84.8908 24.7162L84.9205 24.6738L84.9474 24.6295L84.971 24.5833L84.9914 24.5357L85.0378 24.3697L85.1319 24.0088L85.226 23.6479L85.32 23.2869L85.4141 22.926L85.5082 22.5651L85.6023 22.2042L85.6964 21.8432L85.7905 21.4823L85.8846 21.1214L85.9787 20.7604L86.0728 20.3995L86.1669 20.0386L86.261 19.6776L86.3551 19.3167L86.3752 19.2242L86.3876 19.1545L86.3995 19.0803L86.4107 19.0021L86.4212 18.9205L86.4306 18.8359L86.4388 18.7487L86.4457 18.6594L86.451 18.5686L86.4545 18.4767L86.456 18.3843L86.4554 18.2916L86.4525 18.1994L86.447 18.1079L86.4389 18.0178L86.4279 17.9293L86.4143 17.8424L86.3982 17.7572L86.3796 17.6738L86.3586 17.5921L86.3355 17.5122L86.3102 17.4342L86.283 17.3581L86.2538 17.2839L86.2229 17.2117L86.1904 17.1415L86.1562 17.0734L86.1207 17.0073L86.0838 16.9434L86.0457 16.8817L86.0063 16.8222L85.9659 16.7648L85.9244 16.7095L85.8818 16.6563L85.8382 16.6053L85.7936 16.5563L85.7481 16.5094L85.7017 16.4645L85.6544 16.4217L85.6063 16.3809L85.5575 16.342L85.5079 16.3052L85.4575 16.2703L85.405 16.24L85.3496 16.2139L85.2929 16.1893L85.2349 16.1664L85.1755 16.1451L85.1147 16.1256L85.0527 16.1078L84.9893 16.0919L84.9246 16.0778L84.8586 16.0655L84.7912 16.0552L84.7226 16.0469L84.6527 16.0406L84.5815 16.0364L84.5089 16.0342L84.4352 16.0342L84.3602 16.0364L84.2841 16.0409L84.207 16.0478L84.129 16.0572L84.0502 16.069L83.9707 16.0835L83.8905 16.1006L83.8097 16.1205L83.7285 16.1432L83.647 16.1688L83.5651 16.1974L83.4831 16.2291L83.401 16.2639L83.3188 16.3019L83.2369 16.3428L83.1555 16.3864L83.075 16.4322L82.9957 16.4798L82.9179 16.5288L82.8419 16.5788L82.768 16.6293L82.6966 16.68L82.628 16.7305L82.5626 16.7804L82.5005 16.8292L82.4422 16.8766L82.388 16.9221L82.318 16.9859L82.0525 17.2478L81.7869 17.5098L81.5214 17.7718L81.2559 18.0337L80.9903 18.2956L80.7248 18.5576L80.4593 18.8196L80.1937 19.0815L79.9282 19.3435L79.6627 19.6054L79.3972 19.8674L79.1316 20.1293L78.8661 20.3913L78.6006 20.6532L78.48 20.7764L78.449 20.8178L78.4208 20.8614L78.3958 20.9068L78.374 20.9537" fill="url(#paint4_radial_582_12910)"/>
<path d="M78.7229 21.6254C78.7291 21.6146 78.7223 21.5912 78.702 21.5539C78.6854 21.5233 78.6672 21.4761 78.6616 21.449C78.6502 21.3939 78.6628 21.2873 78.6886 21.2205C78.7184 21.1431 78.7199 21.1192 78.697 21.0814C78.6543 21.011 78.5985 20.9623 78.5053 20.9144L78.4177 20.8694L78.4387 20.8383L78.4596 20.8073L81.7024 22.6796L84.9453 24.5518L84.9289 24.5855L84.9124 24.6191L84.8297 24.5658C84.7415 24.509 84.6715 24.485 84.5892 24.4833C84.545 24.4824 84.5251 24.4955 84.473 24.5601C84.428 24.6158 84.3419 24.68 84.2886 24.6977C84.2623 24.7064 84.2123 24.7143 84.1776 24.7152C84.135 24.7163 84.1113 24.7221 84.1051 24.7328C84.0963 24.7482 83.9832 24.6838 81.4049 23.1952C78.8266 21.7066 78.7143 21.641 78.7232 21.6256L78.7229 21.6254Z" fill="#ECECEC"/>
<path d="M84.1885 24.6913L83.9805 25.0515L83.7726 25.4117L83.5646 25.7719L83.3567 26.1321L83.1487 26.4922L82.9408 26.8524L82.7328 27.2126L82.5248 27.5728L82.3169 27.933L82.1089 28.2932L81.901 28.6534L81.693 29.0135L81.4851 29.3737L81.2771 29.7339L81.1232 30.0337L81.2404 30.0253L81.3538 30.0129L81.4628 29.9968L81.5671 29.9776L81.666 29.9558L81.7593 29.932L81.8463 29.9065L81.9267 29.88L81.9998 29.853L82.0654 29.8258L82.1229 29.7991L82.1718 29.7734L82.2116 29.7491L82.2419 29.7267L82.3173 29.6081L82.501 29.29L82.6847 28.9718L82.8684 28.6537L83.052 28.3356L83.2357 28.0174L83.4194 27.6993L83.6031 27.3811L83.7868 27.063L83.9705 26.7448L84.1541 26.4267L84.3378 26.1086L84.5215 25.7904L84.7052 25.4723L84.8888 25.1541L84.9811 24.979L84.9787 24.9492L84.9744 24.9189L84.9679 24.8885L84.9594 24.858L84.9486 24.8277L84.9357 24.7978L84.9205 24.7686L84.9032 24.7403L84.8839 24.713L84.8626 24.6872L84.8395 24.6628L84.8148 24.6402L84.7887 24.6194L84.7614 24.6007L84.7331 24.584L84.7041 24.5694L84.6745 24.5571L84.6446 24.5469L84.6147 24.5389L84.5849 24.5329L84.5554 24.5289L84.5378 24.5426L84.5229 24.5616L84.5067 24.5799L84.4891 24.5972L84.4701 24.6135L84.4499 24.6286L84.4286 24.6424L84.4063 24.6547L84.3831 24.6655L84.3593 24.6746L84.335 24.682L84.3104 24.6878L84.2856 24.6918L84.2609 24.694L84.2364 24.6947L84.2123 24.6937L84.1887 24.6912L84.1885 24.6913Z" fill="url(#paint5_linear_582_12910)"/>
<path d="M78.754 21.5556L78.5461 21.9158L78.3381 22.276L78.1302 22.6362L77.9222 22.9964L77.7142 23.3565L77.5063 23.7167L77.2983 24.0769L77.0904 24.4371L76.8824 24.7973L76.6745 25.1575L76.4665 25.5177L76.2586 25.8778L76.0506 26.238L75.8427 26.5982L75.66 26.8814L75.6086 26.7757L75.5628 26.6713L75.5222 26.5688L75.4866 26.469L75.456 26.3723L75.43 26.2797L75.4086 26.1916L75.3913 26.1088L75.3782 26.0318L75.3689 25.9615L75.3633 25.8984L75.3612 25.8432L75.3623 25.7965L75.3665 25.7591L75.4315 25.6345L75.6152 25.3163L75.7989 24.9982L75.9825 24.68L76.1662 24.3619L76.3499 24.0438L76.5336 23.7256L76.7172 23.4075L76.9009 23.0893L77.0846 22.7712L77.2683 22.4531L77.452 22.1349L77.6356 21.8168L77.8193 21.4986L78.003 21.1805L78.1086 21.013L78.1356 21.0001L78.1639 20.9888L78.1935 20.9791L78.2242 20.9713L78.2558 20.9655L78.2882 20.9618L78.3211 20.9603L78.3543 20.9611L78.3875 20.9642L78.4206 20.9697L78.4532 20.9775L78.4851 20.9876L78.5161 20.9999L78.5461 21.0141L78.5746 21.0303L78.6018 21.0481L78.6272 21.0676L78.651 21.0884L78.6729 21.1103L78.693 21.1331L78.7112 21.1567L78.7081 21.1787L78.6991 21.2011L78.6914 21.2243L78.6852 21.2482L78.6805 21.2728L78.6776 21.2979L78.6763 21.3232L78.6768 21.3487L78.6791 21.3741L78.6831 21.3993L78.6888 21.424L78.6961 21.4483L78.705 21.4717L78.7154 21.4942L78.7271 21.5158L78.7401 21.5362L78.7541 21.5554L78.754 21.5556Z" fill="url(#paint6_linear_582_12910)"/>
<path d="M75.957 26.4336L81.3911 29.5709" stroke="black" stroke-width="0.14865"/>
<path d="M78.7402 21.6055L84.1743 24.7428" stroke="black" stroke-width="0.14865"/>
<path d="M78.5117 20.7695L85.0133 24.5232" stroke="black" stroke-width="0.14865"/>
<path d="M82.3574 16.9688L86.3785 19.2903" stroke="black" stroke-width="0.14865"/>
<path d="M84.2022 24.6991L83.9942 25.0593L83.7862 25.4195L83.5783 25.7797L83.3703 26.1399L83.1624 26.5001L82.9544 26.8602L82.7465 27.2204L82.5385 27.5806L82.3306 27.9408L82.1226 28.301L81.9146 28.6612L81.7067 29.0214L81.4987 29.3815L81.2908 29.7417L81.1368 30.0415L81.2541 30.0332L81.3674 30.0207L81.4765 30.0046L81.5807 29.9854L81.6797 29.9636L81.773 29.9398L81.86 29.9144L81.9403 29.8878L82.0135 29.8608L82.0791 29.8336L82.1365 29.8069L82.1854 29.7812L82.2253 29.7569L82.2556 29.7346L82.331 29.6159L82.5147 29.2978L82.6984 28.9796L82.8821 28.6615L83.0657 28.3434L83.2494 28.0252L83.4331 27.7071L83.6168 27.3889L83.8004 27.0708L83.9841 26.7527L84.1678 26.4345L84.3515 26.1164L84.5352 25.7982L84.7188 25.4801L84.9025 25.162L84.9948 24.9868L84.9924 24.957L84.9881 24.9267L84.9816 24.8963L84.973 24.8658L84.9623 24.8355L84.9493 24.8056L84.9342 24.7764L84.9169 24.7481L84.8975 24.7208L84.8763 24.6949L84.8532 24.6706L84.8285 24.648L84.8024 24.6272L84.7751 24.6085L84.7467 24.5918L84.7177 24.5772L84.6881 24.5649L84.6583 24.5547L84.6283 24.5467L84.5985 24.5407L84.569 24.5367L84.5514 24.5504L84.5366 24.5694L84.5204 24.5877L84.5028 24.605L84.4838 24.6213L84.4636 24.6364L84.4422 24.6502L84.4199 24.6625L84.3968 24.6733L84.3729 24.6824L84.3486 24.6898L84.324 24.6956L84.2993 24.6996L84.2745 24.7019L84.25 24.7025L84.2259 24.7015L84.2022 24.699L84.2022 24.6991Z" stroke="black" stroke-width="0.14865"/>
<path d="M78.7657 21.5634L78.5578 21.9236L78.3498 22.2838L78.1419 22.644L77.9339 23.0041L77.726 23.3643L77.518 23.7245L77.3101 24.0847L77.1021 24.4449L76.8941 24.8051L76.6862 25.1653L76.4782 25.5255L76.2703 25.8857L76.0623 26.2458L75.8544 26.606L75.6717 26.8892L75.6203 26.7835L75.5745 26.6791L75.5339 26.5766L75.4984 26.4768L75.4677 26.3802L75.4418 26.2875L75.4203 26.1994L75.4031 26.1166L75.3899 26.0396L75.3806 25.9693L75.375 25.9062L75.3729 25.851L75.374 25.8043L75.3782 25.7669L75.4432 25.6423L75.6269 25.3241L75.8106 25.006L75.9943 24.6878L76.1779 24.3697L76.3616 24.0516L76.5453 23.7334L76.729 23.4153L76.9126 23.0971L77.0963 22.779L77.28 22.4609L77.4637 22.1427L77.6474 21.8246L77.831 21.5064L78.0147 21.1883L78.1203 21.0208L78.1473 21.0079L78.1757 20.9966L78.2052 20.987L78.2359 20.9791L78.2675 20.9733L78.2999 20.9696L78.3328 20.9681L78.3659 20.9689L78.3992 20.972L78.4323 20.9775L78.4649 20.9853L78.4968 20.9954L78.5278 21.0076L78.5577 21.0219L78.5863 21.0381L78.6135 21.0559L78.639 21.0754L78.6627 21.0962L78.6846 21.1181L78.7047 21.1409L78.7229 21.1645L78.7199 21.1866L78.7108 21.2089L78.7031 21.2321L78.6969 21.256L78.6923 21.2806L78.6893 21.3057L78.688 21.331L78.6885 21.3565L78.6908 21.3819L78.6948 21.4071L78.7005 21.4319L78.7078 21.4561L78.7167 21.4795L78.7271 21.5021L78.7388 21.5236L78.7518 21.544L78.7658 21.5633L78.7657 21.5634Z" stroke="black" stroke-width="0.14865"/>
<path d="M84.9064 24.7318L84.9361 24.6894L84.963 24.6451L84.9866 24.5989L85.007 24.5513L85.0534 24.3853L85.1475 24.0244L85.2416 23.6635L85.3357 23.3025L85.4297 22.9416L85.5238 22.5807L85.6179 22.2197L85.712 21.8588L85.8061 21.4979L85.9002 21.1369L85.9943 20.776L86.0884 20.4151L86.1825 20.0542L86.2766 19.6932L86.3707 19.3323L86.3908 19.2397L86.4032 19.1701L86.4151 19.0959L86.4263 19.0177L86.4368 18.9361L86.4462 18.8514L86.4545 18.7643L86.4613 18.675L86.4666 18.5842L86.4701 18.4923L86.4716 18.3998L86.471 18.3072L86.4681 18.2149L86.4626 18.1235L86.4545 18.0334L86.4435 17.9449L86.4299 17.858L86.4138 17.7728L86.3952 17.6894L86.3742 17.6077L86.3511 17.5278L86.3258 17.4498L86.2986 17.3737L86.2695 17.2995L86.2385 17.2273L86.206 17.1571L86.1718 17.089L86.1363 17.0229L86.0994 16.959L86.0613 16.8973L86.022 16.8378L85.9815 16.7803L85.94 16.7251L85.8974 16.6719L85.8538 16.6209L85.8092 16.5719L85.7637 16.525L85.7173 16.4801L85.67 16.4373L85.6219 16.3965L85.5731 16.3577L85.5235 16.3208L85.4731 16.2859L85.4206 16.2556L85.3652 16.2295L85.3085 16.2049L85.2504 16.182L85.191 16.1608L85.1303 16.1412L85.0683 16.1235L85.0049 16.1075L84.9402 16.0934L84.8742 16.0811L84.8068 16.0708L84.7382 16.0625L84.6683 16.0562L84.5971 16.0519L84.5246 16.0498L84.4508 16.0498L84.3758 16.052L84.2997 16.0565L84.2227 16.0634L84.1447 16.0727L84.0658 16.0846L83.9863 16.0991L83.9061 16.1162L83.8254 16.1361L83.7442 16.1588L83.6626 16.1844L83.5807 16.213L83.4987 16.2447L83.4166 16.2795L83.3344 16.3174L83.2525 16.3584L83.1711 16.402L83.0906 16.4478L83.0113 16.4954L82.9335 16.5444L82.8575 16.5943L82.7836 16.6449L82.7122 16.6956L82.6436 16.7461L82.5782 16.796L82.5161 16.8448L82.4579 16.8922L82.4037 16.9378L82.3336 17.0015L82.0681 17.2635L81.8026 17.5254L81.537 17.7874L81.2715 18.0493L81.006 18.3113L80.7404 18.5732L80.4749 18.8352L80.2094 19.0971L79.9439 19.3591L79.6783 19.621L79.4128 19.883L79.1473 20.1449L78.8817 20.4069L78.6162 20.6688L78.4957 20.792L78.4646 20.8334L78.4364 20.877L78.4115 20.9224L78.3897 20.9693" stroke="black" stroke-width="0.14865"/>
</g>
<defs>
<linearGradient id="paint0_linear_582_12910" x1="67.5861" y1="42.7538" x2="69.0307" y2="43.5879" gradientUnits="userSpaceOnUse">
<stop/>
<stop offset="1" stop-opacity="0"/>
</linearGradient>
<linearGradient id="paint1_linear_582_12910" x1="71.4702" y1="44.9746" x2="70.0467" y2="44.1528" gradientUnits="userSpaceOnUse">
<stop/>
<stop offset="1" stop-opacity="0"/>
</linearGradient>
<linearGradient id="paint2_linear_582_12910" x1="78.9848" y1="22.9441" x2="80.4521" y2="23.7913" gradientUnits="userSpaceOnUse">
<stop/>
<stop offset="1" stop-opacity="0"/>
</linearGradient>
<linearGradient id="paint3_linear_582_12910" x1="82.9147" y1="25.2141" x2="81.4688" y2="24.3793" gradientUnits="userSpaceOnUse">
<stop/>
<stop offset="1" stop-opacity="0"/>
</linearGradient>
<radialGradient id="paint4_radial_582_12910" cx="0" cy="0" r="1" gradientUnits="userSpaceOnUse" gradientTransform="translate(83.7956 19.1107) rotate(22.9962) scale(1.88568 3.87316)">
<stop stop-color="#F9F9F9"/>
<stop offset="1" stop-color="#F9F9F9"/>
</radialGradient>
<linearGradient id="paint5_linear_582_12910" x1="82.6756" y1="27.1631" x2="83.53" y2="27.6564" gradientUnits="userSpaceOnUse">
<stop stop-color="white"/>
<stop offset="1" stop-color="#F2F2F2"/>
</linearGradient>
<linearGradient id="paint6_linear_582_12910" x1="76.5154" y1="23.6084" x2="77.3699" y2="24.1017" gradientUnits="userSpaceOnUse">
<stop stop-color="#ECECEC"/>
<stop offset="1" stop-color="white"/>
</linearGradient>
</defs>
</svg>
