<svg width="120" height="120" viewBox="0 0 120 120" fill="none" xmlns="http://www.w3.org/2000/svg">
<path d="M67.1624 50.2925L64.6328 48.832L51.7354 71.171L54.265 72.6315L67.1624 50.2925Z" fill="#F7F7F7"/>
<path opacity="0.0336538" d="M65.8866 49.6388L64.6719 48.9375L51.8531 71.1402L53.0678 71.8415L65.8866 49.6388Z" fill="white"/>
<path opacity="0.0336538" d="M65.8695 49.6254L67.0664 50.3164L54.2519 72.5119L53.0549 71.8208L65.8695 49.6254Z" fill="white"/>
<path d="M65.6966 52.8617L63.1621 51.3984L60.3255 56.3116L62.86 57.7749L65.6966 52.8617Z" fill="#4D4D4D"/>
<path d="M64.6328 48.8516L67.1644 50.3132" stroke="black" stroke-width="0.137962"/>
<path d="M60.3281 56.3047L62.8598 57.7663" stroke="black" stroke-width="0.137962"/>
<path d="M63.166 51.3867L65.6976 52.8484" stroke="black" stroke-width="0.137962"/>
<path d="M69.2695 43.7344L66.2907 48.8938" stroke="black" stroke-width="0.137962"/>
<path d="M51.3307 76.5004L51.2643 76.462L51.1979 76.4237L51.1314 76.3853L51.065 76.347L50.9986 76.3086L50.9322 76.2703L50.8658 76.2319L50.7993 76.1936L50.7329 76.1552L50.6665 76.1169L50.6001 76.0785L50.5336 76.0402L50.4672 76.0018L50.4008 75.9635L50.3344 75.9251L50.2679 75.8868L50.2015 75.8484L50.1351 75.8101L50.0687 75.7717L50.0023 75.7334L49.9358 75.695L49.8694 75.6567L50.029 75.4671L50.2187 75.2707L50.4173 75.0828L50.6239 74.904L50.838 74.7348L51.059 74.5757L51.1491 74.4886L51.1452 74.4466L51.1429 74.404L51.1422 74.361L51.143 74.3174L51.1454 74.2733L51.1493 74.2287L51.1548 74.1835L51.1619 74.1377L51.1705 74.0913L51.1807 74.0443L51.1924 73.9967L51.2056 73.9485L51.2204 73.8996L51.2367 73.85L51.2546 73.7998L51.274 73.7489L51.2949 73.6972L51.3174 73.6449L51.3413 73.5919L51.3668 73.538L51.3939 73.4835L51.4318 73.4696L51.4795 73.4972L51.5272 73.5247L51.5749 73.5523L51.6227 73.5798L51.6704 73.6073L51.7181 73.6349L51.7658 73.6624L51.8135 73.69L51.8612 73.7175L51.9089 73.7451L51.9566 73.7726L52.0043 73.8002L52.052 73.8277L52.0997 73.8552L52.1474 73.8828L52.1951 73.9103L52.2428 73.9379L52.2906 73.9654L52.3383 73.993L52.386 74.0205L52.4337 74.048L52.4477 74.0858L52.414 74.1366L52.3801 74.1858L52.3462 74.2332L52.3121 74.279L52.2779 74.3231L52.2435 74.3655L52.2089 74.4062L52.1742 74.4452L52.1393 74.4826L52.1042 74.5184L52.0688 74.5524L52.0332 74.5849L51.9973 74.6157L51.9612 74.6448L51.9248 74.6723L51.8881 74.6982L51.8512 74.7225L51.8139 74.7451L51.7762 74.7661L51.7383 74.7855L51.7 74.8032L51.6681 74.9029L51.6419 75.1738L51.6035 75.4439L51.553 75.7125L51.4905 75.9785L51.4164 76.2414L51.3307 76.5003L51.3307 76.5004Z" fill="#333333" stroke="black" stroke-width="0.137962"/>
<path d="M65.1755 48.2532L67.4093 49.5429L68.7597 47.2039L69.1843 45.9526L69.4084 44.028C69.4171 43.971 69.4086 43.9129 69.3841 43.8613C69.3597 43.8097 69.3203 43.767 69.2712 43.7386C69.222 43.7102 69.1654 43.6975 69.1085 43.7021C69.0515 43.7067 68.997 43.7284 68.9519 43.7645L67.3972 44.9208L66.5259 45.9142L65.1755 48.2532Z" stroke="black" stroke-width="0.137962"/>
<path d="M67.4081 49.5397L67.1619 50.3101L54.2849 72.6136L52.7506 72.9368C52.6451 72.9467 52.5397 72.9238 52.4485 72.8712C52.3573 72.8185 52.2847 72.7387 52.2406 72.6423L51.7533 71.152L64.6302 48.8485L65.1743 48.25" stroke="black" stroke-width="0.137962"/>
<path d="M54.2855 72.614L51.7539 71.1523" stroke="black" stroke-width="0.137962"/>
<path d="M52.4492 72.8711L51.9342 73.7631" stroke="black" stroke-width="0.137962"/>
<path d="M51.7539 71.1523L51.4311 73.4731" stroke="black" stroke-width="0.137962"/>
<path d="M54.2882 72.6123L52.4398 74.0522" stroke="black" stroke-width="0.137962"/>
<path d="M67.8384 46.366C68.6333 44.9892 69.2898 43.8666 69.2973 43.8714C69.3467 43.9028 69.3369 44.0779 69.2373 44.9445L69.1257 45.9163L68.9267 46.512L68.7276 47.1078L68.055 48.2741L67.3825 49.4404L66.8878 49.1548L66.393 48.8692L67.8383 46.3659L67.8384 46.366Z" fill="#F2F2F2"/>
<path d="M65.932 47.0808L66.596 45.9308L67.0165 45.4512L67.437 44.9715L68.2241 44.3854C68.6571 44.063 69.0262 43.7944 69.0443 43.7885C69.0786 43.7774 69.136 43.776 69.153 43.7858C69.1598 43.7898 68.7222 44.5547 67.7148 46.2995L66.2668 48.8075L65.7674 48.5192L65.268 48.2309L65.932 47.0808V47.0808Z" fill="#F2F2F2"/>
<path d="M64.7521 48.8163C64.7577 48.8073 64.8576 48.6951 64.9741 48.5669L65.1859 48.3338L66.2581 48.9496L67.3302 49.5654L67.3228 49.5897C67.2955 49.6795 67.1304 50.1926 67.1267 50.199C67.1242 50.2033 66.5867 49.8976 65.9321 49.5197C64.8047 48.8688 64.7425 48.8317 64.7521 48.8162L64.7521 48.8163Z" fill="#F2F2F2"/>
<path d="M52.3336 72.7354C52.2699 72.6575 52.2733 72.6669 52.0437 71.9243L51.8263 71.2214L52.4141 71.555C52.7377 71.7379 53.263 72.0411 53.5814 72.229L54.161 72.5694L53.4304 72.7355C52.9301 72.8493 52.6745 72.8983 52.6195 72.8909C52.5242 72.8782 52.3908 72.8055 52.3337 72.7352L52.3336 72.7354Z" fill="#EFEFEF"/>
<path opacity="0.0336538" d="M65.8782 49.6374L64.6523 48.9297L51.8355 71.1291L53.0614 71.8368L65.8782 49.6374Z" fill="url(#paint0_linear_582_12884)"/>
<path opacity="0.0336538" d="M65.8624 49.6229L67.0703 50.3203L54.2577 72.5124L53.0498 71.815L65.8624 49.6229Z" fill="url(#paint1_linear_582_12884)"/>
<defs>
<linearGradient id="paint0_linear_582_12884" x1="62.0977" y1="54.3132" x2="62.6919" y2="54.6563" gradientUnits="userSpaceOnUse">
<stop/>
<stop offset="1" stop-opacity="0"/>
</linearGradient>
<linearGradient id="paint1_linear_582_12884" x1="63.6924" y1="55.2263" x2="63.1069" y2="54.8883" gradientUnits="userSpaceOnUse">
<stop/>
<stop offset="1" stop-opacity="0"/>
</linearGradient>
</defs>
</svg>
