<svg width="716" height="449" viewBox="0 0 716 449" fill="none" xmlns="http://www.w3.org/2000/svg">
<g clip-path="url(#clip0_555_2467)">
<path d="M0 0H716V449H0V0Z" fill="white"/>
<path d="M229.219 0C326.478 0 412.676 62.6266 442.731 155.126C472.786 247.625 439.861 348.957 361.177 406.124L229.219 224.5V0Z" fill="#4285F4"/>
<path d="M398.612 211.94V210.986L405.164 202.166H406.658V210.842H408.584V211.94H406.658V215H405.416V211.94H398.612ZM405.47 203.552L400.07 210.842H405.47V203.552ZM412.369 208.43C412.369 206.366 412.687 204.764 413.323 203.624C413.959 202.484 415.099 201.914 416.743 201.914C418.387 201.914 419.527 202.484 420.163 203.624C420.799 204.764 421.117 206.366 421.117 208.43C421.117 210.53 420.799 212.156 420.163 213.308C419.527 214.46 418.387 215.036 416.743 215.036C415.087 215.036 413.941 214.46 413.305 213.308C412.681 212.156 412.369 210.53 412.369 208.43ZM419.875 208.43C419.875 207.314 419.797 206.372 419.641 205.604C419.485 204.836 419.179 204.218 418.723 203.75C418.267 203.282 417.607 203.048 416.743 203.048C415.879 203.048 415.219 203.282 414.763 203.75C414.307 204.218 414.001 204.836 413.845 205.604C413.689 206.372 413.611 207.314 413.611 208.43C413.611 209.582 413.689 210.548 413.845 211.328C414.001 212.096 414.307 212.714 414.763 213.182C415.219 213.65 415.879 213.884 416.743 213.884C417.607 213.884 418.267 213.65 418.723 213.182C419.179 212.714 419.485 212.096 419.641 211.328C419.797 210.548 419.875 209.582 419.875 208.43ZM425.225 204.794C425.225 204.026 425.459 203.408 425.927 202.94C426.407 202.46 427.013 202.22 427.745 202.22C428.489 202.22 429.095 202.46 429.563 202.94C430.043 203.408 430.283 204.026 430.283 204.794C430.283 205.574 430.043 206.204 429.563 206.684C429.095 207.152 428.489 207.386 427.745 207.386C427.013 207.386 426.407 207.152 425.927 206.684C425.459 206.204 425.225 205.574 425.225 204.794ZM435.305 202.4L427.925 215H426.647L434.045 202.4H435.305ZM427.745 203.03C427.289 203.03 426.923 203.186 426.647 203.498C426.383 203.798 426.251 204.23 426.251 204.794C426.251 205.358 426.383 205.796 426.647 206.108C426.923 206.42 427.289 206.576 427.745 206.576C428.201 206.576 428.567 206.42 428.843 206.108C429.119 205.796 429.257 205.358 429.257 204.794C429.257 204.242 429.119 203.81 428.843 203.498C428.567 203.186 428.201 203.03 427.745 203.03ZM431.705 212.606C431.705 211.826 431.939 211.202 432.407 210.734C432.887 210.254 433.493 210.014 434.225 210.014C434.957 210.014 435.557 210.254 436.025 210.734C436.505 211.202 436.745 211.826 436.745 212.606C436.745 213.386 436.505 214.016 436.025 214.496C435.557 214.964 434.957 215.198 434.225 215.198C433.493 215.198 432.887 214.964 432.407 214.496C431.939 214.016 431.705 213.386 431.705 212.606ZM434.225 210.842C433.769 210.842 433.403 210.998 433.127 211.31C432.851 211.622 432.713 212.054 432.713 212.606C432.713 213.158 432.851 213.59 433.127 213.902C433.403 214.214 433.769 214.37 434.225 214.37C434.681 214.37 435.041 214.22 435.305 213.92C435.581 213.608 435.719 213.17 435.719 212.606C435.719 212.042 435.581 211.61 435.305 211.31C435.041 210.998 434.681 210.842 434.225 210.842Z" fill="white"/>
<path d="M201.086 1.77025C210.419 0.591249 219.816 0 229.223 0V224.5L201.086 1.77025Z" fill="#7BAAF7"/>
<path d="M187.156 3.97677C191.775 3.09565 196.421 2.35986 201.086 1.77051L229.223 224.5L187.156 3.97677Z" fill="#46BDC6"/>
<path d="M108.93 34.9484C132.82 19.787 159.362 9.27858 187.156 3.97656L229.223 224.5L108.93 34.9484Z" fill="#FF6D01"/>
<path d="M20.4844 141.856C37.9371 97.7754 68.8967 60.3517 108.926 34.9482L229.219 224.5L20.4844 141.856Z" fill="#34A853"/>
<path d="M39.6679 344.794C1.16142 284.117 -5.9701 208.674 20.4846 141.856L229.219 224.5L39.6679 344.794Z" fill="#FBBC04"/>
<path d="M361.181 406.124C311.031 442.561 248.047 456.639 187.156 445.023C126.265 433.408 72.8872 397.132 39.6719 344.793L229.223 224.5L361.181 406.124Z" fill="#EA4335"/>
<path d="M165.918 423.01C168.126 421.354 169.83 419.872 171.03 418.564C172.242 417.244 172.848 415.954 172.848 414.694C172.848 413.866 172.638 413.206 172.218 412.714C171.81 412.21 171.138 411.958 170.202 411.958C169.29 411.958 168.582 412.246 168.078 412.822C167.586 413.386 167.31 414.142 167.25 415.09H166.026C166.098 413.758 166.506 412.726 167.25 411.994C168.006 411.25 168.99 410.878 170.202 410.878C171.366 410.878 172.308 411.208 173.028 411.868C173.748 412.516 174.108 413.44 174.108 414.64C174.108 416.092 173.502 417.502 172.29 418.87C171.09 420.226 169.608 421.552 167.844 422.848H174.504V423.91H165.918V423.01ZM186.047 414.244C185.783 412.684 184.877 411.904 183.329 411.904C182.153 411.904 181.271 412.36 180.683 413.272C180.095 414.184 179.825 415.678 179.873 417.754C180.113 417.034 180.569 416.47 181.241 416.062C181.925 415.642 182.705 415.432 183.581 415.432C184.841 415.432 185.837 415.822 186.569 416.602C187.313 417.37 187.685 418.432 187.685 419.788C187.685 420.58 187.529 421.3 187.217 421.948C186.917 422.584 186.449 423.094 185.813 423.478C185.189 423.862 184.409 424.054 183.473 424.054C181.685 424.054 180.449 423.484 179.765 422.344C179.093 421.204 178.757 419.59 178.757 417.502C178.757 413.062 180.281 410.842 183.329 410.842C184.481 410.842 185.387 411.16 186.047 411.796C186.707 412.42 187.097 413.236 187.217 414.244H186.047ZM183.347 416.512C182.783 416.512 182.249 416.626 181.745 416.854C181.241 417.082 180.827 417.43 180.503 417.898C180.191 418.354 180.035 418.918 180.035 419.59C180.035 420.562 180.323 421.372 180.899 422.02C181.475 422.668 182.315 422.992 183.419 422.992C184.343 422.992 185.081 422.71 185.633 422.146C186.185 421.582 186.461 420.814 186.461 419.842C186.461 418.798 186.191 417.982 185.651 417.394C185.111 416.806 184.343 416.512 183.347 416.512ZM191.715 413.794C191.715 413.026 191.949 412.408 192.417 411.94C192.897 411.46 193.503 411.22 194.235 411.22C194.979 411.22 195.585 411.46 196.053 411.94C196.533 412.408 196.773 413.026 196.773 413.794C196.773 414.574 196.533 415.204 196.053 415.684C195.585 416.152 194.979 416.386 194.235 416.386C193.503 416.386 192.897 416.152 192.417 415.684C191.949 415.204 191.715 414.574 191.715 413.794ZM201.795 411.4L194.415 424H193.137L200.535 411.4H201.795ZM194.235 412.03C193.779 412.03 193.413 412.186 193.137 412.498C192.873 412.798 192.741 413.23 192.741 413.794C192.741 414.358 192.873 414.796 193.137 415.108C193.413 415.42 193.779 415.576 194.235 415.576C194.691 415.576 195.057 415.42 195.333 415.108C195.609 414.796 195.747 414.358 195.747 413.794C195.747 413.242 195.609 412.81 195.333 412.498C195.057 412.186 194.691 412.03 194.235 412.03ZM198.195 421.606C198.195 420.826 198.429 420.202 198.897 419.734C199.377 419.254 199.983 419.014 200.715 419.014C201.447 419.014 202.047 419.254 202.515 419.734C202.995 420.202 203.235 420.826 203.235 421.606C203.235 422.386 202.995 423.016 202.515 423.496C202.047 423.964 201.447 424.198 200.715 424.198C199.983 424.198 199.377 423.964 198.897 423.496C198.429 423.016 198.195 422.386 198.195 421.606ZM200.715 419.842C200.259 419.842 199.893 419.998 199.617 420.31C199.341 420.622 199.203 421.054 199.203 421.606C199.203 422.158 199.341 422.59 199.617 422.902C199.893 423.214 200.259 423.37 200.715 423.37C201.171 423.37 201.531 423.22 201.795 422.92C202.071 422.608 202.209 422.17 202.209 421.606C202.209 421.042 202.071 420.61 201.795 420.31C201.531 419.998 201.171 419.842 200.715 419.842Z" fill="white"/>
<path d="M15.558 229.228V228.094H18.618V241H17.34V229.228H15.558ZM31.7219 229.174H25.1339V233.782C25.4339 233.362 25.8719 233.02 26.4479 232.756C27.0239 232.48 27.6479 232.342 28.3199 232.342C29.3039 232.342 30.1079 232.546 30.7319 232.954C31.3559 233.35 31.8059 233.872 32.0819 234.52C32.3579 235.156 32.4959 235.84 32.4959 236.572C32.4959 237.412 32.3339 238.174 32.0099 238.858C31.6979 239.53 31.2119 240.064 30.5519 240.46C29.9039 240.856 29.0939 241.054 28.1219 241.054C26.8859 241.054 25.8839 240.736 25.1159 240.1C24.3479 239.452 23.8799 238.582 23.7119 237.49H24.9539C25.1099 238.282 25.4699 238.894 26.0339 239.326C26.5979 239.758 27.2939 239.974 28.1219 239.974C29.1659 239.974 29.9519 239.668 30.4799 239.056C31.0199 238.432 31.2899 237.61 31.2899 236.59C31.2899 235.594 31.0199 234.82 30.4799 234.268C29.9399 233.704 29.1659 233.422 28.1579 233.422C27.4619 233.422 26.8499 233.584 26.3219 233.908C25.7939 234.232 25.4039 234.67 25.1519 235.222H23.9639V228.076H31.7219V229.174ZM36.4592 230.794C36.4592 230.026 36.6932 229.408 37.1612 228.94C37.6412 228.46 38.2472 228.22 38.9792 228.22C39.7232 228.22 40.3292 228.46 40.7972 228.94C41.2772 229.408 41.5172 230.026 41.5172 230.794C41.5172 231.574 41.2772 232.204 40.7972 232.684C40.3292 233.152 39.7232 233.386 38.9792 233.386C38.2472 233.386 37.6412 233.152 37.1612 232.684C36.6932 232.204 36.4592 231.574 36.4592 230.794ZM46.5392 228.4L39.1592 241H37.8812L45.2792 228.4H46.5392ZM38.9792 229.03C38.5232 229.03 38.1572 229.186 37.8812 229.498C37.6172 229.798 37.4852 230.23 37.4852 230.794C37.4852 231.358 37.6172 231.796 37.8812 232.108C38.1572 232.42 38.5232 232.576 38.9792 232.576C39.4352 232.576 39.8012 232.42 40.0772 232.108C40.3532 231.796 40.4912 231.358 40.4912 230.794C40.4912 230.242 40.3532 229.81 40.0772 229.498C39.8012 229.186 39.4352 229.03 38.9792 229.03ZM42.9392 238.606C42.9392 237.826 43.1732 237.202 43.6412 236.734C44.1212 236.254 44.7272 236.014 45.4592 236.014C46.1912 236.014 46.7912 236.254 47.2592 236.734C47.7392 237.202 47.9792 237.826 47.9792 238.606C47.9792 239.386 47.7392 240.016 47.2592 240.496C46.7912 240.964 46.1912 241.198 45.4592 241.198C44.7272 241.198 44.1212 240.964 43.6412 240.496C43.1732 240.016 42.9392 239.386 42.9392 238.606ZM45.4592 236.842C45.0032 236.842 44.6372 236.998 44.3612 237.31C44.0852 237.622 43.9472 238.054 43.9472 238.606C43.9472 239.158 44.0852 239.59 44.3612 239.902C44.6372 240.214 45.0032 240.37 45.4592 240.37C45.9152 240.37 46.2752 240.22 46.5392 239.92C46.8152 239.608 46.9532 239.17 46.9532 238.606C46.9532 238.042 46.8152 237.61 46.5392 237.31C46.2752 236.998 45.9152 236.842 45.4592 236.842Z" fill="white"/>
<path d="M58.558 100.228V99.094H61.618V112H60.34V100.228H58.558ZM66.5859 105.43C66.5859 103.366 66.9039 101.764 67.5399 100.624C68.1759 99.484 69.3159 98.914 70.9599 98.914C72.6039 98.914 73.7439 99.484 74.3799 100.624C75.0159 101.764 75.3339 103.366 75.3339 105.43C75.3339 107.53 75.0159 109.156 74.3799 110.308C73.7439 111.46 72.6039 112.036 70.9599 112.036C69.3039 112.036 68.1579 111.46 67.5219 110.308C66.8979 109.156 66.5859 107.53 66.5859 105.43ZM74.0919 105.43C74.0919 104.314 74.0139 103.372 73.8579 102.604C73.7019 101.836 73.3959 101.218 72.9399 100.75C72.4839 100.282 71.8239 100.048 70.9599 100.048C70.0959 100.048 69.4359 100.282 68.9799 100.75C68.5239 101.218 68.2179 101.836 68.0619 102.604C67.9059 103.372 67.8279 104.314 67.8279 105.43C67.8279 106.582 67.9059 107.548 68.0619 108.328C68.2179 109.096 68.5239 109.714 68.9799 110.182C69.4359 110.65 70.0959 110.884 70.9599 110.884C71.8239 110.884 72.4839 110.65 72.9399 110.182C73.3959 109.714 73.7019 109.096 73.8579 108.328C74.0139 107.548 74.0919 106.582 74.0919 105.43ZM79.4417 101.794C79.4417 101.026 79.6757 100.408 80.1437 99.94C80.6237 99.46 81.2297 99.22 81.9617 99.22C82.7057 99.22 83.3117 99.46 83.7797 99.94C84.2597 100.408 84.4997 101.026 84.4997 101.794C84.4997 102.574 84.2597 103.204 83.7797 103.684C83.3117 104.152 82.7057 104.386 81.9617 104.386C81.2297 104.386 80.6237 104.152 80.1437 103.684C79.6757 103.204 79.4417 102.574 79.4417 101.794ZM89.5217 99.4L82.1417 112H80.8637L88.2617 99.4H89.5217ZM81.9617 100.03C81.5057 100.03 81.1397 100.186 80.8637 100.498C80.5997 100.798 80.4677 101.23 80.4677 101.794C80.4677 102.358 80.5997 102.796 80.8637 103.108C81.1397 103.42 81.5057 103.576 81.9617 103.576C82.4177 103.576 82.7837 103.42 83.0597 103.108C83.3357 102.796 83.4737 102.358 83.4737 101.794C83.4737 101.242 83.3357 100.81 83.0597 100.498C82.7837 100.186 82.4177 100.03 81.9617 100.03ZM85.9217 109.606C85.9217 108.826 86.1557 108.202 86.6237 107.734C87.1037 107.254 87.7097 107.014 88.4417 107.014C89.1737 107.014 89.7737 107.254 90.2417 107.734C90.7217 108.202 90.9617 108.826 90.9617 109.606C90.9617 110.386 90.7217 111.016 90.2417 111.496C89.7737 111.964 89.1737 112.198 88.4417 112.198C87.7097 112.198 87.1037 111.964 86.6237 111.496C86.1557 111.016 85.9217 110.386 85.9217 109.606ZM88.4417 107.842C87.9857 107.842 87.6197 107.998 87.3437 108.31C87.0677 108.622 86.9297 109.054 86.9297 109.606C86.9297 110.158 87.0677 110.59 87.3437 110.902C87.6197 111.214 87.9857 111.37 88.4417 111.37C88.8977 111.37 89.2577 111.22 89.5217 110.92C89.7977 110.608 89.9357 110.17 89.9357 109.606C89.9357 109.042 89.7977 108.61 89.5217 108.31C89.2577 107.998 88.8977 107.842 88.4417 107.842Z" fill="white"/>
<path d="M150.586 31.244C150.322 29.684 149.416 28.904 147.868 28.904C146.692 28.904 145.81 29.36 145.222 30.272C144.634 31.184 144.364 32.678 144.412 34.754C144.652 34.034 145.108 33.47 145.78 33.062C146.464 32.642 147.244 32.432 148.12 32.432C149.38 32.432 150.376 32.822 151.108 33.602C151.852 34.37 152.224 35.432 152.224 36.788C152.224 37.58 152.068 38.3 151.756 38.948C151.456 39.584 150.988 40.094 150.352 40.478C149.728 40.862 148.948 41.054 148.012 41.054C146.224 41.054 144.988 40.484 144.304 39.344C143.632 38.204 143.296 36.59 143.296 34.502C143.296 30.062 144.82 27.842 147.868 27.842C149.02 27.842 149.926 28.16 150.586 28.796C151.246 29.42 151.636 30.236 151.756 31.244H150.586ZM147.886 33.512C147.322 33.512 146.788 33.626 146.284 33.854C145.78 34.082 145.366 34.43 145.042 34.898C144.73 35.354 144.574 35.918 144.574 36.59C144.574 37.562 144.862 38.372 145.438 39.02C146.014 39.668 146.854 39.992 147.958 39.992C148.882 39.992 149.62 39.71 150.172 39.146C150.724 38.582 151 37.814 151 36.842C151 35.798 150.73 34.982 150.19 34.394C149.65 33.806 148.882 33.512 147.886 33.512ZM156.254 30.794C156.254 30.026 156.488 29.408 156.956 28.94C157.436 28.46 158.042 28.22 158.774 28.22C159.518 28.22 160.124 28.46 160.592 28.94C161.072 29.408 161.312 30.026 161.312 30.794C161.312 31.574 161.072 32.204 160.592 32.684C160.124 33.152 159.518 33.386 158.774 33.386C158.042 33.386 157.436 33.152 156.956 32.684C156.488 32.204 156.254 31.574 156.254 30.794ZM166.334 28.4L158.954 41H157.676L165.074 28.4H166.334ZM158.774 29.03C158.318 29.03 157.952 29.186 157.676 29.498C157.412 29.798 157.28 30.23 157.28 30.794C157.28 31.358 157.412 31.796 157.676 32.108C157.952 32.42 158.318 32.576 158.774 32.576C159.23 32.576 159.596 32.42 159.872 32.108C160.148 31.796 160.286 31.358 160.286 30.794C160.286 30.242 160.148 29.81 159.872 29.498C159.596 29.186 159.23 29.03 158.774 29.03ZM162.734 38.606C162.734 37.826 162.968 37.202 163.436 36.734C163.916 36.254 164.522 36.014 165.254 36.014C165.986 36.014 166.586 36.254 167.054 36.734C167.534 37.202 167.774 37.826 167.774 38.606C167.774 39.386 167.534 40.016 167.054 40.496C166.586 40.964 165.986 41.198 165.254 41.198C164.522 41.198 163.916 40.964 163.436 40.496C162.968 40.016 162.734 39.386 162.734 38.606ZM165.254 36.842C164.798 36.842 164.432 36.998 164.156 37.31C163.88 37.622 163.742 38.054 163.742 38.606C163.742 39.158 163.88 39.59 164.156 39.902C164.432 40.214 164.798 40.37 165.254 40.37C165.71 40.37 166.07 40.22 166.334 39.92C166.61 39.608 166.748 39.17 166.748 38.606C166.748 38.042 166.61 37.61 166.334 37.31C166.07 36.998 165.71 36.842 165.254 36.842Z" fill="white"/>
<path d="M206.918 24.01C209.126 22.354 210.83 20.872 212.03 19.564C213.242 18.244 213.848 16.954 213.848 15.694C213.848 14.866 213.638 14.206 213.218 13.714C212.81 13.21 212.138 12.958 211.202 12.958C210.29 12.958 209.582 13.246 209.078 13.822C208.586 14.386 208.31 15.142 208.25 16.09H207.026C207.098 14.758 207.506 13.726 208.25 12.994C209.006 12.25 209.99 11.878 211.202 11.878C212.366 11.878 213.308 12.208 214.028 12.868C214.748 13.516 215.108 14.44 215.108 15.64C215.108 17.092 214.502 18.502 213.29 19.87C212.09 21.226 210.608 22.552 208.844 23.848H215.504V24.91H206.918V24.01ZM219.235 14.794C219.235 14.026 219.469 13.408 219.937 12.94C220.417 12.46 221.023 12.22 221.755 12.22C222.499 12.22 223.105 12.46 223.573 12.94C224.053 13.408 224.293 14.026 224.293 14.794C224.293 15.574 224.053 16.204 223.573 16.684C223.105 17.152 222.499 17.386 221.755 17.386C221.023 17.386 220.417 17.152 219.937 16.684C219.469 16.204 219.235 15.574 219.235 14.794ZM229.315 12.4L221.935 25H220.657L228.055 12.4H229.315ZM221.755 13.03C221.299 13.03 220.933 13.186 220.657 13.498C220.393 13.798 220.261 14.23 220.261 14.794C220.261 15.358 220.393 15.796 220.657 16.108C220.933 16.42 221.299 16.576 221.755 16.576C222.211 16.576 222.577 16.42 222.853 16.108C223.129 15.796 223.267 15.358 223.267 14.794C223.267 14.242 223.129 13.81 222.853 13.498C222.577 13.186 222.211 13.03 221.755 13.03ZM225.715 22.606C225.715 21.826 225.949 21.202 226.417 20.734C226.897 20.254 227.503 20.014 228.235 20.014C228.967 20.014 229.567 20.254 230.035 20.734C230.515 21.202 230.755 21.826 230.755 22.606C230.755 23.386 230.515 24.016 230.035 24.496C229.567 24.964 228.967 25.198 228.235 25.198C227.503 25.198 226.897 24.964 226.417 24.496C225.949 24.016 225.715 23.386 225.715 22.606ZM228.235 20.842C227.779 20.842 227.413 20.998 227.137 21.31C226.861 21.622 226.723 22.054 226.723 22.606C226.723 23.158 226.861 23.59 227.137 23.902C227.413 24.214 227.779 24.37 228.235 24.37C228.691 24.37 229.051 24.22 229.315 23.92C229.591 23.608 229.729 23.17 229.729 22.606C229.729 22.042 229.591 21.61 229.315 21.31C229.051 20.998 228.691 20.842 228.235 20.842Z" fill="white"/>
<path d="M185.558 17.228V16.094H188.618V29H187.34V17.228H185.558ZM193.19 18.794C193.19 18.026 193.424 17.408 193.892 16.94C194.372 16.46 194.978 16.22 195.71 16.22C196.454 16.22 197.06 16.46 197.528 16.94C198.008 17.408 198.248 18.026 198.248 18.794C198.248 19.574 198.008 20.204 197.528 20.684C197.06 21.152 196.454 21.386 195.71 21.386C194.978 21.386 194.372 21.152 193.892 20.684C193.424 20.204 193.19 19.574 193.19 18.794ZM203.27 16.4L195.89 29H194.612L202.01 16.4H203.27ZM195.71 17.03C195.254 17.03 194.888 17.186 194.612 17.498C194.348 17.798 194.216 18.23 194.216 18.794C194.216 19.358 194.348 19.796 194.612 20.108C194.888 20.42 195.254 20.576 195.71 20.576C196.166 20.576 196.532 20.42 196.808 20.108C197.084 19.796 197.222 19.358 197.222 18.794C197.222 18.242 197.084 17.81 196.808 17.498C196.532 17.186 196.166 17.03 195.71 17.03ZM199.67 26.606C199.67 25.826 199.904 25.202 200.372 24.734C200.852 24.254 201.458 24.014 202.19 24.014C202.922 24.014 203.522 24.254 203.99 24.734C204.47 25.202 204.71 25.826 204.71 26.606C204.71 27.386 204.47 28.016 203.99 28.496C203.522 28.964 202.922 29.198 202.19 29.198C201.458 29.198 200.852 28.964 200.372 28.496C199.904 28.016 199.67 27.386 199.67 26.606ZM202.19 24.842C201.734 24.842 201.368 24.998 201.092 25.31C200.816 25.622 200.678 26.054 200.678 26.606C200.678 27.158 200.816 27.59 201.092 27.902C201.368 28.214 201.734 28.37 202.19 28.37C202.646 28.37 203.006 28.22 203.27 27.92C203.546 27.608 203.684 27.17 203.684 26.606C203.684 26.042 203.546 25.61 203.27 25.31C203.006 24.998 202.646 24.842 202.19 24.842Z" fill="white"/>
<path d="M500.375 95C500.375 98.3137 497.689 101 494.375 101C491.061 101 488.375 98.3137 488.375 95C488.375 91.6863 491.061 89 494.375 89C497.689 89 500.375 91.6863 500.375 95Z" fill="#4285F4"/>
<path d="M500.375 120C500.375 123.314 497.689 126 494.375 126C491.061 126 488.375 123.314 488.375 120C488.375 116.686 491.061 114 494.375 114C497.689 114 500.375 116.686 500.375 120Z" fill="#EA4335"/>
<path d="M500.375 143C500.375 146.314 497.689 149 494.375 149C491.061 149 488.375 146.314 488.375 143C488.375 139.686 491.061 137 494.375 137C497.689 137 500.375 139.686 500.375 143Z" fill="#FBBC04"/>
<path d="M500.375 167C500.375 170.314 497.689 173 494.375 173C491.061 173 488.375 170.314 488.375 167C488.375 163.686 491.061 161 494.375 161C497.689 161 500.375 163.686 500.375 167Z" fill="#34A853"/>
<path d="M500.375 191C500.375 194.314 497.689 197 494.375 197C491.061 197 488.375 194.314 488.375 191C488.375 187.686 491.061 185 494.375 185C497.689 185 500.375 187.686 500.375 191Z" fill="#FF6D01"/>
<path d="M500.375 215C500.375 218.314 497.689 221 494.375 221C491.061 221 488.375 218.314 488.375 215C488.375 211.686 491.061 209 494.375 209C497.689 209 500.375 211.686 500.375 215Z" fill="#46BDC6"/>
<path d="M500.375 239C500.375 242.314 497.689 245 494.375 245C491.061 245 488.375 242.314 488.375 239C488.375 235.686 491.061 233 494.375 233C497.689 233 500.375 235.686 500.375 239Z" fill="#7BAAF7"/>
<path d="M514.87 93.0707H513.757C513.714 92.8329 513.634 92.6237 513.518 92.443C513.401 92.2622 513.259 92.1089 513.09 91.9828C512.921 91.8568 512.732 91.7617 512.523 91.6975C512.316 91.6333 512.096 91.6012 511.863 91.6012C511.442 91.6012 511.065 91.707 510.732 91.9186C510.402 92.1303 510.14 92.4406 509.947 92.8496C509.757 93.2586 509.662 93.7579 509.662 94.3476C509.662 94.9421 509.757 95.4438 509.947 95.8528C510.14 96.2618 510.403 96.5709 510.736 96.7802C511.069 96.9894 511.443 97.094 511.859 97.094C512.09 97.094 512.309 97.0631 512.516 97.0013C512.725 96.9371 512.914 96.8432 513.083 96.7195C513.251 96.5959 513.394 96.4449 513.511 96.2665C513.63 96.0858 513.712 95.879 513.757 95.6459L514.87 95.6495C514.81 96.0085 514.695 96.3391 514.524 96.6411C514.355 96.9407 514.137 97.1999 513.871 97.4186C513.607 97.635 513.305 97.8026 512.965 97.9215C512.625 98.0404 512.254 98.0999 511.852 98.0999C511.22 98.0999 510.656 97.9501 510.161 97.6505C509.667 97.3485 509.277 96.9169 508.992 96.3557C508.709 95.7945 508.567 95.1252 508.567 94.3476C508.567 93.5677 508.71 92.8983 508.995 92.3395C509.28 91.7783 509.67 91.348 510.165 91.0483C510.66 90.7464 511.222 90.5954 511.852 90.5954C512.24 90.5954 512.601 90.6512 512.936 90.763C513.274 90.8724 513.577 91.0341 513.846 91.2481C514.115 91.4597 514.337 91.7189 514.513 92.0256C514.689 92.33 514.808 92.6784 514.87 93.0707ZM519.616 98.1106C519.102 98.1106 518.654 97.9929 518.271 97.7575C517.888 97.5221 517.591 97.1927 517.379 96.7695C517.168 96.3462 517.062 95.8516 517.062 95.2857C517.062 94.7174 517.168 94.2204 517.379 93.7948C517.591 93.3691 517.888 93.0386 518.271 92.8032C518.654 92.5678 519.102 92.4501 519.616 92.4501C520.129 92.4501 520.578 92.5678 520.96 92.8032C521.343 93.0386 521.641 93.3691 521.852 93.7948C522.064 94.2204 522.17 94.7174 522.17 95.2857C522.17 95.8516 522.064 96.3462 521.852 96.7695C521.641 97.1927 521.343 97.5221 520.96 97.7575C520.578 97.9929 520.129 98.1106 519.616 98.1106ZM519.619 97.2153C519.952 97.2153 520.228 97.1273 520.447 96.9514C520.666 96.7754 520.827 96.5412 520.932 96.2487C521.039 95.9562 521.092 95.634 521.092 95.2821C521.092 94.9326 521.039 94.6116 520.932 94.3191C520.827 94.0242 520.666 93.7876 520.447 93.6093C520.228 93.431 519.952 93.3418 519.619 93.3418C519.284 93.3418 519.006 93.431 518.785 93.6093C518.566 93.7876 518.403 94.0242 518.296 94.3191C518.191 94.6116 518.139 94.9326 518.139 95.2821C518.139 95.634 518.191 95.9562 518.296 96.2487C518.403 96.5412 518.566 96.7754 518.785 96.9514C519.006 97.1273 519.284 97.2153 519.619 97.2153ZM524.565 98V92.5214H525.589V93.4131H525.657C525.771 93.1111 525.958 92.8757 526.217 92.7069C526.476 92.5357 526.786 92.4501 527.148 92.4501C527.514 92.4501 527.821 92.5357 528.068 92.7069C528.318 92.8781 528.502 93.1135 528.621 93.4131H528.678C528.809 93.1206 529.017 92.8876 529.302 92.714C529.587 92.5381 529.927 92.4501 530.322 92.4501C530.819 92.4501 531.225 92.6058 531.538 92.9173C531.855 93.2288 532.013 93.6985 532.013 94.3262V98H530.946V94.4261C530.946 94.0551 530.845 93.7864 530.643 93.62C530.441 93.4535 530.2 93.3703 529.919 93.3703C529.572 93.3703 529.302 93.4773 529.109 93.6913C528.917 93.903 528.82 94.1752 528.82 94.5081V98H527.758V94.3583C527.758 94.0611 527.665 93.8221 527.479 93.6414C527.294 93.4607 527.053 93.3703 526.755 93.3703C526.553 93.3703 526.367 93.4238 526.195 93.5308C526.027 93.6355 525.89 93.7817 525.785 93.9695C525.683 94.1574 525.632 94.375 525.632 94.6223V98H524.565ZM534.647 98V92.5214H535.671V93.4131H535.739C535.853 93.1111 536.04 92.8757 536.299 92.7069C536.558 92.5357 536.868 92.4501 537.23 92.4501C537.596 92.4501 537.903 92.5357 538.15 92.7069C538.4 92.8781 538.584 93.1135 538.703 93.4131H538.76C538.891 93.1206 539.099 92.8876 539.384 92.714C539.669 92.5381 540.009 92.4501 540.404 92.4501C540.901 92.4501 541.307 92.6058 541.62 92.9173C541.937 93.2288 542.095 93.6985 542.095 94.3262V98H541.028V94.4261C541.028 94.0551 540.927 93.7864 540.725 93.62C540.523 93.4535 540.282 93.3703 540.001 93.3703C539.654 93.3703 539.384 93.4773 539.192 93.6913C538.999 93.903 538.903 94.1752 538.903 94.5081V98H537.84V94.3583C537.84 94.0611 537.747 93.8221 537.561 93.6414C537.376 93.4607 537.135 93.3703 536.837 93.3703C536.635 93.3703 536.449 93.4238 536.277 93.5308C536.109 93.6355 535.972 93.7817 535.867 93.9695C535.765 94.1574 535.714 94.375 535.714 94.6223V98H534.647ZM548.2 95.728V92.5214H549.27V98H548.221V97.0512H548.164C548.038 97.3437 547.836 97.5874 547.558 97.7824C547.282 97.975 546.939 98.0713 546.527 98.0713C546.175 98.0713 545.864 97.9941 545.593 97.8395C545.324 97.6826 545.112 97.4507 544.958 97.144C544.806 96.8372 544.73 96.458 544.73 96.0062V92.5214H545.796V95.8778C545.796 96.2511 545.899 96.5483 546.106 96.7695C546.313 96.9906 546.582 97.1012 546.912 97.1012C547.112 97.1012 547.311 97.0512 547.508 96.9514C547.708 96.8515 547.873 96.7005 548.004 96.4984C548.137 96.2963 548.202 96.0395 548.2 95.728ZM552.975 94.7471V98H551.908V92.5214H552.932V93.4131H553C553.126 93.123 553.323 92.89 553.592 92.714C553.863 92.5381 554.204 92.4501 554.615 92.4501C554.989 92.4501 555.316 92.5286 555.596 92.6855C555.877 92.8401 556.094 93.0707 556.249 93.3775C556.404 93.6842 556.481 94.0635 556.481 94.5153V98H555.414V94.6437C555.414 94.2466 555.311 93.9363 555.104 93.7127C554.897 93.4868 554.613 93.3739 554.252 93.3739C554.004 93.3739 553.784 93.4274 553.592 93.5344C553.402 93.6414 553.251 93.7983 553.139 94.0052C553.029 94.2097 552.975 94.457 552.975 94.7471ZM559.116 98V92.5214H560.183V98H559.116ZM559.655 91.6761C559.47 91.6761 559.31 91.6143 559.177 91.4906C559.046 91.3646 558.981 91.2148 558.981 91.0412C558.981 90.8653 559.046 90.7154 559.177 90.5918C559.31 90.4658 559.47 90.4028 559.655 90.4028C559.841 90.4028 559.999 90.4658 560.129 90.5918C560.263 90.7154 560.329 90.8653 560.329 91.0412C560.329 91.2148 560.263 91.3646 560.129 91.4906C559.999 91.6143 559.841 91.6761 559.655 91.6761ZM565.38 92.5214V93.3775H562.388V92.5214H565.38ZM563.19 91.2089H564.257V96.3914C564.257 96.5983 564.288 96.754 564.35 96.8586C564.411 96.9609 564.491 97.031 564.589 97.0691C564.688 97.1047 564.797 97.1226 564.913 97.1226C564.999 97.1226 565.074 97.1166 565.138 97.1047C565.202 97.0928 565.252 97.0833 565.288 97.0762L565.48 97.9572C565.418 97.981 565.33 98.0048 565.216 98.0285C565.102 98.0547 564.959 98.069 564.788 98.0713C564.508 98.0761 564.246 98.0262 564.004 97.9215C563.761 97.8169 563.565 97.6552 563.415 97.4364C563.265 97.2177 563.19 96.943 563.19 96.6125V91.2089ZM568.439 100.054C568.28 100.054 568.135 100.041 568.004 100.015C567.874 99.9915 567.776 99.9653 567.712 99.9368L567.969 99.0629C568.164 99.1152 568.337 99.1378 568.489 99.1307C568.642 99.1235 568.776 99.0665 568.892 98.9595C569.011 98.8525 569.116 98.6777 569.206 98.4351L569.338 98.0713L567.334 92.5214H568.475L569.863 96.773H569.92L571.307 92.5214H572.452L570.194 98.7312C570.09 99.0165 569.957 99.2579 569.795 99.4552C569.633 99.655 569.441 99.8048 569.217 99.9047C568.993 100.005 568.734 100.054 568.439 100.054ZM580.649 98.1034C580.159 98.1034 579.737 98.0143 579.383 97.8359C579.031 97.6576 578.76 97.415 578.569 97.1083C578.379 96.7992 578.284 96.4496 578.284 96.0597C578.284 95.7624 578.346 95.4985 578.47 95.2678C578.593 95.0348 578.766 94.8196 578.987 94.6223C579.208 94.4249 579.463 94.2263 579.754 94.0266L580.931 93.1955C581.13 93.0648 581.286 92.9269 581.398 92.7818C581.51 92.6344 581.566 92.4525 581.566 92.2361C581.566 92.0649 581.492 91.9008 581.344 91.7439C581.197 91.5869 581 91.5085 580.752 91.5085C580.581 91.5085 580.43 91.5501 580.299 91.6333C580.171 91.7165 580.07 91.8235 579.996 91.9543C579.925 92.0827 579.889 92.2183 579.889 92.3609C579.889 92.5274 579.934 92.695 580.025 92.8638C580.117 93.0327 580.236 93.2074 580.381 93.3882C580.526 93.5665 580.679 93.752 580.838 93.9446L584.23 98H583.024L580.217 94.7007C579.982 94.4225 579.763 94.161 579.561 93.916C579.359 93.6687 579.195 93.4191 579.069 93.167C578.945 92.9126 578.883 92.6379 578.883 92.3431C578.883 92.0078 578.959 91.7106 579.112 91.4514C579.266 91.1898 579.481 90.9853 579.757 90.8379C580.033 90.6905 580.356 90.6168 580.727 90.6168C581.103 90.6168 581.425 90.6905 581.694 90.8379C581.965 90.983 582.173 91.1768 582.318 91.4193C582.466 91.6595 582.539 91.9222 582.539 92.2076C582.539 92.5547 582.452 92.8615 582.279 93.1278C582.108 93.3917 581.871 93.6343 581.569 93.8554L580.103 94.9361C579.818 95.1454 579.619 95.3523 579.507 95.5568C579.398 95.7589 579.343 95.917 579.343 96.0311C579.343 96.2404 579.397 96.4342 579.504 96.6125C579.613 96.7909 579.765 96.9335 579.96 97.0405C580.158 97.1475 580.388 97.201 580.652 97.201C580.923 97.201 581.187 97.1428 581.444 97.0263C581.703 96.9074 581.938 96.7374 582.147 96.5162C582.359 96.2951 582.526 96.0299 582.65 95.7208C582.773 95.4117 582.835 95.0657 582.835 94.6829H583.798C583.798 95.1537 583.745 95.552 583.638 95.8778C583.531 96.2012 583.401 96.4651 583.249 96.6696C583.099 96.8717 582.958 97.0298 582.825 97.144C582.782 97.182 582.741 97.2201 582.703 97.2581C582.665 97.2962 582.625 97.3342 582.582 97.3722C582.335 97.6219 582.035 97.8062 581.683 97.9251C581.334 98.044 580.989 98.1034 580.649 98.1034ZM590.22 98V90.6952H594.799V91.644H591.322V93.8697H594.561V94.8149H591.322V97.0512H594.842V98H590.22ZM599.699 98.1106C599.169 98.1106 598.712 97.9905 598.329 97.7503C597.949 97.5078 597.656 97.1737 597.452 96.7481C597.247 96.3224 597.145 95.835 597.145 95.2857C597.145 94.7293 597.25 94.2382 597.459 93.8126C597.668 93.3846 597.963 93.0505 598.344 92.8103C598.724 92.5702 599.172 92.4501 599.688 92.4501C600.104 92.4501 600.475 92.5274 600.801 92.6819C601.127 92.8341 601.39 93.0481 601.589 93.324C601.792 93.5998 601.912 93.922 601.95 94.2906H600.912C600.855 94.0337 600.724 93.8126 600.519 93.6271C600.317 93.4417 600.046 93.3489 599.706 93.3489C599.409 93.3489 599.149 93.4274 598.925 93.5843C598.704 93.7389 598.532 93.96 598.408 94.2477C598.284 94.5331 598.222 94.8707 598.222 95.2607C598.222 95.6602 598.283 96.005 598.404 96.2951C598.526 96.5852 598.697 96.8099 598.918 96.9692C599.141 97.1285 599.404 97.2082 599.706 97.2082C599.908 97.2082 600.091 97.1713 600.255 97.0976C600.422 97.0215 600.561 96.9133 600.673 96.773C600.787 96.6327 600.867 96.4639 600.912 96.2665H601.95C601.912 96.6208 601.796 96.9371 601.604 97.2153C601.411 97.4935 601.153 97.7123 600.83 97.8716C600.509 98.0309 600.132 98.1106 599.699 98.1106ZM606.603 98.1106C606.09 98.1106 605.641 97.9929 605.258 97.7575C604.876 97.5221 604.578 97.1927 604.367 96.7695C604.155 96.3462 604.049 95.8516 604.049 95.2857C604.049 94.7174 604.155 94.2204 604.367 93.7948C604.578 93.3691 604.876 93.0386 605.258 92.8032C605.641 92.5678 606.09 92.4501 606.603 92.4501C607.117 92.4501 607.565 92.5678 607.948 92.8032C608.331 93.0386 608.628 93.3691 608.84 93.7948C609.051 94.2204 609.157 94.7174 609.157 95.2857C609.157 95.8516 609.051 96.3462 608.84 96.7695C608.628 97.1927 608.331 97.5221 607.948 97.7575C607.565 97.9929 607.117 98.1106 606.603 98.1106ZM606.607 97.2153C606.94 97.2153 607.215 97.1273 607.434 96.9514C607.653 96.7754 607.815 96.5412 607.919 96.2487C608.026 95.9562 608.08 95.634 608.08 95.2821C608.08 94.9326 608.026 94.6116 607.919 94.3191C607.815 94.0242 607.653 93.7876 607.434 93.6093C607.215 93.431 606.94 93.3418 606.607 93.3418C606.271 93.3418 605.993 93.431 605.772 93.6093C605.553 93.7876 605.39 94.0242 605.283 94.3191C605.179 94.6116 605.127 94.9326 605.127 95.2821C605.127 95.634 605.179 95.9562 605.283 96.2487C605.39 96.5412 605.553 96.7754 605.772 96.9514C605.993 97.1273 606.271 97.2153 606.607 97.2153ZM617.542 98.1034C617.052 98.1034 616.63 98.0143 616.276 97.8359C615.924 97.6576 615.653 97.415 615.462 97.1083C615.272 96.7992 615.177 96.4496 615.177 96.0597C615.177 95.7624 615.239 95.4985 615.363 95.2678C615.486 95.0348 615.659 94.8196 615.88 94.6223C616.101 94.4249 616.357 94.2263 616.647 94.0266L617.824 93.1955C618.023 93.0648 618.179 92.9269 618.291 92.7818C618.403 92.6344 618.459 92.4525 618.459 92.2361C618.459 92.0649 618.385 91.9008 618.237 91.7439C618.09 91.5869 617.893 91.5085 617.645 91.5085C617.474 91.5085 617.323 91.5501 617.192 91.6333C617.064 91.7165 616.963 91.8235 616.889 91.9543C616.818 92.0827 616.782 92.2183 616.782 92.3609C616.782 92.5274 616.827 92.695 616.918 92.8638C617.01 93.0327 617.129 93.2074 617.274 93.3882C617.419 93.5665 617.572 93.752 617.731 93.9446L621.123 98H619.917L617.11 94.7007C616.875 94.4225 616.656 94.161 616.454 93.916C616.252 93.6687 616.088 93.4191 615.962 93.167C615.838 92.9126 615.776 92.6379 615.776 92.3431C615.776 92.0078 615.852 91.7106 616.005 91.4514C616.159 91.1898 616.374 90.9853 616.65 90.8379C616.926 90.6905 617.249 90.6168 617.62 90.6168C617.996 90.6168 618.318 90.6905 618.587 90.8379C618.858 90.983 619.066 91.1768 619.211 91.4193C619.359 91.6595 619.432 91.9222 619.432 92.2076C619.432 92.5547 619.345 92.8615 619.172 93.1278C619.001 93.3917 618.764 93.6343 618.462 93.8554L616.996 94.9361C616.711 95.1454 616.512 95.3523 616.401 95.5568C616.291 95.7589 616.236 95.917 616.236 96.0311C616.236 96.2404 616.29 96.4342 616.397 96.6125C616.506 96.7909 616.659 96.9335 616.854 97.0405C617.051 97.1475 617.282 97.201 617.545 97.201C617.817 97.201 618.08 97.1428 618.337 97.0263C618.596 96.9074 618.831 96.7374 619.04 96.5162C619.252 96.2951 619.419 96.0299 619.543 95.7208C619.667 95.4117 619.728 95.0657 619.728 94.6829H620.691C620.691 95.1537 620.638 95.552 620.531 95.8778C620.424 96.2012 620.294 96.4651 620.142 96.6696C619.992 96.8717 619.851 97.0298 619.718 97.144C619.675 97.182 619.634 97.2201 619.596 97.2581C619.558 97.2962 619.518 97.3342 619.475 97.3722C619.228 97.6219 618.928 97.8062 618.576 97.9251C618.227 98.044 617.882 98.1034 617.542 98.1034ZM627.113 98V90.6952H631.643V91.644H628.215V93.8697H631.318V94.8149H628.215V98H627.113ZM636.023 98.1106C635.51 98.1106 635.061 97.9929 634.679 97.7575C634.296 97.5221 633.998 97.1927 633.787 96.7695C633.575 96.3462 633.469 95.8516 633.469 95.2857C633.469 94.7174 633.575 94.2204 633.787 93.7948C633.998 93.3691 634.296 93.0386 634.679 92.8032C635.061 92.5678 635.51 92.4501 636.023 92.4501C636.537 92.4501 636.985 92.5678 637.368 92.8032C637.751 93.0386 638.048 93.3691 638.26 93.7948C638.471 94.2204 638.577 94.7174 638.577 95.2857C638.577 95.8516 638.471 96.3462 638.26 96.7695C638.048 97.1927 637.751 97.5221 637.368 97.7575C636.985 97.9929 636.537 98.1106 636.023 98.1106ZM636.027 97.2153C636.36 97.2153 636.635 97.1273 636.854 96.9514C637.073 96.7754 637.235 96.5412 637.339 96.2487C637.446 95.9562 637.5 95.634 637.5 95.2821C637.5 94.9326 637.446 94.6116 637.339 94.3191C637.235 94.0242 637.073 93.7876 636.854 93.6093C636.635 93.431 636.36 93.3418 636.027 93.3418C635.691 93.3418 635.413 93.431 635.192 93.6093C634.973 93.7876 634.81 94.0242 634.703 94.3191C634.599 94.6116 634.547 94.9326 634.547 95.2821C634.547 95.634 634.599 95.9562 634.703 96.2487C634.81 96.5412 634.973 96.7754 635.192 96.9514C635.413 97.1273 635.691 97.2153 636.027 97.2153ZM644.443 95.728V92.5214H645.513V98H644.465V97.0512H644.408C644.281 97.3437 644.079 97.5874 643.801 97.7824C643.525 97.975 643.182 98.0713 642.77 98.0713C642.418 98.0713 642.107 97.9941 641.836 97.8395C641.567 97.6826 641.356 97.4507 641.201 97.144C641.049 96.8372 640.973 96.458 640.973 96.0062V92.5214H642.039V95.8778C642.039 96.2511 642.143 96.5483 642.349 96.7695C642.556 96.9906 642.825 97.1012 643.156 97.1012C643.355 97.1012 643.554 97.0512 643.751 96.9514C643.951 96.8515 644.116 96.7005 644.247 96.4984C644.38 96.2963 644.446 96.0395 644.443 95.728ZM649.218 94.7471V98H648.151V92.5214H649.175V93.4131H649.243C649.369 93.123 649.566 92.89 649.835 92.714C650.106 92.5381 650.447 92.4501 650.859 92.4501C651.232 92.4501 651.559 92.5286 651.839 92.6855C652.12 92.8401 652.338 93.0707 652.492 93.3775C652.647 93.6842 652.724 94.0635 652.724 94.5153V98H651.658V94.6437C651.658 94.2466 651.554 93.9363 651.347 93.7127C651.14 93.4868 650.856 93.3739 650.495 93.3739C650.248 93.3739 650.028 93.4274 649.835 93.5344C649.645 93.6414 649.494 93.7983 649.382 94.0052C649.273 94.2097 649.218 94.457 649.218 94.7471ZM657.411 98.107C656.968 98.107 656.574 97.9941 656.226 97.7682C655.882 97.5399 655.61 97.2153 655.413 96.7944C655.218 96.3712 655.121 95.8635 655.121 95.2714C655.121 94.6793 655.219 94.1728 655.417 93.752C655.616 93.3311 655.89 93.0089 656.237 92.7854C656.584 92.5619 656.978 92.4501 657.418 92.4501C657.758 92.4501 658.031 92.5072 658.238 92.6213C658.447 92.7331 658.609 92.8638 658.723 93.0136C658.84 93.1634 658.93 93.2954 658.994 93.4096H659.058V90.6952H660.125V98H659.083V97.1475H658.994C658.93 97.2641 658.837 97.3972 658.716 97.547C658.597 97.6968 658.433 97.8276 658.224 97.9394C658.014 98.0511 657.743 98.107 657.411 98.107ZM657.646 97.1975C657.953 97.1975 658.212 97.1166 658.423 96.9549C658.637 96.7909 658.799 96.5638 658.909 96.2737C659.02 95.9836 659.076 95.6459 659.076 95.2607C659.076 94.8803 659.022 94.5474 658.912 94.262C658.803 93.9767 658.642 93.7543 658.431 93.595C658.219 93.4357 657.957 93.3561 657.646 93.3561C657.325 93.3561 657.057 93.4393 656.843 93.6057C656.629 93.7722 656.468 93.9993 656.358 94.287C656.251 94.5747 656.198 94.8993 656.198 95.2607C656.198 95.6269 656.253 95.9562 656.362 96.2487C656.471 96.5412 656.633 96.773 656.847 96.9442C657.063 97.1131 657.33 97.1975 657.646 97.1975ZM664.447 98.1213C664.099 98.1213 663.786 98.0571 663.505 97.9287C663.224 97.7979 663.002 97.6088 662.838 97.3615C662.676 97.1143 662.595 96.8111 662.595 96.452C662.595 96.1429 662.655 95.8885 662.774 95.6887C662.893 95.489 663.053 95.3309 663.255 95.2143C663.457 95.0978 663.683 95.0099 663.933 94.9504C664.183 94.891 664.437 94.8458 664.696 94.8149C665.024 94.7768 665.291 94.7459 665.495 94.7221C665.7 94.696 665.848 94.6544 665.941 94.5973C666.034 94.5402 666.08 94.4475 666.08 94.3191V94.2941C666.08 93.9826 665.992 93.7413 665.816 93.5701C665.643 93.3989 665.383 93.3133 665.039 93.3133C664.68 93.3133 664.397 93.3929 664.19 93.5522C663.985 93.7092 663.844 93.8839 663.765 94.0765L662.763 93.8483C662.882 93.5154 663.056 93.2467 663.284 93.0422C663.514 92.8353 663.78 92.6855 664.079 92.5928C664.379 92.4977 664.694 92.4501 665.024 92.4501C665.243 92.4501 665.475 92.4762 665.72 92.5286C665.967 92.5785 666.198 92.6712 666.412 92.8068C666.628 92.9423 666.805 93.1361 666.943 93.3882C667.081 93.6378 667.15 93.9624 667.15 94.3619V98H666.109V97.251H666.066C665.997 97.3889 665.894 97.5244 665.756 97.6576C665.618 97.7907 665.441 97.9013 665.224 97.9893C665.008 98.0773 664.749 98.1213 664.447 98.1213ZM664.678 97.2652C664.973 97.2652 665.225 97.207 665.435 97.0905C665.646 96.974 665.807 96.8218 665.916 96.6339C666.028 96.4437 666.084 96.2404 666.084 96.024V95.3178C666.046 95.3558 665.972 95.3915 665.863 95.4248C665.756 95.4557 665.633 95.483 665.495 95.5068C665.357 95.5282 665.223 95.5484 665.092 95.5675C664.961 95.5841 664.852 95.5984 664.764 95.6103C664.557 95.6364 664.368 95.6804 664.197 95.7422C664.028 95.8041 663.893 95.8932 663.79 96.0097C663.69 96.1239 663.64 96.2761 663.64 96.4663C663.64 96.7302 663.738 96.93 663.933 97.0655C664.128 97.1987 664.376 97.2652 664.678 97.2652ZM672.333 92.5214V93.3775H669.341V92.5214H672.333ZM670.143 91.2089H671.21V96.3914C671.21 96.5983 671.241 96.754 671.303 96.8586C671.364 96.9609 671.444 97.031 671.542 97.0691C671.641 97.1047 671.75 97.1226 671.866 97.1226C671.952 97.1226 672.027 97.1166 672.091 97.1047C672.155 97.0928 672.205 97.0833 672.241 97.0762L672.433 97.9572C672.371 97.981 672.283 98.0048 672.169 98.0285C672.055 98.0547 671.912 98.069 671.741 98.0713C671.461 98.0761 671.199 98.0262 670.957 97.9215C670.714 97.8169 670.518 97.6552 670.368 97.4364C670.218 97.2177 670.143 96.943 670.143 96.6125V91.2089ZM674.718 98V92.5214H675.785V98H674.718ZM675.257 91.6761C675.071 91.6761 674.912 91.6143 674.779 91.4906C674.648 91.3646 674.583 91.2148 674.583 91.0412C674.583 90.8653 674.648 90.7154 674.779 90.5918C674.912 90.4658 675.071 90.4028 675.257 90.4028C675.442 90.4028 675.601 90.4658 675.731 90.5918C675.864 90.7154 675.931 90.8653 675.931 91.0412C675.931 91.2148 675.864 91.3646 675.731 91.4906C675.601 91.6143 675.442 91.6761 675.257 91.6761ZM680.733 98.1106C680.219 98.1106 679.771 97.9929 679.388 97.7575C679.005 97.5221 678.708 97.1927 678.496 96.7695C678.285 96.3462 678.179 95.8516 678.179 95.2857C678.179 94.7174 678.285 94.2204 678.496 93.7948C678.708 93.3691 679.005 93.0386 679.388 92.8032C679.771 92.5678 680.219 92.4501 680.733 92.4501C681.246 92.4501 681.694 92.5678 682.077 92.8032C682.46 93.0386 682.757 93.3691 682.969 93.7948C683.181 94.2204 683.286 94.7174 683.286 95.2857C683.286 95.8516 683.181 96.3462 682.969 96.7695C682.757 97.1927 682.46 97.5221 682.077 97.7575C681.694 97.9929 681.246 98.1106 680.733 98.1106ZM680.736 97.2153C681.069 97.2153 681.345 97.1273 681.564 96.9514C681.782 96.7754 681.944 96.5412 682.049 96.2487C682.156 95.9562 682.209 95.634 682.209 95.2821C682.209 94.9326 682.156 94.6116 682.049 94.3191C681.944 94.0242 681.782 93.7876 681.564 93.6093C681.345 93.431 681.069 93.3418 680.736 93.3418C680.401 93.3418 680.123 93.431 679.901 93.6093C679.683 93.7876 679.52 94.0242 679.413 94.3191C679.308 94.6116 679.256 94.9326 679.256 95.2821C679.256 95.634 679.308 95.9562 679.413 96.2487C679.52 96.5412 679.683 96.7754 679.901 96.9514C680.123 97.1273 680.401 97.2153 680.736 97.2153ZM686.749 94.7471V98H685.682V92.5214H686.706V93.4131H686.773C686.9 93.123 687.097 92.89 687.366 92.714C687.637 92.5381 687.978 92.4501 688.389 92.4501C688.763 92.4501 689.09 92.5286 689.37 92.6855C689.651 92.8401 689.868 93.0707 690.023 93.3775C690.177 93.6842 690.255 94.0635 690.255 94.5153V98H689.188V94.6437C689.188 94.2466 689.085 93.9363 688.878 93.7127C688.671 93.4868 688.387 93.3739 688.025 93.3739C687.778 93.3739 687.558 93.4274 687.366 93.5344C687.175 93.6414 687.024 93.7983 686.913 94.0052C686.803 94.2097 686.749 94.457 686.749 94.7471Z" fill="black"/>
<path d="M508.803 123V115.695H511.406C511.975 115.695 512.445 115.799 512.819 116.006C513.192 116.212 513.471 116.495 513.657 116.854C513.842 117.211 513.935 117.613 513.935 118.06C513.935 118.509 513.841 118.914 513.653 119.273C513.468 119.629 513.187 119.912 512.812 120.122C512.438 120.328 511.969 120.432 511.403 120.432H509.612V119.497H511.303C511.662 119.497 511.953 119.436 512.177 119.312C512.4 119.186 512.564 119.015 512.669 118.798C512.774 118.582 512.826 118.336 512.826 118.06C512.826 117.784 512.774 117.539 512.669 117.325C512.564 117.111 512.399 116.944 512.173 116.822C511.95 116.701 511.655 116.64 511.289 116.64H509.905V123H508.803ZM516.347 123V117.521H517.378V118.392H517.435C517.535 118.097 517.711 117.865 517.963 117.696C518.217 117.525 518.505 117.439 518.826 117.439C518.892 117.439 518.971 117.442 519.061 117.447C519.154 117.451 519.226 117.457 519.279 117.464V118.484C519.236 118.473 519.16 118.459 519.05 118.445C518.941 118.429 518.832 118.42 518.722 118.42C518.47 118.42 518.246 118.474 518.048 118.581C517.853 118.685 517.699 118.832 517.585 119.019C517.47 119.205 517.413 119.417 517.413 119.654V123H516.347ZM521.407 123V117.521H522.473V123H521.407ZM521.946 116.676C521.76 116.676 521.601 116.614 521.468 116.491C521.337 116.365 521.271 116.215 521.271 116.041C521.271 115.865 521.337 115.715 521.468 115.592C521.601 115.466 521.76 115.403 521.946 115.403C522.131 115.403 522.289 115.466 522.42 115.592C522.553 115.715 522.62 115.865 522.62 116.041C522.62 116.215 522.553 116.365 522.42 116.491C522.289 116.614 522.131 116.676 521.946 116.676ZM529.8 117.521L527.813 123H526.672L524.682 117.521H525.827L527.214 121.737H527.271L528.655 117.521H529.8ZM533.445 123.121C533.098 123.121 532.784 123.057 532.504 122.929C532.223 122.798 532.001 122.609 531.837 122.362C531.675 122.114 531.594 121.811 531.594 121.452C531.594 121.143 531.653 120.888 531.772 120.689C531.891 120.489 532.052 120.331 532.254 120.214C532.456 120.098 532.682 120.01 532.932 119.95C533.181 119.891 533.436 119.846 533.695 119.815C534.023 119.777 534.289 119.746 534.494 119.722C534.698 119.696 534.847 119.654 534.94 119.597C535.032 119.54 535.079 119.447 535.079 119.319V119.294C535.079 118.983 534.991 118.741 534.815 118.57C534.641 118.399 534.382 118.313 534.037 118.313C533.678 118.313 533.395 118.393 533.188 118.552C532.984 118.709 532.842 118.884 532.764 119.077L531.762 118.848C531.881 118.515 532.054 118.247 532.282 118.042C532.513 117.835 532.778 117.686 533.078 117.593C533.377 117.498 533.692 117.45 534.023 117.45C534.242 117.45 534.474 117.476 534.718 117.529C534.966 117.578 535.196 117.671 535.41 117.807C535.627 117.942 535.804 118.136 535.942 118.388C536.08 118.638 536.149 118.962 536.149 119.362V123H535.107V122.251H535.064C534.996 122.389 534.892 122.524 534.754 122.658C534.616 122.791 534.439 122.901 534.223 122.989C534.006 123.077 533.747 123.121 533.445 123.121ZM533.677 122.265C533.972 122.265 534.224 122.207 534.433 122.09C534.645 121.974 534.805 121.822 534.915 121.634C535.026 121.444 535.082 121.24 535.082 121.024V120.318C535.044 120.356 534.971 120.391 534.861 120.425C534.754 120.456 534.632 120.483 534.494 120.507C534.356 120.528 534.222 120.548 534.091 120.567C533.96 120.584 533.851 120.598 533.763 120.61C533.556 120.636 533.367 120.68 533.195 120.742C533.027 120.804 532.891 120.893 532.789 121.01C532.689 121.124 532.639 121.276 532.639 121.466C532.639 121.73 532.737 121.93 532.932 122.066C533.127 122.199 533.375 122.265 533.677 122.265ZM541.332 117.521V118.377H538.339V117.521H541.332ZM539.142 116.209H540.208V121.391C540.208 121.598 540.239 121.754 540.301 121.859C540.363 121.961 540.443 122.031 540.54 122.069C540.64 122.105 540.748 122.123 540.865 122.123C540.95 122.123 541.025 122.117 541.089 122.105C541.154 122.093 541.203 122.083 541.239 122.076L541.432 122.957C541.37 122.981 541.282 123.005 541.168 123.029C541.054 123.055 540.911 123.069 540.74 123.071C540.459 123.076 540.198 123.026 539.955 122.922C539.713 122.817 539.516 122.655 539.367 122.436C539.217 122.218 539.142 121.943 539.142 121.613V116.209ZM546.019 123.111C545.479 123.111 545.015 122.995 544.625 122.765C544.237 122.532 543.937 122.205 543.726 121.784C543.517 121.36 543.412 120.865 543.412 120.296C543.412 119.735 543.517 119.241 543.726 118.813C543.937 118.385 544.232 118.051 544.61 117.81C544.991 117.57 545.435 117.45 545.944 117.45C546.253 117.45 546.553 117.501 546.843 117.603C547.133 117.706 547.394 117.866 547.624 118.085C547.855 118.304 548.037 118.588 548.17 118.937C548.303 119.285 548.37 119.707 548.37 120.204V120.582H544.015V119.783H547.325C547.325 119.502 547.268 119.254 547.153 119.037C547.039 118.819 546.879 118.646 546.672 118.52C546.467 118.394 546.227 118.331 545.951 118.331C545.652 118.331 545.39 118.405 545.167 118.552C544.946 118.697 544.774 118.888 544.653 119.123C544.534 119.356 544.475 119.609 544.475 119.883V120.507C544.475 120.873 544.539 121.185 544.667 121.441C544.798 121.698 544.98 121.894 545.213 122.03C545.446 122.163 545.718 122.23 546.03 122.23C546.232 122.23 546.416 122.201 546.583 122.144C546.749 122.085 546.893 121.997 547.014 121.88C547.136 121.764 547.228 121.62 547.293 121.448L548.302 121.63C548.221 121.928 548.076 122.188 547.867 122.411C547.66 122.633 547.4 122.805 547.086 122.929C546.774 123.05 546.419 123.111 546.019 123.111ZM558.691 117.614C558.653 117.277 558.496 117.015 558.221 116.829C557.945 116.642 557.598 116.548 557.179 116.548C556.88 116.548 556.62 116.595 556.402 116.69C556.183 116.783 556.013 116.912 555.892 117.076C555.773 117.237 555.713 117.422 555.713 117.628C555.713 117.802 555.754 117.952 555.834 118.078C555.918 118.204 556.026 118.31 556.159 118.395C556.295 118.479 556.44 118.549 556.594 118.606C556.749 118.66 556.897 118.706 557.04 118.741L557.753 118.927C557.986 118.984 558.225 119.061 558.47 119.159C558.715 119.256 558.942 119.384 559.152 119.544C559.361 119.703 559.53 119.9 559.658 120.136C559.789 120.371 559.854 120.653 559.854 120.981C559.854 121.395 559.747 121.762 559.533 122.083C559.322 122.404 559.014 122.658 558.609 122.843C558.208 123.029 557.721 123.121 557.151 123.121C556.604 123.121 556.13 123.034 555.731 122.861C555.332 122.687 555.019 122.441 554.793 122.123C554.567 121.802 554.442 121.421 554.418 120.981H555.524C555.546 121.245 555.631 121.465 555.781 121.641C555.933 121.815 556.127 121.944 556.362 122.03C556.6 122.113 556.86 122.155 557.143 122.155C557.455 122.155 557.732 122.106 557.975 122.008C558.219 121.909 558.412 121.771 558.552 121.595C558.693 121.416 558.763 121.208 558.763 120.971C558.763 120.754 558.701 120.577 558.577 120.439C558.456 120.301 558.291 120.187 558.082 120.097C557.875 120.006 557.64 119.927 557.379 119.858L556.516 119.622C555.931 119.463 555.467 119.229 555.125 118.92C554.785 118.61 554.615 118.201 554.615 117.693C554.615 117.272 554.729 116.904 554.957 116.59C555.185 116.277 555.494 116.033 555.884 115.859C556.274 115.683 556.714 115.595 557.204 115.595C557.699 115.595 558.135 115.682 558.513 115.856C558.894 116.029 559.193 116.268 559.412 116.573C559.631 116.875 559.745 117.222 559.754 117.614H558.691ZM563.885 123.121C563.538 123.121 563.224 123.057 562.944 122.929C562.663 122.798 562.441 122.609 562.277 122.362C562.115 122.114 562.034 121.811 562.034 121.452C562.034 121.143 562.094 120.888 562.212 120.689C562.331 120.489 562.492 120.331 562.694 120.214C562.896 120.098 563.122 120.01 563.372 119.95C563.621 119.891 563.876 119.846 564.135 119.815C564.463 119.777 564.729 119.746 564.934 119.722C565.138 119.696 565.287 119.654 565.38 119.597C565.472 119.54 565.519 119.447 565.519 119.319V119.294C565.519 118.983 565.431 118.741 565.255 118.57C565.081 118.399 564.822 118.313 564.477 118.313C564.118 118.313 563.835 118.393 563.628 118.552C563.424 118.709 563.282 118.884 563.204 119.077L562.202 118.848C562.321 118.515 562.494 118.247 562.723 118.042C562.953 117.835 563.218 117.686 563.518 117.593C563.818 117.498 564.133 117.45 564.463 117.45C564.682 117.45 564.914 117.476 565.159 117.529C565.406 117.578 565.637 117.671 565.851 117.807C566.067 117.942 566.244 118.136 566.382 118.388C566.52 118.638 566.589 118.962 566.589 119.362V123H565.547V122.251H565.505C565.436 122.389 565.332 122.524 565.194 122.658C565.056 122.791 564.879 122.901 564.663 122.989C564.446 123.077 564.187 123.121 563.885 123.121ZM564.117 122.265C564.412 122.265 564.664 122.207 564.873 122.09C565.085 121.974 565.245 121.822 565.355 121.634C565.467 121.444 565.522 121.24 565.522 121.024V120.318C565.484 120.356 565.411 120.391 565.301 120.425C565.194 120.456 565.072 120.483 564.934 120.507C564.796 120.528 564.662 120.548 564.531 120.567C564.4 120.584 564.291 120.598 564.203 120.61C563.996 120.636 563.807 120.68 563.636 120.742C563.467 120.804 563.331 120.893 563.229 121.01C563.129 121.124 563.079 121.276 563.079 121.466C563.079 121.73 563.177 121.93 563.372 122.066C563.567 122.199 563.815 122.265 564.117 122.265ZM570.281 115.695V123H569.215V115.695H570.281ZM575.282 123.111C574.743 123.111 574.278 122.995 573.888 122.765C573.5 122.532 573.201 122.205 572.989 121.784C572.78 121.36 572.675 120.865 572.675 120.296C572.675 119.735 572.78 119.241 572.989 118.813C573.201 118.385 573.495 118.051 573.873 117.81C574.254 117.57 574.699 117.45 575.207 117.45C575.517 117.45 575.816 117.501 576.106 117.603C576.396 117.706 576.657 117.866 576.887 118.085C577.118 118.304 577.3 118.588 577.433 118.937C577.566 119.285 577.633 119.707 577.633 120.204V120.582H573.278V119.783H576.588C576.588 119.502 576.531 119.254 576.417 119.037C576.302 118.819 576.142 118.646 575.935 118.52C575.731 118.394 575.49 118.331 575.215 118.331C574.915 118.331 574.653 118.405 574.43 118.552C574.209 118.697 574.038 118.888 573.916 119.123C573.797 119.356 573.738 119.609 573.738 119.883V120.507C573.738 120.873 573.802 121.185 573.931 121.441C574.061 121.698 574.243 121.894 574.476 122.03C574.709 122.163 574.982 122.23 575.293 122.23C575.495 122.23 575.679 122.201 575.846 122.144C576.012 122.085 576.156 121.997 576.277 121.88C576.399 121.764 576.491 121.62 576.556 121.448L577.565 121.63C577.484 121.928 577.339 122.188 577.13 122.411C576.923 122.633 576.663 122.805 576.349 122.929C576.037 123.05 575.682 123.111 575.282 123.111Z" fill="black"/>
<path d="M508.442 139.644V138.695H514.096V139.644H511.816V146H510.718V139.644H508.442ZM518.031 146.111C517.492 146.111 517.027 145.995 516.637 145.765C516.249 145.532 515.949 145.205 515.738 144.784C515.529 144.36 515.424 143.865 515.424 143.296C515.424 142.735 515.529 142.241 515.738 141.813C515.949 141.385 516.244 141.051 516.622 140.81C517.003 140.57 517.448 140.45 517.956 140.45C518.265 140.45 518.565 140.501 518.855 140.603C519.145 140.706 519.406 140.866 519.636 141.085C519.867 141.304 520.049 141.588 520.182 141.937C520.315 142.285 520.382 142.707 520.382 143.204V143.582H516.027V142.783H519.337C519.337 142.502 519.28 142.254 519.166 142.037C519.051 141.819 518.891 141.646 518.684 141.52C518.48 141.394 518.239 141.331 517.964 141.331C517.664 141.331 517.402 141.405 517.179 141.552C516.958 141.697 516.786 141.888 516.665 142.123C516.546 142.356 516.487 142.609 516.487 142.883V143.507C516.487 143.873 516.551 144.185 516.679 144.441C516.81 144.698 516.992 144.894 517.225 145.03C517.458 145.163 517.73 145.23 518.042 145.23C518.244 145.23 518.428 145.201 518.595 145.144C518.761 145.085 518.905 144.997 519.026 144.88C519.148 144.764 519.24 144.62 519.305 144.448L520.314 144.63C520.233 144.928 520.088 145.188 519.879 145.411C519.672 145.633 519.412 145.805 519.098 145.929C518.786 146.05 518.431 146.111 518.031 146.111ZM524.365 146.121C524.018 146.121 523.704 146.057 523.423 145.929C523.142 145.798 522.92 145.609 522.756 145.362C522.594 145.114 522.514 144.811 522.514 144.452C522.514 144.143 522.573 143.888 522.692 143.689C522.811 143.489 522.971 143.331 523.173 143.214C523.376 143.098 523.601 143.01 523.851 142.95C524.101 142.891 524.355 142.846 524.614 142.815C524.943 142.777 525.209 142.746 525.413 142.722C525.618 142.696 525.766 142.654 525.859 142.597C525.952 142.54 525.998 142.447 525.998 142.319V142.294C525.998 141.983 525.91 141.741 525.734 141.57C525.561 141.399 525.302 141.313 524.957 141.313C524.598 141.313 524.315 141.393 524.108 141.552C523.903 141.709 523.762 141.884 523.683 142.077L522.681 141.848C522.8 141.515 522.974 141.247 523.202 141.042C523.433 140.835 523.698 140.686 523.997 140.593C524.297 140.498 524.612 140.45 524.943 140.45C525.161 140.45 525.393 140.476 525.638 140.529C525.885 140.578 526.116 140.671 526.33 140.807C526.546 140.942 526.724 141.136 526.861 141.388C526.999 141.638 527.068 141.962 527.068 142.362V146H526.027V145.251H525.984C525.915 145.389 525.812 145.524 525.674 145.658C525.536 145.791 525.359 145.901 525.142 145.989C524.926 146.077 524.667 146.121 524.365 146.121ZM524.597 145.265C524.891 145.265 525.143 145.207 525.353 145.09C525.564 144.974 525.725 144.822 525.834 144.634C525.946 144.444 526.002 144.24 526.002 144.024V143.318C525.964 143.356 525.89 143.391 525.781 143.425C525.674 143.456 525.551 143.483 525.413 143.507C525.275 143.528 525.141 143.548 525.01 143.567C524.88 143.584 524.77 143.598 524.682 143.61C524.475 143.636 524.286 143.68 524.115 143.742C523.946 143.804 523.811 143.893 523.708 144.01C523.609 144.124 523.559 144.276 523.559 144.466C523.559 144.73 523.656 144.93 523.851 145.066C524.046 145.199 524.295 145.265 524.597 145.265ZM529.694 146V140.521H530.718V141.413H530.786C530.9 141.111 531.086 140.876 531.345 140.707C531.605 140.536 531.915 140.45 532.276 140.45C532.643 140.45 532.949 140.536 533.197 140.707C533.446 140.878 533.631 141.114 533.749 141.413H533.807C533.937 141.121 534.145 140.888 534.431 140.714C534.716 140.538 535.056 140.45 535.451 140.45C535.948 140.45 536.353 140.606 536.667 140.917C536.983 141.229 537.142 141.698 537.142 142.326V146H536.075V142.426C536.075 142.055 535.974 141.786 535.772 141.62C535.57 141.454 535.328 141.37 535.048 141.37C534.701 141.37 534.431 141.477 534.238 141.691C534.046 141.903 533.949 142.175 533.949 142.508V146H532.886V142.358C532.886 142.061 532.794 141.822 532.608 141.641C532.423 141.461 532.181 141.37 531.884 141.37C531.682 141.37 531.495 141.424 531.324 141.531C531.155 141.635 531.019 141.782 530.914 141.97C530.812 142.157 530.761 142.375 530.761 142.622V146H529.694Z" fill="black"/>
<path d="M512.787 164.614C512.749 164.277 512.592 164.015 512.316 163.829C512.04 163.642 511.693 163.548 511.274 163.548C510.975 163.548 510.716 163.595 510.497 163.69C510.278 163.783 510.108 163.912 509.987 164.076C509.868 164.237 509.808 164.422 509.808 164.628C509.808 164.802 509.849 164.952 509.93 165.078C510.013 165.204 510.121 165.31 510.254 165.395C510.39 165.479 510.535 165.549 510.689 165.606C510.844 165.66 510.993 165.706 511.135 165.741L511.849 165.927C512.082 165.984 512.321 166.061 512.565 166.159C512.81 166.256 513.037 166.384 513.247 166.544C513.456 166.703 513.625 166.9 513.753 167.136C513.884 167.371 513.949 167.653 513.949 167.981C513.949 168.395 513.842 168.762 513.628 169.083C513.417 169.404 513.109 169.658 512.705 169.843C512.303 170.029 511.816 170.121 511.246 170.121C510.699 170.121 510.226 170.034 509.826 169.861C509.427 169.687 509.114 169.441 508.888 169.123C508.662 168.802 508.537 168.421 508.514 167.981H509.619C509.641 168.245 509.726 168.465 509.876 168.641C510.028 168.815 510.222 168.944 510.458 169.03C510.695 169.113 510.956 169.155 511.239 169.155C511.55 169.155 511.827 169.106 512.07 169.008C512.315 168.909 512.507 168.771 512.648 168.595C512.788 168.416 512.858 168.208 512.858 167.971C512.858 167.754 512.796 167.577 512.672 167.439C512.551 167.301 512.386 167.187 512.177 167.097C511.97 167.006 511.736 166.927 511.474 166.858L510.611 166.622C510.026 166.463 509.562 166.229 509.22 165.92C508.88 165.61 508.71 165.201 508.71 164.693C508.71 164.272 508.824 163.904 509.052 163.59C509.28 163.277 509.59 163.033 509.98 162.859C510.37 162.683 510.809 162.595 511.299 162.595C511.794 162.595 512.23 162.682 512.608 162.856C512.989 163.029 513.288 163.268 513.507 163.573C513.726 163.875 513.84 164.222 513.85 164.614H512.787ZM518.943 164.521V165.377H515.951V164.521H518.943ZM516.753 163.209H517.82V168.391C517.82 168.598 517.851 168.754 517.913 168.859C517.975 168.961 518.054 169.031 518.152 169.069C518.252 169.105 518.36 169.123 518.476 169.123C518.562 169.123 518.637 169.117 518.701 169.105C518.765 169.093 518.815 169.083 518.851 169.076L519.043 169.957C518.982 169.981 518.894 170.005 518.779 170.029C518.665 170.055 518.523 170.069 518.351 170.071C518.071 170.076 517.809 170.026 517.567 169.922C517.324 169.817 517.128 169.655 516.978 169.436C516.828 169.218 516.753 168.943 516.753 168.613V163.209ZM521.328 170V164.521H522.359V165.392H522.416C522.516 165.097 522.692 164.865 522.944 164.696C523.199 164.525 523.486 164.439 523.807 164.439C523.874 164.439 523.952 164.442 524.043 164.447C524.136 164.451 524.208 164.457 524.26 164.464V165.484C524.218 165.473 524.141 165.459 524.032 165.445C523.923 165.429 523.813 165.42 523.704 165.42C523.452 165.42 523.227 165.474 523.03 165.581C522.835 165.685 522.68 165.832 522.566 166.019C522.452 166.205 522.395 166.417 522.395 166.654V170H521.328ZM527.934 170.121C527.587 170.121 527.273 170.057 526.992 169.929C526.712 169.798 526.489 169.609 526.325 169.362C526.164 169.114 526.083 168.811 526.083 168.452C526.083 168.143 526.142 167.888 526.261 167.689C526.38 167.489 526.54 167.331 526.743 167.214C526.945 167.098 527.171 167.01 527.42 166.95C527.67 166.891 527.924 166.846 528.184 166.815C528.512 166.777 528.778 166.746 528.983 166.722C529.187 166.696 529.336 166.654 529.428 166.597C529.521 166.54 529.567 166.447 529.567 166.319V166.294C529.567 165.983 529.479 165.741 529.304 165.57C529.13 165.399 528.871 165.313 528.526 165.313C528.167 165.313 527.884 165.393 527.677 165.552C527.473 165.709 527.331 165.884 527.253 166.077L526.25 165.848C526.369 165.515 526.543 165.247 526.771 165.042C527.002 164.835 527.267 164.686 527.566 164.593C527.866 164.498 528.181 164.45 528.512 164.45C528.73 164.45 528.962 164.476 529.207 164.529C529.455 164.578 529.685 164.671 529.899 164.807C530.116 164.942 530.293 165.136 530.431 165.388C530.569 165.638 530.637 165.962 530.637 166.362V170H529.596V169.251H529.553C529.484 169.389 529.381 169.524 529.243 169.658C529.105 169.791 528.928 169.901 528.711 169.989C528.495 170.077 528.236 170.121 527.934 170.121ZM528.166 169.265C528.461 169.265 528.713 169.207 528.922 169.09C529.133 168.974 529.294 168.822 529.403 168.634C529.515 168.444 529.571 168.24 529.571 168.024V167.318C529.533 167.356 529.459 167.391 529.35 167.425C529.243 167.456 529.12 167.483 528.983 167.507C528.845 167.528 528.71 167.548 528.579 167.567C528.449 167.584 528.339 167.598 528.251 167.61C528.044 167.636 527.855 167.68 527.684 167.742C527.515 167.804 527.38 167.893 527.278 168.01C527.178 168.124 527.128 168.276 527.128 168.466C527.128 168.73 527.225 168.93 527.42 169.066C527.615 169.199 527.864 169.265 528.166 169.265ZM535.821 164.521V165.377H532.828V164.521H535.821ZM533.631 163.209H534.697V168.391C534.697 168.598 534.728 168.754 534.79 168.859C534.852 168.961 534.931 169.031 535.029 169.069C535.129 169.105 535.237 169.123 535.353 169.123C535.439 169.123 535.514 169.117 535.578 169.105C535.642 169.093 535.692 169.083 535.728 169.076L535.92 169.957C535.859 169.981 535.771 170.005 535.657 170.029C535.542 170.055 535.4 170.069 535.229 170.071C534.948 170.076 534.686 170.026 534.444 169.922C534.201 169.817 534.005 169.655 533.855 169.436C533.706 169.218 533.631 168.943 533.631 168.613V163.209ZM540.508 170.111C539.968 170.111 539.503 169.995 539.113 169.765C538.726 169.532 538.426 169.205 538.215 168.784C538.005 168.36 537.901 167.865 537.901 167.296C537.901 166.735 538.005 166.241 538.215 165.813C538.426 165.385 538.721 165.051 539.099 164.81C539.48 164.57 539.924 164.45 540.433 164.45C540.742 164.45 541.042 164.501 541.332 164.603C541.622 164.706 541.882 164.866 542.113 165.085C542.344 165.304 542.526 165.588 542.659 165.937C542.792 166.285 542.858 166.707 542.858 167.204V167.582H538.503V166.783H541.813C541.813 166.502 541.756 166.254 541.642 166.037C541.528 165.819 541.368 165.646 541.161 165.52C540.956 165.394 540.716 165.331 540.44 165.331C540.141 165.331 539.879 165.405 539.656 165.552C539.434 165.697 539.263 165.888 539.142 166.123C539.023 166.356 538.964 166.609 538.964 166.883V167.507C538.964 167.873 539.028 168.185 539.156 168.441C539.287 168.698 539.469 168.894 539.702 169.03C539.935 169.163 540.207 169.23 540.519 169.23C540.721 169.23 540.905 169.201 541.072 169.144C541.238 169.085 541.382 168.997 541.503 168.88C541.624 168.764 541.717 168.62 541.781 168.448L542.791 168.63C542.71 168.928 542.565 169.188 542.356 169.411C542.149 169.633 541.888 169.805 541.574 169.929C541.263 170.05 540.907 170.111 540.508 170.111ZM547.544 172.169C547.109 172.169 546.734 172.112 546.421 171.997C546.109 171.883 545.855 171.732 545.657 171.544C545.46 171.357 545.312 171.151 545.215 170.927L546.132 170.549C546.196 170.654 546.281 170.764 546.388 170.881C546.498 171 546.645 171.101 546.831 171.184C547.019 171.267 547.26 171.309 547.555 171.309C547.959 171.309 548.293 171.21 548.557 171.013C548.821 170.818 548.953 170.506 548.953 170.078V169.001H548.885C548.821 169.118 548.728 169.247 548.607 169.39C548.488 169.533 548.324 169.656 548.115 169.761C547.905 169.866 547.633 169.918 547.298 169.918C546.865 169.918 546.475 169.817 546.128 169.615C545.783 169.41 545.51 169.109 545.308 168.712C545.108 168.313 545.008 167.822 545.008 167.239C545.008 166.657 545.107 166.157 545.304 165.741C545.504 165.325 545.777 165.007 546.124 164.785C546.472 164.562 546.865 164.45 547.305 164.45C547.645 164.45 547.92 164.507 548.129 164.621C548.338 164.733 548.501 164.864 548.618 165.014C548.737 165.163 548.828 165.295 548.892 165.41H548.971V164.521H550.016V170.121C550.016 170.592 549.906 170.978 549.688 171.28C549.469 171.582 549.173 171.806 548.8 171.951C548.429 172.096 548.01 172.169 547.544 172.169ZM547.533 169.033C547.84 169.033 548.099 168.962 548.311 168.819C548.525 168.674 548.687 168.467 548.796 168.199C548.908 167.928 548.964 167.603 548.964 167.225C548.964 166.856 548.909 166.532 548.8 166.251C548.69 165.971 548.53 165.752 548.318 165.595C548.106 165.436 547.845 165.356 547.533 165.356C547.212 165.356 546.945 165.439 546.731 165.606C546.517 165.77 546.355 165.993 546.246 166.276C546.139 166.559 546.085 166.876 546.085 167.225C546.085 167.584 546.14 167.899 546.249 168.17C546.359 168.441 546.52 168.653 546.734 168.805C546.951 168.957 547.217 169.033 547.533 169.033ZM552.651 170V164.521H553.718V170H552.651ZM553.19 163.676C553.005 163.676 552.845 163.614 552.712 163.491C552.581 163.365 552.516 163.215 552.516 163.041C552.516 162.865 552.581 162.715 552.712 162.592C552.845 162.466 553.005 162.403 553.19 162.403C553.375 162.403 553.534 162.466 553.664 162.592C553.798 162.715 553.864 162.865 553.864 163.041C553.864 163.215 553.798 163.365 553.664 163.491C553.534 163.614 553.375 163.676 553.19 163.676ZM558.666 170.111C558.135 170.111 557.679 169.99 557.296 169.75C556.915 169.508 556.623 169.174 556.419 168.748C556.214 168.322 556.112 167.835 556.112 167.286C556.112 166.729 556.216 166.238 556.426 165.813C556.635 165.385 556.93 165.051 557.31 164.81C557.691 164.57 558.139 164.45 558.655 164.45C559.071 164.45 559.442 164.527 559.768 164.682C560.093 164.834 560.356 165.048 560.556 165.324C560.758 165.6 560.878 165.922 560.916 166.291H559.878C559.821 166.034 559.69 165.813 559.486 165.627C559.284 165.442 559.013 165.349 558.673 165.349C558.375 165.349 558.115 165.427 557.892 165.584C557.67 165.739 557.498 165.96 557.374 166.248C557.251 166.533 557.189 166.871 557.189 167.261C557.189 167.66 557.25 168.005 557.371 168.295C557.492 168.585 557.663 168.81 557.884 168.969C558.108 169.129 558.371 169.208 558.673 169.208C558.875 169.208 559.058 169.171 559.222 169.098C559.388 169.022 559.528 168.913 559.639 168.773C559.753 168.633 559.833 168.464 559.878 168.267H560.916C560.878 168.621 560.763 168.937 560.57 169.215C560.378 169.494 560.12 169.712 559.796 169.872C559.475 170.031 559.098 170.111 558.666 170.111ZM567.211 170V162.695H569.815C570.383 162.695 570.854 162.799 571.227 163.006C571.601 163.212 571.88 163.495 572.065 163.854C572.251 164.211 572.344 164.613 572.344 165.06C572.344 165.509 572.25 165.914 572.062 166.273C571.876 166.629 571.596 166.912 571.22 167.122C570.847 167.328 570.377 167.432 569.811 167.432H568.021V166.497H569.711C570.07 166.497 570.362 166.436 570.585 166.312C570.809 166.186 570.973 166.015 571.077 165.798C571.182 165.582 571.234 165.336 571.234 165.06C571.234 164.784 571.182 164.539 571.077 164.325C570.973 164.111 570.808 163.944 570.582 163.822C570.358 163.701 570.063 163.64 569.697 163.64H568.313V170H567.211ZM576.301 170.121C575.953 170.121 575.64 170.057 575.359 169.929C575.078 169.798 574.856 169.609 574.692 169.362C574.53 169.114 574.45 168.811 574.45 168.452C574.45 168.143 574.509 167.888 574.628 167.689C574.747 167.489 574.907 167.331 575.109 167.214C575.311 167.098 575.537 167.01 575.787 166.95C576.037 166.891 576.291 166.846 576.55 166.815C576.878 166.777 577.145 166.746 577.349 166.722C577.554 166.696 577.702 166.654 577.795 166.597C577.888 166.54 577.934 166.447 577.934 166.319V166.294C577.934 165.983 577.846 165.741 577.67 165.57C577.497 165.399 577.238 165.313 576.893 165.313C576.534 165.313 576.251 165.393 576.044 165.552C575.839 165.709 575.698 165.884 575.619 166.077L574.617 165.848C574.736 165.515 574.91 165.247 575.138 165.042C575.369 164.835 575.634 164.686 575.933 164.593C576.233 164.498 576.548 164.45 576.878 164.45C577.097 164.45 577.329 164.476 577.574 164.529C577.821 164.578 578.052 164.671 578.266 164.807C578.482 164.942 578.659 165.136 578.797 165.388C578.935 165.638 579.004 165.962 579.004 166.362V170H577.963V169.251H577.92C577.851 169.389 577.748 169.524 577.61 169.658C577.472 169.791 577.295 169.901 577.078 169.989C576.862 170.077 576.603 170.121 576.301 170.121ZM576.533 169.265C576.827 169.265 577.079 169.207 577.289 169.09C577.5 168.974 577.661 168.822 577.77 168.634C577.882 168.444 577.938 168.24 577.938 168.024V167.318C577.9 167.356 577.826 167.391 577.717 167.425C577.61 167.456 577.487 167.483 577.349 167.507C577.211 167.528 577.077 167.548 576.946 167.567C576.815 167.584 576.706 167.598 576.618 167.61C576.411 167.636 576.222 167.68 576.051 167.742C575.882 167.804 575.747 167.893 575.644 168.01C575.545 168.124 575.495 168.276 575.495 168.466C575.495 168.73 575.592 168.93 575.787 169.066C575.982 169.199 576.231 169.265 576.533 169.265ZM581.63 170V164.521H582.661V165.392H582.718C582.818 165.097 582.994 164.865 583.246 164.696C583.5 164.525 583.788 164.439 584.109 164.439C584.176 164.439 584.254 164.442 584.344 164.447C584.437 164.451 584.51 164.457 584.562 164.464V165.484C584.519 165.473 584.443 165.459 584.334 165.445C584.224 165.429 584.115 165.42 584.006 165.42C583.753 165.42 583.529 165.474 583.331 165.581C583.136 165.685 582.982 165.832 582.868 166.019C582.754 166.205 582.697 166.417 582.697 166.654V170H581.63ZM589.571 164.521V165.377H586.579V164.521H589.571ZM587.381 163.209H588.448V168.391C588.448 168.598 588.479 168.754 588.54 168.859C588.602 168.961 588.682 169.031 588.779 169.069C588.879 169.105 588.987 169.123 589.104 169.123C589.19 169.123 589.264 169.117 589.329 169.105C589.393 169.093 589.443 169.083 589.478 169.076L589.671 169.957C589.609 169.981 589.521 170.005 589.407 170.029C589.293 170.055 589.15 170.069 588.979 170.071C588.699 170.076 588.437 170.026 588.194 169.922C587.952 169.817 587.756 169.655 587.606 169.436C587.456 169.218 587.381 168.943 587.381 168.613V163.209ZM593.023 166.747V170H591.956V164.521H592.98V165.413H593.048C593.174 165.123 593.371 164.89 593.64 164.714C593.911 164.538 594.252 164.45 594.663 164.45C595.037 164.45 595.364 164.529 595.644 164.686C595.925 164.84 596.142 165.071 596.297 165.377C596.452 165.684 596.529 166.063 596.529 166.515V170H595.462V166.644C595.462 166.247 595.359 165.936 595.152 165.713C594.945 165.487 594.661 165.374 594.3 165.374C594.052 165.374 593.832 165.427 593.64 165.534C593.449 165.641 593.298 165.798 593.187 166.005C593.077 166.21 593.023 166.457 593.023 166.747ZM601.526 170.111C600.986 170.111 600.521 169.995 600.131 169.765C599.743 169.532 599.444 169.205 599.232 168.784C599.023 168.36 598.918 167.865 598.918 167.296C598.918 166.735 599.023 166.241 599.232 165.813C599.444 165.385 599.739 165.051 600.117 164.81C600.497 164.57 600.942 164.45 601.451 164.45C601.76 164.45 602.059 164.501 602.349 164.603C602.64 164.706 602.9 164.866 603.131 165.085C603.361 165.304 603.543 165.588 603.676 165.937C603.809 166.285 603.876 166.707 603.876 167.204V167.582H599.521V166.783H602.831C602.831 166.502 602.774 166.254 602.66 166.037C602.546 165.819 602.385 165.646 602.178 165.52C601.974 165.394 601.734 165.331 601.458 165.331C601.158 165.331 600.897 165.405 600.673 165.552C600.452 165.697 600.281 165.888 600.159 166.123C600.041 166.356 599.981 166.609 599.981 166.883V167.507C599.981 167.873 600.045 168.185 600.174 168.441C600.305 168.698 600.486 168.894 600.719 169.03C600.953 169.163 601.225 169.23 601.536 169.23C601.738 169.23 601.923 169.201 602.089 169.144C602.256 169.085 602.399 168.997 602.521 168.88C602.642 168.764 602.735 168.62 602.799 168.448L603.808 168.63C603.727 168.928 603.582 169.188 603.373 169.411C603.166 169.633 602.906 169.805 602.592 169.929C602.281 170.05 601.925 170.111 601.526 170.111ZM606.265 170V164.521H607.295V165.392H607.352C607.452 165.097 607.628 164.865 607.88 164.696C608.135 164.525 608.423 164.439 608.744 164.439C608.81 164.439 608.889 164.442 608.979 164.447C609.072 164.451 609.144 164.457 609.197 164.464V165.484C609.154 165.473 609.078 165.459 608.968 165.445C608.859 165.429 608.749 165.42 608.64 165.42C608.388 165.42 608.163 165.474 607.966 165.581C607.771 165.685 607.616 165.832 607.502 166.019C607.388 166.205 607.331 166.417 607.331 166.654V170H606.265ZM615.43 165.859L614.463 166.03C614.423 165.907 614.359 165.789 614.271 165.677C614.185 165.565 614.069 165.474 613.921 165.402C613.774 165.331 613.59 165.295 613.368 165.295C613.066 165.295 612.814 165.363 612.612 165.499C612.41 165.632 612.309 165.804 612.309 166.016C612.309 166.199 612.377 166.346 612.512 166.458C612.648 166.57 612.867 166.661 613.169 166.733L614.039 166.933C614.543 167.049 614.919 167.229 615.166 167.471C615.413 167.714 615.537 168.029 615.537 168.416C615.537 168.744 615.442 169.037 615.252 169.294C615.064 169.548 614.801 169.748 614.463 169.893C614.128 170.038 613.739 170.111 613.297 170.111C612.684 170.111 612.183 169.98 611.796 169.718C611.408 169.454 611.17 169.08 611.082 168.595L612.113 168.438C612.177 168.706 612.309 168.91 612.509 169.048C612.709 169.183 612.969 169.251 613.29 169.251C613.64 169.251 613.919 169.178 614.128 169.033C614.337 168.886 614.442 168.706 614.442 168.495C614.442 168.324 614.378 168.18 614.249 168.063C614.123 167.947 613.93 167.859 613.668 167.799L612.741 167.596C612.229 167.479 611.851 167.294 611.606 167.04C611.364 166.785 611.243 166.463 611.243 166.073C611.243 165.75 611.333 165.467 611.514 165.224C611.694 164.982 611.944 164.793 612.263 164.657C612.581 164.519 612.946 164.45 613.358 164.45C613.95 164.45 614.416 164.578 614.756 164.835C615.096 165.09 615.321 165.431 615.43 165.859Z" fill="black"/>
<path d="M508.803 194V186.695H511.406C511.975 186.695 512.445 186.799 512.819 187.006C513.192 187.212 513.471 187.495 513.657 187.854C513.842 188.211 513.935 188.613 513.935 189.06C513.935 189.509 513.841 189.914 513.653 190.273C513.468 190.629 513.187 190.912 512.812 191.122C512.438 191.328 511.969 191.432 511.403 191.432H509.612V190.497H511.303C511.662 190.497 511.953 190.436 512.177 190.312C512.4 190.186 512.564 190.015 512.669 189.798C512.774 189.582 512.826 189.336 512.826 189.06C512.826 188.784 512.774 188.539 512.669 188.325C512.564 188.111 512.399 187.944 512.173 187.822C511.95 187.701 511.655 187.64 511.289 187.64H509.905V194H508.803ZM519.817 191.728V188.521H520.887V194H519.839V193.051H519.782C519.656 193.344 519.454 193.587 519.175 193.782C518.899 193.975 518.556 194.071 518.145 194.071C517.793 194.071 517.481 193.994 517.21 193.839C516.941 193.683 516.73 193.451 516.575 193.144C516.423 192.837 516.347 192.458 516.347 192.006V188.521H517.413V191.878C517.413 192.251 517.517 192.548 517.724 192.769C517.931 192.991 518.199 193.101 518.53 193.101C518.729 193.101 518.928 193.051 519.125 192.951C519.325 192.851 519.49 192.701 519.621 192.498C519.754 192.296 519.82 192.039 519.817 191.728ZM523.611 194V186.695H524.678V189.41H524.742C524.804 189.295 524.893 189.163 525.009 189.014C525.126 188.864 525.288 188.733 525.494 188.621C525.701 188.507 525.975 188.45 526.315 188.45C526.757 188.45 527.152 188.562 527.499 188.785C527.846 189.009 528.118 189.331 528.316 189.752C528.516 190.173 528.615 190.679 528.615 191.271C528.615 191.863 528.517 192.371 528.319 192.794C528.122 193.215 527.851 193.54 527.506 193.768C527.161 193.994 526.768 194.107 526.326 194.107C525.993 194.107 525.72 194.051 525.509 193.939C525.299 193.828 525.135 193.697 525.017 193.547C524.898 193.397 524.806 193.264 524.742 193.148H524.653V194H523.611ZM524.656 191.261C524.656 191.646 524.712 191.984 524.824 192.274C524.936 192.564 525.097 192.791 525.309 192.955C525.521 193.117 525.78 193.197 526.087 193.197C526.405 193.197 526.672 193.113 526.886 192.944C527.1 192.773 527.261 192.541 527.371 192.249C527.482 191.956 527.538 191.627 527.538 191.261C527.538 190.899 527.484 190.575 527.374 190.287C527.267 189.999 527.105 189.772 526.889 189.606C526.675 189.439 526.408 189.356 526.087 189.356C525.777 189.356 525.516 189.436 525.302 189.595C525.09 189.754 524.93 189.977 524.82 190.262C524.711 190.547 524.656 190.88 524.656 191.261ZM532.085 186.695V194H531.018V186.695H532.085ZM534.725 194V188.521H535.791V194H534.725ZM535.263 187.676C535.078 187.676 534.919 187.614 534.785 187.491C534.655 187.365 534.589 187.215 534.589 187.041C534.589 186.865 534.655 186.715 534.785 186.592C534.919 186.466 535.078 186.403 535.263 186.403C535.449 186.403 535.607 186.466 535.738 186.592C535.871 186.715 535.937 186.865 535.937 187.041C535.937 187.215 535.871 187.365 535.738 187.491C535.607 187.614 535.449 187.676 535.263 187.676ZM540.739 194.111C540.209 194.111 539.752 193.99 539.369 193.75C538.989 193.508 538.696 193.174 538.492 192.748C538.287 192.322 538.185 191.835 538.185 191.286C538.185 190.729 538.29 190.238 538.499 189.813C538.708 189.385 539.003 189.051 539.384 188.81C539.764 188.57 540.212 188.45 540.728 188.45C541.144 188.45 541.515 188.527 541.841 188.682C542.167 188.834 542.43 189.048 542.629 189.324C542.831 189.6 542.952 189.922 542.99 190.291H541.952C541.895 190.034 541.764 189.813 541.559 189.627C541.357 189.442 541.086 189.349 540.746 189.349C540.449 189.349 540.188 189.427 539.965 189.584C539.744 189.739 539.571 189.96 539.448 190.248C539.324 190.533 539.262 190.871 539.262 191.261C539.262 191.66 539.323 192.005 539.444 192.295C539.565 192.585 539.737 192.81 539.958 192.969C540.181 193.129 540.444 193.208 540.746 193.208C540.948 193.208 541.131 193.171 541.295 193.098C541.462 193.022 541.601 192.913 541.713 192.773C541.827 192.633 541.906 192.464 541.952 192.267H542.99C542.952 192.621 542.836 192.937 542.644 193.215C542.451 193.494 542.193 193.712 541.87 193.872C541.549 194.031 541.172 194.111 540.739 194.111ZM553.268 188.614C553.23 188.277 553.073 188.015 552.798 187.829C552.522 187.642 552.175 187.548 551.756 187.548C551.457 187.548 551.197 187.595 550.979 187.69C550.76 187.783 550.59 187.912 550.469 188.076C550.35 188.237 550.29 188.422 550.29 188.628C550.29 188.802 550.331 188.952 550.411 189.078C550.495 189.204 550.603 189.31 550.736 189.395C550.872 189.479 551.017 189.549 551.171 189.606C551.326 189.66 551.474 189.706 551.617 189.741L552.33 189.927C552.563 189.984 552.802 190.061 553.047 190.159C553.292 190.256 553.519 190.384 553.729 190.544C553.938 190.703 554.107 190.9 554.235 191.136C554.366 191.371 554.431 191.653 554.431 191.981C554.431 192.395 554.324 192.762 554.11 193.083C553.899 193.404 553.591 193.658 553.186 193.843C552.785 194.029 552.298 194.121 551.728 194.121C551.181 194.121 550.707 194.034 550.308 193.861C549.909 193.687 549.596 193.441 549.37 193.123C549.144 192.802 549.019 192.421 548.995 191.981H550.101C550.123 192.245 550.208 192.465 550.358 192.641C550.51 192.815 550.704 192.944 550.939 193.03C551.177 193.113 551.437 193.155 551.72 193.155C552.032 193.155 552.309 193.106 552.552 193.008C552.796 192.909 552.989 192.771 553.129 192.595C553.27 192.416 553.34 192.208 553.34 191.971C553.34 191.754 553.278 191.577 553.154 191.439C553.033 191.301 552.868 191.187 552.659 191.097C552.452 191.006 552.217 190.927 551.956 190.858L551.093 190.622C550.508 190.463 550.044 190.229 549.702 189.92C549.362 189.61 549.192 189.201 549.192 188.693C549.192 188.272 549.306 187.904 549.534 187.59C549.762 187.277 550.071 187.033 550.461 186.859C550.851 186.683 551.291 186.595 551.781 186.595C552.276 186.595 552.712 186.682 553.09 186.856C553.471 187.029 553.77 187.268 553.989 187.573C554.208 187.875 554.322 188.222 554.331 188.614H553.268ZM558.462 194.121C558.115 194.121 557.801 194.057 557.521 193.929C557.24 193.798 557.018 193.609 556.854 193.362C556.692 193.114 556.611 192.811 556.611 192.452C556.611 192.143 556.671 191.888 556.789 191.689C556.908 191.489 557.069 191.331 557.271 191.214C557.473 191.098 557.699 191.01 557.949 190.95C558.198 190.891 558.453 190.846 558.712 190.815C559.04 190.777 559.306 190.746 559.511 190.722C559.715 190.696 559.864 190.654 559.957 190.597C560.049 190.54 560.096 190.447 560.096 190.319V190.294C560.096 189.983 560.008 189.741 559.832 189.57C559.658 189.399 559.399 189.313 559.054 189.313C558.695 189.313 558.412 189.393 558.205 189.552C558.001 189.709 557.859 189.884 557.781 190.077L556.779 189.848C556.898 189.515 557.071 189.247 557.3 189.042C557.53 188.835 557.795 188.686 558.095 188.593C558.395 188.498 558.71 188.45 559.04 188.45C559.259 188.45 559.491 188.476 559.736 188.529C559.983 188.578 560.214 188.671 560.428 188.807C560.644 188.942 560.821 189.136 560.959 189.388C561.097 189.638 561.166 189.962 561.166 190.362V194H560.124V193.251H560.082C560.013 193.389 559.909 193.524 559.771 193.658C559.633 193.791 559.456 193.901 559.24 193.989C559.023 194.077 558.764 194.121 558.462 194.121ZM558.694 193.265C558.989 193.265 559.241 193.207 559.45 193.09C559.662 192.974 559.822 192.822 559.932 192.634C560.044 192.444 560.099 192.24 560.099 192.024V191.318C560.061 191.356 559.988 191.391 559.878 191.425C559.771 191.456 559.649 191.483 559.511 191.507C559.373 191.528 559.239 191.548 559.108 191.567C558.977 191.584 558.868 191.598 558.78 191.61C558.573 191.636 558.384 191.68 558.213 191.742C558.044 191.804 557.908 191.893 557.806 192.01C557.706 192.124 557.656 192.276 557.656 192.466C557.656 192.73 557.754 192.93 557.949 193.066C558.144 193.199 558.392 193.265 558.694 193.265ZM564.858 186.695V194H563.792V186.695H564.858ZM569.859 194.111C569.32 194.111 568.855 193.995 568.465 193.765C568.077 193.532 567.778 193.205 567.566 192.784C567.357 192.36 567.252 191.865 567.252 191.296C567.252 190.735 567.357 190.241 567.566 189.813C567.778 189.385 568.072 189.051 568.45 188.81C568.831 188.57 569.276 188.45 569.784 188.45C570.094 188.45 570.393 188.501 570.683 188.603C570.973 188.706 571.234 188.866 571.464 189.085C571.695 189.304 571.877 189.588 572.01 189.937C572.143 190.285 572.21 190.707 572.21 191.204V191.582H567.855V190.783H571.165C571.165 190.502 571.108 190.254 570.994 190.037C570.879 189.819 570.719 189.646 570.512 189.52C570.308 189.394 570.067 189.331 569.792 189.331C569.492 189.331 569.23 189.405 569.007 189.552C568.786 189.697 568.615 189.888 568.493 190.123C568.374 190.356 568.315 190.609 568.315 190.883V191.507C568.315 191.873 568.379 192.185 568.508 192.441C568.638 192.698 568.82 192.894 569.053 193.03C569.286 193.163 569.559 193.23 569.87 193.23C570.072 193.23 570.256 193.201 570.423 193.144C570.589 193.085 570.733 192.997 570.854 192.88C570.976 192.764 571.068 192.62 571.133 192.448L572.142 192.63C572.061 192.928 571.916 193.188 571.707 193.411C571.5 193.633 571.24 193.805 570.926 193.929C570.614 194.05 570.259 194.111 569.859 194.111Z" fill="black"/>
<path d="M508.442 211.644V210.695H514.096V211.644H511.816V218H510.718V211.644H508.442ZM518.031 218.111C517.492 218.111 517.027 217.995 516.637 217.765C516.249 217.532 515.949 217.205 515.738 216.784C515.529 216.36 515.424 215.865 515.424 215.296C515.424 214.735 515.529 214.241 515.738 213.813C515.949 213.385 516.244 213.051 516.622 212.81C517.003 212.57 517.448 212.45 517.956 212.45C518.265 212.45 518.565 212.501 518.855 212.603C519.145 212.706 519.406 212.866 519.636 213.085C519.867 213.304 520.049 213.588 520.182 213.937C520.315 214.285 520.382 214.707 520.382 215.204V215.582H516.027V214.783H519.337C519.337 214.502 519.28 214.254 519.166 214.037C519.051 213.819 518.891 213.646 518.684 213.52C518.48 213.394 518.239 213.331 517.964 213.331C517.664 213.331 517.402 213.405 517.179 213.552C516.958 213.697 516.786 213.888 516.665 214.123C516.546 214.356 516.487 214.609 516.487 214.883V215.507C516.487 215.873 516.551 216.185 516.679 216.441C516.81 216.698 516.992 216.894 517.225 217.03C517.458 217.163 517.73 217.23 518.042 217.23C518.244 217.23 518.428 217.201 518.595 217.144C518.761 217.085 518.905 216.997 519.026 216.88C519.148 216.764 519.24 216.62 519.305 216.448L520.314 216.63C520.233 216.928 520.088 217.188 519.879 217.411C519.672 217.633 519.412 217.805 519.098 217.929C518.786 218.05 518.431 218.111 518.031 218.111ZM526.876 213.859L525.909 214.03C525.869 213.907 525.804 213.789 525.717 213.677C525.631 213.565 525.514 213.474 525.367 213.402C525.22 213.331 525.035 213.295 524.814 213.295C524.512 213.295 524.26 213.363 524.058 213.499C523.856 213.632 523.755 213.804 523.755 214.016C523.755 214.199 523.823 214.346 523.958 214.458C524.094 214.57 524.312 214.661 524.614 214.733L525.485 214.933C525.989 215.049 526.364 215.229 526.612 215.471C526.859 215.714 526.983 216.029 526.983 216.416C526.983 216.744 526.888 217.037 526.697 217.294C526.51 217.548 526.247 217.748 525.909 217.893C525.574 218.038 525.185 218.111 524.743 218.111C524.129 218.111 523.629 217.98 523.241 217.718C522.854 217.454 522.616 217.08 522.528 216.595L523.559 216.438C523.623 216.706 523.755 216.91 523.955 217.048C524.154 217.183 524.415 217.251 524.736 217.251C525.085 217.251 525.365 217.178 525.574 217.033C525.783 216.886 525.888 216.706 525.888 216.495C525.888 216.324 525.824 216.18 525.695 216.063C525.569 215.947 525.375 215.859 525.114 215.799L524.186 215.596C523.675 215.479 523.297 215.294 523.052 215.04C522.81 214.785 522.688 214.463 522.688 214.073C522.688 213.75 522.779 213.467 522.959 213.224C523.14 212.982 523.39 212.793 523.708 212.657C524.027 212.519 524.392 212.45 524.803 212.45C525.395 212.45 525.862 212.578 526.202 212.835C526.542 213.09 526.766 213.431 526.876 213.859ZM531.918 212.521V213.377H528.925V212.521H531.918ZM529.728 211.209H530.794V216.391C530.794 216.598 530.825 216.754 530.887 216.859C530.949 216.961 531.029 217.031 531.126 217.069C531.226 217.105 531.334 217.123 531.451 217.123C531.536 217.123 531.611 217.117 531.675 217.105C531.74 217.093 531.79 217.083 531.825 217.076L532.018 217.957C531.956 217.981 531.868 218.005 531.754 218.029C531.64 218.055 531.497 218.069 531.326 218.071C531.045 218.076 530.784 218.026 530.541 217.922C530.299 217.817 530.102 217.655 529.953 217.436C529.803 217.218 529.728 216.943 529.728 216.613V211.209ZM535.369 214.747V218H534.303V212.521H535.327V213.413H535.394C535.52 213.123 535.718 212.89 535.986 212.714C536.258 212.538 536.599 212.45 537.01 212.45C537.383 212.45 537.71 212.529 537.991 212.686C538.272 212.84 538.489 213.071 538.644 213.377C538.798 213.684 538.876 214.063 538.876 214.515V218H537.809V214.644C537.809 214.247 537.706 213.936 537.499 213.713C537.292 213.487 537.008 213.374 536.646 213.374C536.399 213.374 536.179 213.427 535.986 213.534C535.796 213.641 535.645 213.798 535.533 214.005C535.424 214.21 535.369 214.457 535.369 214.747ZM543.872 218.111C543.333 218.111 542.868 217.995 542.478 217.765C542.09 217.532 541.791 217.205 541.579 216.784C541.37 216.36 541.265 215.865 541.265 215.296C541.265 214.735 541.37 214.241 541.579 213.813C541.791 213.385 542.085 213.051 542.463 212.81C542.844 212.57 543.289 212.45 543.797 212.45C544.107 212.45 544.406 212.501 544.696 212.603C544.986 212.706 545.247 212.866 545.477 213.085C545.708 213.304 545.89 213.588 546.023 213.937C546.156 214.285 546.223 214.707 546.223 215.204V215.582H541.868V214.783H545.178C545.178 214.502 545.121 214.254 545.007 214.037C544.892 213.819 544.732 213.646 544.525 213.52C544.321 213.394 544.08 213.331 543.805 213.331C543.505 213.331 543.243 213.405 543.02 213.552C542.799 213.697 542.628 213.888 542.506 214.123C542.387 214.356 542.328 214.609 542.328 214.883V215.507C542.328 215.873 542.392 216.185 542.521 216.441C542.651 216.698 542.833 216.894 543.066 217.03C543.299 217.163 543.572 217.23 543.883 217.23C544.085 217.23 544.269 217.201 544.436 217.144C544.602 217.085 544.746 216.997 544.867 216.88C544.989 216.764 545.081 216.62 545.146 216.448L546.155 216.63C546.074 216.928 545.929 217.188 545.72 217.411C545.513 217.633 545.253 217.805 544.939 217.929C544.627 218.05 544.272 218.111 543.872 218.111ZM551.169 212.521V213.377H548.176V212.521H551.169ZM548.979 211.209H550.045V216.391C550.045 216.598 550.076 216.754 550.138 216.859C550.2 216.961 550.279 217.031 550.377 217.069C550.477 217.105 550.585 217.123 550.702 217.123C550.787 217.123 550.862 217.117 550.926 217.105C550.99 217.093 551.04 217.083 551.076 217.076L551.269 217.957C551.207 217.981 551.119 218.005 551.005 218.029C550.891 218.055 550.748 218.069 550.577 218.071C550.296 218.076 550.035 218.026 549.792 217.922C549.549 217.817 549.353 217.655 549.203 217.436C549.054 217.218 548.979 216.943 548.979 216.613V211.209Z" fill="black"/>
<path d="M509.42 242H508.25L510.878 234.695H512.152L514.78 242H513.611L511.545 236.022H511.488L509.42 242ZM509.616 239.139H513.411V240.067H509.616V239.139ZM517.004 242V236.521H518.071V242H517.004ZM517.543 235.676C517.357 235.676 517.198 235.614 517.065 235.491C516.934 235.365 516.869 235.215 516.869 235.041C516.869 234.865 516.934 234.715 517.065 234.592C517.198 234.466 517.357 234.403 517.543 234.403C517.728 234.403 517.886 234.466 518.017 234.592C518.15 234.715 518.217 234.865 518.217 235.041C518.217 235.215 518.15 235.365 518.017 235.491C517.886 235.614 517.728 235.676 517.543 235.676ZM520.711 242V236.521H521.741V237.392H521.798C521.898 237.097 522.074 236.865 522.326 236.696C522.581 236.525 522.868 236.439 523.189 236.439C523.256 236.439 523.334 236.442 523.425 236.447C523.518 236.451 523.59 236.457 523.642 236.464V237.484C523.6 237.473 523.524 237.459 523.414 237.445C523.305 237.429 523.195 237.42 523.086 237.42C522.834 237.42 522.609 237.474 522.412 237.581C522.217 237.685 522.062 237.832 521.948 238.019C521.834 238.205 521.777 238.417 521.777 238.654V242H520.711ZM527.625 242.107C527.183 242.107 526.788 241.994 526.441 241.768C526.096 241.54 525.825 241.215 525.628 240.794C525.433 240.371 525.335 239.863 525.335 239.271C525.335 238.679 525.434 238.173 525.632 237.752C525.831 237.331 526.105 237.009 526.452 236.785C526.799 236.562 527.193 236.45 527.632 236.45C527.973 236.45 528.246 236.507 528.453 236.621C528.662 236.733 528.824 236.864 528.938 237.014C529.054 237.163 529.145 237.295 529.209 237.41H529.273V234.695H530.34V242H529.298V241.148H529.209C529.145 241.264 529.052 241.397 528.931 241.547C528.812 241.697 528.648 241.828 528.439 241.939C528.229 242.051 527.958 242.107 527.625 242.107ZM527.861 241.197C528.167 241.197 528.427 241.117 528.638 240.955C528.852 240.791 529.014 240.564 529.123 240.274C529.235 239.984 529.291 239.646 529.291 239.261C529.291 238.88 529.236 238.547 529.127 238.262C529.018 237.977 528.857 237.754 528.645 237.595C528.434 237.436 528.172 237.356 527.861 237.356C527.54 237.356 527.272 237.439 527.058 237.606C526.844 237.772 526.683 237.999 526.573 238.287C526.466 238.575 526.413 238.899 526.413 239.261C526.413 239.627 526.467 239.956 526.577 240.249C526.686 240.541 526.848 240.773 527.062 240.944C527.278 241.113 527.544 241.197 527.861 241.197ZM533.067 242V236.521H534.098V237.392H534.155C534.255 237.097 534.431 236.865 534.683 236.696C534.937 236.525 535.225 236.439 535.546 236.439C535.613 236.439 535.691 236.442 535.781 236.447C535.874 236.451 535.947 236.457 535.999 236.464V237.484C535.956 237.473 535.88 237.459 535.771 237.445C535.661 237.429 535.552 237.42 535.443 237.42C535.19 237.42 534.966 237.474 534.768 237.581C534.573 237.685 534.419 237.832 534.305 238.019C534.191 238.205 534.134 238.417 534.134 238.654V242H533.067ZM540.239 242.111C539.725 242.111 539.277 241.993 538.894 241.757C538.511 241.522 538.214 241.193 538.002 240.769C537.791 240.346 537.685 239.852 537.685 239.286C537.685 238.717 537.791 238.22 538.002 237.795C538.214 237.369 538.511 237.039 538.894 236.803C539.277 236.568 539.725 236.45 540.239 236.45C540.752 236.45 541.201 236.568 541.583 236.803C541.966 237.039 542.263 237.369 542.475 237.795C542.687 238.22 542.792 238.717 542.792 239.286C542.792 239.852 542.687 240.346 542.475 240.769C542.263 241.193 541.966 241.522 541.583 241.757C541.201 241.993 540.752 242.111 540.239 242.111ZM540.242 241.215C540.575 241.215 540.851 241.127 541.07 240.951C541.289 240.775 541.45 240.541 541.555 240.249C541.662 239.956 541.715 239.634 541.715 239.282C541.715 238.933 541.662 238.612 541.555 238.319C541.45 238.024 541.289 237.788 541.07 237.609C540.851 237.431 540.575 237.342 540.242 237.342C539.907 237.342 539.629 237.431 539.408 237.609C539.189 237.788 539.026 238.024 538.919 238.319C538.814 238.612 538.762 238.933 538.762 239.282C538.762 239.634 538.814 239.956 538.919 240.249C539.026 240.541 539.189 240.775 539.408 240.951C539.629 241.127 539.907 241.215 540.242 241.215ZM545.188 244.054V236.521H546.23V237.41H546.319C546.381 237.295 546.47 237.163 546.586 237.014C546.703 236.864 546.865 236.733 547.071 236.621C547.278 236.507 547.552 236.45 547.892 236.45C548.334 236.45 548.729 236.562 549.076 236.785C549.423 237.009 549.695 237.331 549.893 237.752C550.093 238.173 550.192 238.679 550.192 239.271C550.192 239.863 550.094 240.371 549.896 240.794C549.699 241.215 549.428 241.54 549.083 241.768C548.738 241.994 548.345 242.107 547.903 242.107C547.57 242.107 547.297 242.051 547.086 241.939C546.876 241.828 546.712 241.697 546.594 241.547C546.475 241.397 546.383 241.264 546.319 241.148H546.255V244.054H545.188ZM546.233 239.261C546.233 239.646 546.289 239.984 546.401 240.274C546.513 240.564 546.674 240.791 546.886 240.955C547.098 241.117 547.357 241.197 547.664 241.197C547.982 241.197 548.248 241.113 548.462 240.944C548.677 240.773 548.838 240.541 548.948 240.249C549.059 239.956 549.115 239.627 549.115 239.261C549.115 238.899 549.061 238.575 548.951 238.287C548.844 237.999 548.682 237.772 548.466 237.606C548.252 237.439 547.985 237.356 547.664 237.356C547.354 237.356 547.093 237.436 546.879 237.595C546.667 237.754 546.507 237.977 546.397 238.262C546.288 238.547 546.233 238.88 546.233 239.261Z" fill="black"/>
</g>
<defs>
<clipPath id="clip0_555_2467">
<rect width="716" height="449" fill="white"/>
</clipPath>
</defs>
</svg>
